<svg width="92" height="92" viewBox="0 0 92 92" fill="none" xmlns="http://www.w3.org/2000/svg">
<g clip-path="url(#clip0_414_32553)">
<path d="M43.65 13.0268C43.5687 13.1711 43.39 13.2206 43.2499 13.1402C43.2092 13.1175 43.1747 13.0825 43.1483 13.0433C42.5674 12.1426 41.8972 11.3078 41.1397 10.5348C40.9447 10.3369 40.8797 10.0422 40.9731 9.78041C41.487 8.32726 42.0658 6.97511 40.7822 5.7693C38.8792 3.98017 36.7791 3.71221 34.4821 4.96749C34.0413 5.20865 33.4056 5.75693 32.5729 6.61646C30.8161 8.43032 29.1527 10.9635 28.5516 13.5607C28.5008 13.775 28.3119 13.9234 28.0966 13.9193L24.9425 13.8472C24.7191 13.841 24.5424 13.6534 24.5485 13.4267C24.5485 13.3834 24.5566 13.3401 24.5708 13.301C25.172 11.5634 25.9032 9.91439 26.7643 8.35612C28.7628 4.74488 31.7727 2.24876 35.6438 1.04295C38.3227 0.21022 40.9061 0.0638742 43.8652 -2.32491e-05C44.5355 -0.0144517 44.9417 0.267934 45.0859 0.845072C45.2748 1.60154 45.3865 2.55381 45.423 3.69985C45.4982 6.08054 45.2382 8.37261 44.6391 10.574C44.3974 11.4644 44.0663 12.2827 43.65 13.0268ZM43.4611 12.5857C43.8327 11.8725 44.1191 11.1284 44.3202 10.3514C45.094 7.37704 45.2666 4.39447 44.8422 1.40366C44.7629 0.838889 44.6086 0.383362 43.983 0.3813C40.1099 0.366872 36.2511 0.774991 32.7984 2.66306C28.8156 4.83969 26.4109 8.99303 24.973 13.3401C24.9547 13.3958 24.9831 13.4576 25.038 13.4762C25.0481 13.4803 25.0583 13.4823 25.0705 13.4823L27.9768 13.5483C28.0946 13.5504 28.1962 13.47 28.2246 13.3545C28.8765 10.6647 30.483 8.33138 32.3089 6.35056C32.9365 5.6683 33.5844 5.1159 34.2546 4.69335C36.4663 3.29173 39.1513 3.62977 40.9995 5.46836C42.3847 6.84525 41.9703 8.19534 41.3549 9.79896C41.3082 9.92058 41.3285 10.0607 41.4098 10.1638L43.3169 12.6001C43.3473 12.6372 43.4022 12.6434 43.4408 12.6125C43.4489 12.6043 43.457 12.596 43.4611 12.5857Z" fill="black"/>
<path d="M61.5636 4.74284C61.594 4.81498 61.5636 4.89743 61.4925 4.92835C61.4884 4.92835 61.4864 4.93041 61.4823 4.93247L58.5374 5.96514C58.3302 6.03728 58.1007 6.02079 57.9058 5.91773C56.4455 5.15302 55.0421 4.59237 53.399 4.70368C50.7831 4.87888 49.3634 6.82466 49.9402 9.41972C51.1791 15.0077 57.6864 15.457 62.1424 15.3107C62.772 15.29 62.8594 15.7703 63.0523 16.4175C63.2493 17.0812 63.3935 17.6666 63.4869 18.1716C63.5296 18.3942 63.3854 18.6107 63.166 18.6539C63.1457 18.6581 63.1234 18.6601 63.101 18.6622C61.7992 18.7096 60.3145 18.7137 58.6471 18.6704C56.3582 18.6127 54.2236 18.1799 52.2434 17.3698C49.268 16.1537 47.4076 13.5009 46.453 10.473C45.5431 7.58937 45.9737 4.16776 46.5018 1.17282C46.646 0.358647 47.0928 0.177261 47.893 0.133976C52.7633 -0.129859 57.1624 1.20786 61.0924 4.14921C61.3016 4.30586 61.46 4.50374 61.5636 4.74284ZM61.0274 4.57176C57.2416 1.65309 52.481 0.10718 47.6939 0.529728C47.1517 0.577136 46.9567 0.731726 46.8572 1.28001C46.3901 3.88125 46.0813 6.59587 46.4936 9.02809C46.7577 10.5822 47.3832 12.1302 48.3723 13.6699C49.3431 15.1808 50.6531 16.2877 52.3023 16.9864C54.0286 17.7181 55.9235 18.1428 57.987 18.2602C59.7641 18.3612 61.4397 18.3674 63.0117 18.2788C63.0828 18.2726 63.1356 18.2108 63.1295 18.1407C63.1295 18.1325 63.1274 18.1242 63.1254 18.1139L62.5466 15.995C62.4958 15.8074 62.3232 15.6796 62.1323 15.6858C57.3513 15.8383 50.7547 15.2632 49.5462 9.32903C48.9918 6.61442 50.5983 4.57382 53.269 4.33472C54.9547 4.18425 56.5247 4.75314 58.0093 5.5632C58.1475 5.6374 58.3079 5.65183 58.4541 5.6003L61.0051 4.70574C61.0457 4.69131 61.066 4.64596 61.0518 4.6068C61.0477 4.59237 61.0376 4.58 61.0274 4.57176Z" fill="black"/>
<path d="M28.4541 5.31382C28.2287 5.70545 27.6844 6.5691 26.8212 7.9027C26.7562 8.00576 26.6648 8.08821 26.5572 8.14386C26.3927 8.23043 26.1571 8.31494 25.8484 8.39739C20.4053 9.8155 20.9476 15.7353 21.5467 20.0123C21.5914 20.3359 21.4208 20.5317 21.037 20.5997C20.5475 20.6863 19.6275 20.8388 18.2769 21.0573C18.0474 21.0944 17.83 20.9398 17.7854 20.709C17.304 18.1696 17.2268 15.6838 17.5518 13.2515C18.1428 8.83437 20.779 5.64155 25.2899 5.02113C26.2485 4.88921 27.2173 4.83974 28.1982 4.87066C28.4135 4.87684 28.5638 5.12625 28.4541 5.31382ZM27.9606 5.23755C26.9654 5.219 26.1246 5.26229 25.4402 5.36329C17.6066 6.5155 17.0908 14.2904 18.1002 20.5214C18.1184 20.6286 18.2159 20.6987 18.3215 20.6822L21.0228 20.239C21.1263 20.2225 21.1954 20.1257 21.1812 20.0205C20.4947 15.152 20.1372 9.36822 26.2079 7.90476C26.3541 7.86766 26.48 7.77696 26.5592 7.65123L28.0155 5.34474C28.0358 5.31176 28.0256 5.26847 27.9931 5.24786C27.983 5.24168 27.9728 5.23755 27.9606 5.23755Z" fill="black"/>
<path d="M75.2197 13.9028C75.2238 14.1131 75.0592 14.2841 74.8521 14.2883C74.848 14.2883 74.8419 14.2883 74.8379 14.2883L71.765 14.2161C71.5395 14.212 71.3446 14.0595 71.2796 13.841C71.0643 13.1196 70.847 12.3775 70.5403 11.7757C68.0239 6.86173 62.1686 7.80989 58.3808 10.3472C57.3185 11.0584 56.0289 12.1384 54.5117 13.5875C54.463 13.6328 54.4041 13.6699 54.3431 13.6967C54.0649 13.8101 53.7623 13.7462 53.4393 13.505C52.4503 12.7692 51.841 12.3074 51.6115 12.1178C51.2601 11.8251 51.453 11.4335 51.7557 11.1511C54.6031 8.5004 57.9522 6.03313 61.8436 5.33232C63.379 5.05405 64.817 4.96954 66.1594 5.07879C70.2377 5.40652 73.4487 7.7563 74.7465 11.7468C74.9861 12.4827 75.2095 13.2803 75.2197 13.9028ZM74.848 13.7688C74.4946 11.248 73.2273 8.66117 71.1151 7.21214C68.3651 5.32407 65.0871 5.0891 61.8477 5.70952C58.001 6.44537 54.6519 8.89821 51.8633 11.5675C51.7841 11.6437 51.78 11.7695 51.8552 11.8499C51.8633 11.8581 51.8735 11.8663 51.8816 11.8746C52.4665 12.3074 53.0677 12.7589 53.6851 13.2309C53.943 13.4267 54.1868 13.4081 54.4183 13.1773C55.3241 12.2703 56.368 11.3737 57.548 10.4853C61.4475 7.55018 68.1153 6.13619 70.8571 11.6066C71.1313 12.1549 71.3811 12.8454 71.6086 13.6761C71.635 13.7709 71.7183 13.8369 71.8158 13.8389L74.7282 13.9069C74.7952 13.9069 74.848 13.8554 74.8501 13.7895C74.8501 13.7833 74.8501 13.7771 74.8501 13.7688H74.848Z" fill="black"/>
<path d="M42.5088 27.579C41.9746 26.9379 41.2983 26.2124 40.4798 25.4065C40.2178 25.1529 40.1224 24.7737 40.1711 24.38C40.4128 22.4157 40.4615 20.711 40.3173 19.262C40.035 16.3907 38.6377 13.7545 36.3549 11.9509C34.854 10.7657 33.2211 10.0484 31.4703 9.32285C31.2835 9.24453 31.1941 9.0281 31.2693 8.83847C31.2835 8.80343 31.3018 8.77251 31.3261 8.74365L33.1358 6.50106C33.3043 6.29082 33.5866 6.21455 33.8365 6.3073C37.0982 7.52754 40.2178 9.50012 42.1818 12.3302C45.3115 16.836 44.6535 22.5847 42.982 27.4904C42.9333 27.6367 42.7748 27.715 42.6306 27.6635C42.5839 27.647 42.5413 27.6181 42.5088 27.579ZM42.7241 27.0719C44.2209 22.7413 44.7226 17.7511 42.5677 13.6658C40.7906 10.2978 37.3034 7.99337 33.7268 6.66389C33.6151 6.62061 33.4892 6.65565 33.412 6.75046L31.7263 8.84053C31.6795 8.89824 31.6897 8.98275 31.7466 9.0281C31.7567 9.03635 31.7669 9.04253 31.7791 9.04871C33.1764 9.61142 34.5554 10.2133 35.6928 10.9904C39.2612 13.4308 40.9469 16.9328 40.754 21.4943C40.7053 22.6444 40.6423 23.506 40.5326 24.5634C40.5143 24.7345 40.5692 24.9035 40.685 25.0313L42.5677 27.1049C42.6022 27.1441 42.6611 27.1461 42.6997 27.109C42.7098 27.0987 42.72 27.0864 42.7241 27.0719Z" fill="black"/>
<path d="M64.4147 20.5049L64.2989 20.4575C64.2441 20.4348 64.2055 20.3874 64.1974 20.3297C63.7688 17.5533 62.9504 14.6696 61.746 11.6829C61.4759 11.011 61.1875 10.4235 60.8808 9.92266C60.763 9.73097 60.8219 9.4795 61.0108 9.35995C61.0412 9.3414 61.0737 9.32697 61.1062 9.31667C62.0384 9.02604 62.8752 8.78281 63.6145 8.59112C64.1182 8.4592 64.3619 8.72098 64.567 9.18475C64.89 9.91648 65.2007 10.6132 65.4952 11.2748C66.6549 13.8802 67.4145 16.6422 67.774 19.5629C67.8288 20.004 67.8958 20.1236 67.512 20.3297C67.5038 20.3338 67.4998 20.3462 67.5038 20.3544C67.5079 20.3606 67.514 20.3647 67.5221 20.3647C68.9133 20.3132 69.8801 20.2905 70.4183 20.2988C70.8753 20.307 71.3546 20.3173 71.3282 20.8697C71.2795 21.9395 71.2287 22.7475 71.1779 23.2937C71.1556 23.5473 70.9464 23.7389 70.6966 23.7389C69.6993 23.7369 68.6189 23.7637 67.4571 23.8214C66.9352 23.8461 66.5412 23.8853 66.271 23.9389C65.7552 24.0419 65.3043 24.0131 64.695 24.1058C60.895 24.6768 57.3184 25.9115 53.9653 27.8078C53.8759 27.8593 53.7642 27.8408 53.6931 27.7665C53.029 27.0513 52.57 26.2392 52.312 25.3261C52.1881 24.8912 52.4542 24.6747 52.8238 24.4769C55.6957 22.9392 58.7462 21.8138 61.9755 21.1006C63.0072 20.8718 63.8156 20.7131 64.4005 20.6224C64.433 20.6162 64.4553 20.5853 64.4492 20.5503C64.4452 20.5296 64.433 20.5132 64.4147 20.5049ZM61.2829 9.80311C62.859 13.1175 63.9151 16.5082 64.5508 20.1545C64.563 20.2246 64.628 20.272 64.697 20.2637L67.3068 19.9587C67.3942 19.9484 67.4571 19.868 67.447 19.7773C67.447 19.7773 67.447 19.7773 67.447 19.7752C67.2236 18.0727 66.8905 16.432 66.4498 14.8551C65.9359 13.0227 64.9143 10.7698 64.0979 9.08375C64.0126 8.90855 63.8135 8.82404 63.6328 8.88793L61.3256 9.69799C61.287 9.71036 61.2667 9.75364 61.2789 9.7928C61.2789 9.79693 61.2809 9.79899 61.2829 9.80311ZM65.0179 20.5049C64.9549 20.4987 64.9123 20.5049 64.8859 20.5255C64.8615 20.542 64.8534 20.577 64.8717 20.6018C64.8798 20.6142 64.892 20.6224 64.9062 20.6265C64.9184 20.6286 64.959 20.6203 65.0281 20.5997C65.0545 20.5935 65.0687 20.5667 65.0606 20.542C65.0545 20.5214 65.0382 20.507 65.0179 20.5049ZM70.859 23.1556L70.922 20.8017C70.922 20.7481 70.8814 20.7048 70.8306 20.7028C64.5041 20.4884 58.5451 21.8591 52.9518 24.8149C52.6857 24.9551 52.6045 25.1509 52.7081 25.4023C52.9782 26.0516 53.3235 26.6782 53.7419 27.278C53.8068 27.3729 53.9307 27.4038 54.0302 27.3481C55.588 26.5175 57.1661 25.7981 58.7645 25.19C62.4974 23.774 66.5412 23.3947 70.66 23.3556C70.7697 23.3556 70.857 23.2669 70.859 23.1556Z" fill="black"/>
<path d="M39.1149 15.7126C39.1373 15.9352 39.0053 16.1434 38.7981 16.2217C37.3256 16.77 35.6338 17.1719 33.7206 17.4255C32.5081 17.5862 30.7737 17.5986 28.5132 17.4646C26.9331 17.3719 24.7944 17.2441 22.0993 17.0812C21.8942 17.0689 21.7358 16.8937 21.7398 16.6834L21.7906 14.3336C21.7967 14.0739 22.0099 13.8657 22.2679 13.8719C22.276 13.8719 22.2841 13.8719 22.2923 13.8719C22.6761 13.8987 24.7721 13.9812 28.5802 14.1193C31.3931 14.2203 34.1248 13.8493 36.7712 13.0042C36.9966 12.932 37.2099 13.0124 37.4069 13.2412C38.0791 14.0224 38.6336 14.818 39.0723 15.624C39.1007 15.6755 39.1149 15.7043 39.1149 15.7105V15.7126ZM38.6905 15.6528L37.1997 13.503C37.1124 13.3752 36.956 13.3195 36.8098 13.3649C35.5851 13.7338 34.7483 14.01 33.6435 14.1749C29.9207 14.7273 25.8973 14.4429 22.3491 14.2429C22.2476 14.2368 22.1623 14.3151 22.1541 14.4182C22.1541 14.4202 22.1541 14.4243 22.1541 14.4264L22.1054 16.5845C22.1054 16.6443 22.1481 16.6937 22.2069 16.6999C23.9313 16.8442 26.6629 16.9967 30.4 17.1575C33.2129 17.2791 35.9507 16.8545 38.6174 15.8857C38.6966 15.8569 38.7372 15.7682 38.7087 15.6879C38.7047 15.6755 38.6986 15.6631 38.6905 15.6528Z" fill="black"/>
<path d="M16.4005 32.6001C15.9191 33.4328 15.2631 34.1068 14.4365 34.6201C14.2151 34.7582 13.9308 34.7396 13.7277 34.5768C9.63322 31.2768 5.3194 26.9812 6.63345 21.0759C7.66519 16.4361 12.111 14.4285 16.4208 13.9956C16.8717 13.9503 17.0037 14.1337 16.9692 14.5748C16.9062 15.2983 16.8717 16.1228 16.8656 17.0524C16.8656 17.2667 16.7193 17.4543 16.5122 17.5038C14.6518 17.9531 12.6817 18.454 11.3047 19.8577C9.71243 21.4799 9.76727 23.7596 10.6589 25.8063C11.8104 28.4509 14.0689 30.2833 16.2888 32.0168C16.4655 32.1549 16.5122 32.4063 16.4005 32.6001ZM16.4269 14.379C14.8813 14.5088 13.3012 14.9293 11.6886 15.6404C9.55808 16.5783 8.10795 18.0335 7.34023 20.004C5.91448 23.6689 7.27321 27.5089 9.73071 30.3245C10.9798 31.755 12.3913 33.07 13.9633 34.2697C14.0628 34.3459 14.1989 34.3521 14.3045 34.2841C14.9768 33.8492 15.5515 33.2617 16.0329 32.5259C16.0938 32.4331 16.0715 32.3074 15.9841 32.2414C14.9585 31.4458 13.9694 30.6028 13.0128 29.7123C11.1626 27.9892 9.44028 25.2354 9.68197 22.5826C10.009 19.0105 13.3865 17.8377 16.3497 17.1699C16.4391 17.1493 16.502 17.0709 16.5041 16.9782L16.5548 14.4985C16.5548 14.4346 16.5061 14.379 16.4411 14.379C16.437 14.379 16.4309 14.379 16.4269 14.379Z" fill="black"/>
<path d="M85.6512 24.413C85.641 24.446 85.6044 24.4645 85.5719 24.4542C85.5679 24.4542 85.5659 24.4521 85.5618 24.4501C84.4732 23.8853 83.4414 23.3865 82.4645 22.9557C82.1233 22.8052 81.9629 22.595 81.8309 22.1992C80.0903 16.8999 72.2405 17.8542 68.2496 18.2252C67.9795 18.25 67.7337 18.0624 67.6809 17.7924L67.1976 15.354C67.1529 15.1272 67.2971 14.9046 67.5205 14.8593C67.5286 14.8593 67.5367 14.8572 67.5449 14.8552C71.0504 14.3584 74.4177 14.377 77.645 14.9149C78.5935 15.0736 79.6394 15.3931 80.7869 15.8775C83.8923 17.1884 85.7568 19.699 85.7486 23.2484C85.7486 23.6565 85.7771 24.0193 85.6512 24.413ZM85.3709 23.809C85.8746 14.2492 73.8328 14.4532 67.6992 15.1911C67.62 15.2014 67.5611 15.2756 67.5713 15.356C67.5713 15.3601 67.5713 15.3622 67.5713 15.3663L68.0222 17.6419C68.0486 17.7738 68.1684 17.8625 68.3004 17.8501C72.5858 17.4131 80.5473 16.5928 82.2289 22.2322C82.2777 22.3951 82.3934 22.529 82.5458 22.5991L85.3059 23.8482C85.3282 23.8585 85.3546 23.8482 85.3648 23.8255C85.3668 23.8193 85.3688 23.8152 85.3688 23.809H85.3709Z" fill="black"/>
<path d="M49.3025 15.9435L51.7296 17.3863C51.9509 17.5182 52.0444 17.7944 51.9509 18.0376C49.5483 24.1739 53.4539 28.76 58.0561 32.1157C58.4217 32.3795 58.2612 32.6928 57.922 32.8742C56.9573 33.3895 56.2099 33.7708 55.6798 34.0161C55.1883 34.2408 54.969 33.9955 54.6237 33.7173C52.6354 32.1157 51.0309 30.4028 49.8103 28.5787C47.1273 24.5779 46.8471 20.3998 48.9674 16.0444C49.0243 15.9249 49.1685 15.8754 49.2863 15.9331C49.2924 15.9352 49.2985 15.9393 49.3025 15.9435ZM57.8327 32.3878C53.066 29.0136 49.2152 24.1553 51.5772 17.9366C51.6199 17.8253 51.5772 17.7017 51.4757 17.6419L49.3127 16.3763C49.2741 16.3536 49.2254 16.366 49.203 16.4031C49.203 16.4031 49.201 16.4072 49.1989 16.4093C45.7341 23.3906 49.8326 29.5021 55.1762 33.6802C55.2858 33.7667 55.4361 33.7791 55.56 33.7152L57.8205 32.5527C57.8672 32.5279 57.8855 32.4702 57.8611 32.4228C57.855 32.4084 57.8449 32.3981 57.8327 32.3878Z" fill="black"/>
<path d="M32.5485 32.4269C32.5871 32.4867 32.6013 32.5588 32.5891 32.6269C32.5586 32.7979 32.4165 32.9381 32.1585 33.0473C30.8201 33.608 30.0057 33.9254 29.7132 34.0017C29.4228 34.078 29.1689 33.9563 28.9475 33.641C25.6004 28.8342 23.7827 23.574 24.0325 17.78C24.0447 17.5161 24.2153 17.3925 24.5423 17.4069C26.358 17.4914 27.2841 17.5367 27.3207 17.5409C27.8163 17.5862 27.8609 17.916 27.8528 18.3777C27.7817 23.1329 29.0978 27.4512 31.8011 31.3304C32.1626 31.8477 32.4124 32.2126 32.5485 32.4269ZM32.1423 32.5011C29.372 28.6632 27.6985 24.5613 27.5055 19.7361C27.4852 19.194 27.471 18.6333 27.4629 18.05C27.4629 17.9531 27.3857 17.8748 27.2923 17.8727L24.5098 17.8088C24.4286 17.8068 24.3615 17.8707 24.3595 17.9531C24.3595 17.9531 24.3595 17.9531 24.3595 17.9552C24.2762 23.7327 25.9417 28.9249 29.3558 33.5276C29.437 33.6389 29.5832 33.6822 29.7112 33.6307L32.0935 32.6722C32.1504 32.6495 32.1788 32.5815 32.1545 32.5238C32.1504 32.5156 32.1463 32.5073 32.1423 32.5011Z" fill="black"/>
<path d="M73.3515 33.5503C73.3413 33.5565 73.3332 33.5668 73.3352 33.5791C73.3454 33.6039 73.3718 33.6162 73.3941 33.608C76.6904 32.3548 79.0748 30.174 80.5473 27.0678C80.7666 26.6019 81.0571 26.5566 81.4836 26.8101C82.4199 27.3687 83.212 27.8552 83.8558 28.2695C84.0812 28.4137 84.1584 28.7085 84.0345 28.9476C83.1652 30.6234 82.164 32.0538 81.0286 33.239C78.0004 36.4051 73.7232 37.9489 69.389 38.0272C66.1435 38.087 62.9366 37.6665 59.7682 36.7699C59.6484 36.7348 59.5793 36.6091 59.6139 36.4875C59.62 36.4669 59.6281 36.4483 59.6382 36.4298C59.6707 36.3783 59.7479 36.3102 59.8698 36.2257C60.5908 35.7331 61.4519 35.1312 62.4532 34.416C62.6644 34.2655 63.3001 34.249 63.6149 34.2799C67.0209 34.5933 69.8724 34.6015 72.8559 33.7605C72.9047 33.7482 72.9331 33.6966 72.9209 33.6472C72.9209 33.641 72.9169 33.6369 72.9148 33.6307C71.6495 31.0438 71.1093 28.2633 71.2941 25.2848C71.3977 23.6008 71.5662 21.4159 71.8018 18.7281C71.8222 18.487 72.0192 18.3015 72.2568 18.2953C72.9189 18.2788 73.7293 18.3118 74.6859 18.3921C75.2058 18.4375 75.4008 18.6745 75.3541 19.2043C75.1225 21.8282 74.956 23.8276 75.0697 26.1979C75.1652 28.2035 75.5734 29.7618 76.3553 31.4685C76.4548 31.6849 76.3695 31.9446 76.1603 32.0559L73.3515 33.5503ZM73.1179 33.1277C73.1504 33.1854 73.2235 33.2081 73.2824 33.1772L75.9044 31.7879C76.006 31.7344 76.0446 31.6086 75.9958 31.5035C75.1063 29.634 74.7244 27.7191 74.6899 25.5342C74.6554 23.4875 74.7671 21.3232 75.025 19.0373C75.0413 18.893 74.9397 18.7611 74.7955 18.7446C74.7874 18.7446 74.7772 18.7446 74.7691 18.7446L72.3482 18.689C72.2385 18.6848 72.1471 18.7693 72.139 18.8807C72.0435 20.1215 71.9135 21.7457 71.7511 23.7513C71.615 25.4435 71.5845 26.7442 71.6617 27.6511C71.8242 29.5763 72.2202 31.5324 73.1179 33.1298V33.1277ZM60.2414 36.5102C64.9107 37.7593 70.0491 38.2375 74.6879 36.7575C78.7499 35.4631 81.7801 32.563 83.7197 28.7806C83.7623 28.6961 83.7319 28.5931 83.6527 28.5457L81.1952 27.0904C81.1058 27.0369 80.9921 27.0678 80.9393 27.1585C80.9372 27.1626 80.9352 27.1667 80.9332 27.1708C78.8331 31.5262 75.0433 34.113 70.3273 34.6736C68.1197 34.9354 65.7881 34.9189 63.3326 34.6283C63.0259 34.5933 62.7172 34.6716 62.4634 34.8509L60.2272 36.4318C60.2069 36.4442 60.2029 36.471 60.215 36.4916C60.2211 36.5019 60.2313 36.5081 60.2414 36.5102Z" fill="black"/>
<path d="M32.2176 37.2481C32.175 37.2358 32.1526 37.1904 32.1648 37.1471C32.1709 37.1265 32.1851 37.11 32.2054 37.0997L34.7421 35.7558C35.0712 35.5806 35.4489 35.5167 35.8165 35.5765C37.5693 35.8547 40.5487 36.1392 40.6016 33.4246C40.6239 32.2744 40.2827 31.182 39.582 30.1452C38.2639 28.2015 36.5558 26.6906 34.4578 25.6126C32.7558 24.7386 30.802 24.1842 29.0066 23.6957C28.7182 23.6153 28.505 23.3659 28.4704 23.0649L28.2105 20.7791C28.1861 20.5544 28.3445 20.3524 28.5659 20.3277C28.6045 20.3235 28.6431 20.3235 28.6817 20.3318C30.0851 20.5936 31.4885 20.946 32.8899 21.3851C39.1067 23.3329 44.6595 27.9933 45.0941 35.0364C45.155 36.0196 45.1591 36.8338 45.1063 37.479C45.0555 38.1056 44.757 38.4642 44.2127 38.5549C41.55 38.9981 38.8102 38.9486 35.9953 38.4024C34.7929 38.1695 33.5236 37.6954 32.2176 37.2481ZM33.16 37.1471C36.6614 38.4766 40.3091 38.8229 44.105 38.1901C44.4807 38.1283 44.6859 37.8871 44.7204 37.4687C45.5409 27.4594 37.1489 22.1827 28.6735 20.7234C28.6207 20.7131 28.57 20.7502 28.5598 20.8038C28.5598 20.8141 28.5598 20.8223 28.5598 20.8327L28.8259 22.9846C28.8482 23.168 28.9823 23.3164 29.159 23.3576C33.3834 24.314 37.1083 26.0455 39.6957 29.632C41.7877 32.5321 41.6435 36.7328 36.8483 36.065C36.6614 36.0382 36.1943 35.9867 35.4489 35.9083C35.3494 35.9001 35.2479 35.9186 35.1585 35.9661L33.1519 37.0235C33.1194 37.042 33.1072 37.0832 33.1234 37.1162C33.1316 37.1306 33.1438 37.143 33.16 37.1471Z" fill="black"/>
<path d="M10.5309 23.9966C10.4902 23.7863 10.5999 23.574 10.7929 23.4875C12.1293 22.8794 13.6038 22.3641 15.2184 21.9395C17.9359 21.2243 20.6614 20.7419 23.3972 20.4925C23.649 20.4719 23.8724 20.6492 23.911 20.9007L24.2644 23.1556C24.305 23.4195 24.1263 23.6647 23.8664 23.706C23.8623 23.706 23.8562 23.706 23.8521 23.708C19.7678 24.2027 15.781 25.1447 11.8937 26.536C11.7088 26.602 11.5037 26.5216 11.4123 26.3464C10.9635 25.4992 10.669 24.716 10.5309 23.9966ZM17.0971 21.8571C15.0519 22.3353 13.0412 22.9639 11.0691 23.7451C10.9391 23.7967 10.8741 23.943 10.9188 24.077L11.5748 26.0021C11.6154 26.1196 11.7413 26.1815 11.8571 26.1402C13.8556 25.4374 15.7972 24.8644 17.68 24.4233C19.5627 23.9822 21.5551 23.6338 23.6572 23.3782C23.779 23.3638 23.8643 23.2525 23.8501 23.1288L23.6084 21.1068C23.5922 20.9666 23.4683 20.8656 23.3302 20.8759C21.22 21.0511 19.1423 21.3768 17.0971 21.8571Z" fill="black"/>
<path d="M76.0911 37.0606C77.2305 36.4504 78.4247 35.9269 79.3325 35.1745C79.5296 35.0117 79.7916 34.9581 80.0353 35.0303C82.0906 35.6445 84.1846 36.0567 85.8419 34.348C86.831 33.3277 87.095 31.9652 86.4877 30.6729C85.7281 29.0548 84.213 28.1438 82.771 27.2059C80.5735 25.7775 78.2114 24.8314 75.6869 24.3635C75.4513 24.3202 75.2868 24.1017 75.3092 23.8585C75.3762 23.1144 75.4432 22.2363 75.5102 21.2284C75.5407 20.7749 75.9306 20.7832 76.2901 20.8842C83.2381 22.83 89.8774 25.7837 91.0818 34.0512C91.2727 35.3662 91.3459 36.6174 91.2991 37.8067C91.2545 38.9177 89.323 38.9857 88.5532 39.0166C84.9889 39.1547 81.6032 38.86 78.3922 38.1324C77.5432 37.9407 76.7755 37.6356 76.087 37.2213C76.0444 37.1945 76.0302 37.1368 76.0566 37.0935C76.0647 37.0791 76.0769 37.0688 76.0911 37.0606ZM76.806 37.1904C77.2528 37.4233 77.8296 37.6191 78.5344 37.7799C81.5768 38.4745 84.8467 38.7652 88.3461 38.6559C89.0915 38.6312 89.8226 38.5178 90.5375 38.3138C90.7386 38.2561 90.8848 38.0809 90.9072 37.8727C90.962 37.345 90.9722 36.8276 90.9356 36.3185C90.8076 34.482 90.6045 32.7835 90.0034 31.182C89.0122 28.5395 87.3123 26.435 84.9036 24.8664C82.2064 23.1103 79.1376 22.0405 76.0159 21.1996C75.9286 21.1748 75.8372 21.2284 75.8149 21.317C75.8108 21.3294 75.8088 21.3418 75.8088 21.3562L75.7539 23.8832C75.7519 23.9533 75.8007 24.0152 75.8677 24.0275C78.2054 24.4542 80.4638 25.3405 82.6471 26.6865C84.1602 27.6202 85.8926 28.6879 86.7436 30.3637C88.0922 33.0144 86.0998 35.5126 83.555 35.9063C82.3892 36.0856 81.1218 35.7331 79.9703 35.393C79.8322 35.3518 79.6839 35.3807 79.5681 35.4693C78.7761 36.0774 77.856 36.6153 76.808 37.0791C76.7776 37.0935 76.7633 37.1306 76.7776 37.1616C76.7837 37.1739 76.7938 37.1842 76.806 37.1904Z" fill="black"/>
<path d="M48.5731 27.4965C48.5954 27.4574 48.6442 27.4429 48.6828 27.4636C48.6929 27.4697 48.7031 27.478 48.7092 27.4883L50.2202 29.669C50.3461 29.8525 50.3928 30.0792 50.3522 30.2957C50.2202 30.9862 50.1288 31.5695 50.0801 32.0456C49.9318 33.4926 51.0509 34.3397 52.3243 34.4882C53.7887 34.6592 55.19 34.4366 56.5325 33.8224C59.6014 32.4146 61.8537 30.1843 63.2896 27.1276C63.5313 26.6143 63.836 25.7919 64.2056 24.6624C64.3133 24.3326 64.687 24.1532 65.0607 24.1388C65.6862 24.112 66.5047 24.0419 67.5141 23.9245C67.5892 23.9162 67.6644 23.9306 67.7314 23.9636C67.965 24.0852 68.0422 24.2955 67.9629 24.5964C66.1087 31.5963 61.4536 36.6133 54.27 38.1612C52.8788 38.4601 51.3109 38.6168 49.5642 38.6291C47.7444 38.6415 47.0052 38.6435 46.7817 36.6772C46.4101 33.3936 47.0072 30.3348 48.5731 27.4965ZM48.5995 28.2386C47.4723 30.4667 46.9564 32.9031 47.0519 35.5476C47.0783 36.2896 47.1636 36.9266 47.3057 37.4584C47.4215 37.8953 47.6429 38.1344 48.0755 38.1757C50.0273 38.3632 52.0847 38.2272 54.2477 37.7717C58.8397 36.8049 62.4021 34.4119 64.9388 30.5925C66.1879 28.7126 67.0226 26.6411 67.6238 24.4233C67.638 24.3697 67.6075 24.314 67.5527 24.2996C67.5405 24.2955 67.5283 24.2955 67.5161 24.2955L64.9063 24.5428C64.7337 24.5593 64.5874 24.6809 64.5387 24.852C63.3506 29.0177 60.7042 32.2703 56.7803 34.1213C55.3403 34.8015 53.8313 35.0467 52.2573 34.855C50.7808 34.6778 49.5825 33.6678 49.7084 32.0374C49.7267 31.8065 49.8201 31.184 49.9927 30.1679C50.009 30.0772 49.9887 29.9823 49.9359 29.9081L48.7701 28.2262C48.7396 28.1809 48.6767 28.1685 48.632 28.2015C48.6178 28.2118 48.6076 28.2241 48.5995 28.2386Z" fill="black"/>
<path d="M6.15616 25.8785C6.52173 26.7277 6.75936 27.5646 7.31382 28.3684C7.46615 28.589 7.47224 28.8817 7.33007 29.1105C6.20084 30.9182 4.9599 32.7403 6.59688 34.6964C7.1879 35.4013 7.96577 35.8135 8.93252 35.9351C11.7292 36.2897 14.1298 35.5724 16.1344 33.7812C17.0159 32.9959 17.6211 31.9446 17.9501 30.6296C18.3502 29.0322 18.4863 27.3049 18.3543 25.4436C18.3259 25.054 18.5229 24.8397 18.9067 24.7593C19.7232 24.5903 20.5437 24.4233 21.3683 24.2584C21.6364 24.2048 21.8415 24.2605 21.9857 24.4274C22.0365 24.4831 22.0649 24.5552 22.069 24.6294C22.4488 30.0318 21.7582 35.1478 16.5569 37.6748C13.8414 38.994 10.866 39.5629 7.82766 39.4969C5.622 39.4495 3.46915 39.2496 1.37114 38.895C0.997439 38.8311 0.788247 38.5364 0.745596 38.0087C0.351584 33.2638 2.41913 28.8879 5.91853 25.8229C5.98149 25.7672 6.07695 25.7754 6.13178 25.8393C6.14194 25.8517 6.15006 25.8641 6.15616 25.8785ZM5.86572 26.3691C2.58567 29.3619 0.707008 33.5936 1.1193 38.118C1.13961 38.3385 1.30412 38.5178 1.5194 38.5508C6.51158 39.3464 11.7109 39.6268 16.3599 37.3594C19.0793 36.0341 20.7407 33.942 21.348 31.0872C21.7887 29.0033 21.9045 26.8926 21.6953 24.7551C21.6851 24.6665 21.6059 24.6006 21.5186 24.6109C21.5145 24.6109 21.5084 24.6109 21.5044 24.6129L18.9006 25.1447C18.8011 25.1653 18.732 25.254 18.7361 25.355C18.8377 28.286 18.732 32.0931 16.2908 34.1584C14.2212 35.9083 11.8023 36.636 9.03407 36.3412C6.99495 36.1248 5.29908 34.4964 5.45749 32.3342C5.54077 31.1944 6.26177 30.0916 6.92793 29.0816C6.99699 28.9786 7.00917 28.8466 6.96043 28.7312L5.98149 26.3938C5.96524 26.3567 5.92259 26.3402 5.884 26.3567C5.87791 26.3608 5.86979 26.365 5.86572 26.3691Z" fill="black"/>
<path d="M19.1482 36.4236L20.7771 34.4016C20.903 34.247 21.1 34.1769 21.2909 34.214C22.8548 34.5294 24.4755 34.8653 25.8667 34.8427C30.4263 34.7726 34.5431 32.3342 37.6079 28.9888C38.0019 28.5601 38.2984 28.758 38.5929 29.162C39.0763 29.8277 39.4866 30.4317 39.8237 30.9779C39.9679 31.2088 39.9212 31.5097 39.7161 31.6849C37.9877 33.1607 35.912 34.9251 33.8526 35.9908C29.1976 38.3962 24.1363 38.7755 19.2863 36.943C19.1178 36.8791 19.0325 36.6895 19.0934 36.5205C19.1056 36.4854 19.1238 36.4525 19.1482 36.4236ZM19.5727 36.6524C23.001 37.9324 26.4963 38.0788 30.0567 37.0935C32.5121 36.4154 34.6772 35.2693 36.7914 33.5936C37.7988 32.7959 38.6823 32.0765 39.4439 31.4355C39.5394 31.3551 39.5576 31.2108 39.4866 31.1057L38.1725 29.2073C38.1258 29.1372 38.0303 29.1228 37.9613 29.1702C37.9532 29.1764 37.945 29.1826 37.9389 29.1908C35.1463 32.1775 31.6571 34.482 27.6703 35.0776C25.4849 35.4033 23.3564 35.0426 21.3275 34.5953C21.2076 34.5685 21.0817 34.6139 21.0025 34.7107L19.5382 36.5267C19.5118 36.5617 19.5158 36.6112 19.5504 36.64C19.5564 36.6462 19.5646 36.6503 19.5727 36.6524Z" fill="black"/>
<path d="M50.8236 44.6994L50.8134 42.8175C50.8134 42.7103 50.7708 42.6052 50.6936 42.531C50.6347 42.4753 50.5514 42.4362 50.4397 42.4135C50.3666 42.4011 50.3158 42.329 50.33 42.2527C50.3382 42.2094 50.3646 42.1723 50.4032 42.1538L51.3577 41.6467C51.3923 41.6282 51.4349 41.6426 51.4532 41.6777C51.4593 41.688 51.4613 41.6983 51.4613 41.7106L51.5507 47.9087C51.5527 48.0365 51.6563 48.1375 51.7802 48.1354C51.7822 48.1354 51.7842 48.1354 51.7863 48.1354C51.8573 48.1313 51.9427 48.1127 52.0422 48.0798C52.1072 48.0592 52.1742 48.0963 52.1945 48.1602C52.1986 48.1705 52.2006 48.1828 52.2006 48.1952V48.255C52.2006 48.3127 52.1681 48.3642 52.1173 48.3869L50.9739 48.8795C50.917 48.9043 50.852 48.8775 50.8276 48.8197C50.8215 48.8074 50.8195 48.7929 50.8175 48.7765L50.8114 48.3044C50.8114 48.2818 50.7931 48.2632 50.7708 48.2632C50.7606 48.2632 50.7525 48.2673 50.7444 48.2735C50.1473 48.7971 49.4323 49.1083 48.691 48.6384C48.1 48.2653 47.8055 47.6778 47.8116 46.8781C47.8238 45.2827 49.1643 44.3263 50.6895 44.8004C50.7444 44.8169 50.8012 44.786 50.8195 44.7303C50.8236 44.72 50.8236 44.7097 50.8236 44.6994ZM50.8175 47.6655C50.8317 46.8327 50.8236 46.303 50.7951 46.0742C50.6794 45.1817 49.7939 44.6685 49.0668 45.2188C48.4798 45.6661 48.3762 46.6472 48.5976 47.3295C48.9348 48.3683 50.0132 48.7291 50.7423 47.8633C50.789 47.8077 50.8155 47.7376 50.8175 47.6655Z" fill="black"/>
<path d="M3.46503 45.7465V45.7423C3.48128 45.6496 3.55846 45.5795 3.64985 45.5754C5.96315 45.4641 5.22793 42.2053 3.1482 42.6485C2.96338 42.6876 2.83136 42.8546 2.83339 43.0463L2.90448 48.0303C2.90854 48.2405 3.07508 48.4116 3.28224 48.4157L3.67219 48.424C3.75953 48.426 3.82858 48.4961 3.83061 48.5847V48.6672C3.83061 48.7125 3.79812 48.7476 3.75343 48.7496C3.75343 48.7496 3.75343 48.7496 3.7514 48.7496L1.22079 48.7867C1.17001 48.7867 1.12736 48.7517 1.11924 48.7002L1.10908 48.6301C1.10096 48.5415 1.16595 48.4611 1.25532 48.4508C1.26141 48.4508 1.2675 48.4508 1.27359 48.4508C1.80165 48.4631 2.06568 48.2508 2.06365 47.8159C2.05959 45.0518 2.05553 43.4853 2.04943 43.1164C2.04334 42.7556 1.78337 42.6382 1.26547 42.766C1.19845 42.7824 1.12939 42.7412 1.11315 42.6732C1.11112 42.6629 1.10908 42.6546 1.10908 42.6443V42.5743C1.10908 42.5186 1.14564 42.4712 1.20048 42.4568C2.11646 42.2486 3.59502 42.059 4.58614 42.4279C6.97052 43.3184 6.07689 46.2123 3.60923 45.9402C3.51987 45.9299 3.45285 45.8495 3.463 45.7588C3.463 45.7547 3.463 45.7506 3.463 45.7465H3.46503Z" fill="black"/>
<path d="M84.142 44.4994C84.6822 46.237 83.6302 48.123 81.7921 48.7126C79.9541 49.3 78.0267 48.3683 77.4864 46.6307C76.9462 44.8931 77.9982 43.0071 79.8363 42.4176C81.6743 41.8302 83.6017 42.7618 84.142 44.4994ZM81.1605 48.5064C82.5659 48.3374 83.5489 46.8801 83.358 45.2538C83.1671 43.6275 81.8734 42.4465 80.4679 42.6155C79.0625 42.7845 78.0795 44.2418 78.2704 45.8681C78.4613 47.4944 79.755 48.6754 81.1605 48.5064Z" fill="black"/>
<path d="M10.2219 46.3339C10.1955 46.0907 10.1224 45.8908 10.0006 45.732C9.9498 45.664 9.87059 45.6249 9.78529 45.6269L8.42655 45.6475C8.35547 45.6475 8.2986 45.7073 8.2986 45.7774C8.28845 46.6348 8.29454 47.3295 8.31688 47.8592C8.32907 48.1601 8.48342 48.3189 8.77792 48.3353C9.53141 48.3786 10.2016 48.358 10.7886 48.2776C10.8556 48.2694 10.9145 48.2302 10.9511 48.1725L11.408 47.4552C11.4446 47.3975 11.5177 47.3728 11.5827 47.3975L11.6619 47.4264C11.7249 47.4511 11.7553 47.5212 11.733 47.5851L11.3268 48.6981C11.3126 48.7373 11.2781 48.762 11.2374 48.762L6.66365 48.7785C6.58445 48.7785 6.52148 48.7146 6.52148 48.6342V48.628C6.52961 48.5353 6.59663 48.4611 6.68599 48.4487L7.18359 48.3683C7.38262 48.3374 7.52682 48.1601 7.52276 47.9561L7.45371 43.1761C7.44965 42.9473 7.28311 42.7577 7.0597 42.7289C6.85863 42.7021 6.7124 42.6753 6.62506 42.6464C6.55601 42.6237 6.51742 42.5495 6.53976 42.4774C6.55601 42.4217 6.60679 42.3846 6.66365 42.3846L11.0831 42.3207C11.1562 42.3207 11.2171 42.3785 11.2192 42.4527L11.2354 43.6007C11.2354 43.6708 11.1806 43.7265 11.1115 43.7285C11.0953 43.7285 11.0811 43.7265 11.0668 43.7203L10.9958 43.6935C10.9328 43.6708 10.8881 43.609 10.8861 43.541C10.8536 42.7639 10.2991 42.801 9.64109 42.7598C9.24504 42.733 8.91805 42.7433 8.66012 42.7886C8.44077 42.8257 8.28235 43.0174 8.28641 43.2421L8.31282 45.0972C8.31282 45.1673 8.36969 45.225 8.43874 45.227C9.05819 45.2456 9.9498 45.4373 10.1996 44.5943C10.224 44.5015 10.3194 44.4479 10.4088 44.4726C10.4839 44.4933 10.5347 44.5633 10.5347 44.6417L10.5591 46.3463C10.5591 46.4102 10.5083 46.4638 10.4433 46.4658H10.3722C10.2951 46.47 10.2301 46.4122 10.2219 46.3339Z" fill="black"/>
<path d="M22.6214 46.2762C22.6032 45.8145 22.3635 45.5939 21.9025 45.6146C21.3541 45.6413 20.887 45.6455 20.5011 45.631C20.4178 45.6269 20.3467 45.6949 20.3427 45.7794C20.3427 45.7836 20.3427 45.7856 20.3427 45.7898L20.3731 48.0241C20.3772 48.2158 20.5214 48.3745 20.7082 48.3931L21.1794 48.4384C21.2586 48.4467 21.3196 48.5126 21.3196 48.593V48.6672C21.3196 48.7146 21.283 48.7538 21.2363 48.7558C21.2363 48.7558 21.2363 48.7558 21.2343 48.7558L18.728 48.7929C18.659 48.7929 18.6041 48.7393 18.6021 48.6713V48.5806C18.6021 48.5002 18.663 48.4343 18.7422 48.4343C18.7463 48.4343 18.7524 48.4343 18.7565 48.4343C18.9068 48.4467 19.0774 48.4219 19.2662 48.358C19.4572 48.2962 19.5851 48.1148 19.5831 47.9107L19.514 43.1452C19.512 42.9494 19.3698 42.7824 19.1789 42.7495L18.7483 42.6753C18.659 42.6608 18.592 42.5846 18.5879 42.4939V42.4382C18.592 42.4114 18.6143 42.3888 18.6407 42.3888L23.2409 42.3207C23.316 42.3207 23.377 42.3805 23.379 42.4568L23.3952 43.6172C23.3952 43.6729 23.3526 43.7182 23.2978 43.7203H23.2104C23.1434 43.7203 23.0865 43.6688 23.0825 43.6007C23.0622 43.1906 22.9972 42.8855 22.5341 42.8196C21.807 42.7186 21.1632 42.7165 20.6026 42.8134C20.4544 42.8402 20.3488 42.97 20.3508 43.1225L20.3792 45.0972C20.3792 45.1528 20.4219 45.1982 20.4767 45.2023C20.9987 45.2394 21.9431 45.3116 22.4041 45.0539C22.4529 45.0271 22.4894 44.9838 22.5097 44.9302L22.6499 44.5427C22.6742 44.4768 22.7352 44.4335 22.8063 44.4314H22.8753C22.9261 44.4314 22.9667 44.4706 22.9687 44.5221C22.9687 44.5221 22.9687 44.5221 22.9687 44.5242L22.9951 46.3112C22.9951 46.3813 22.9423 46.437 22.8733 46.439H22.7941C22.7027 46.4432 22.6255 46.369 22.6214 46.2762Z" fill="black"/>
<path d="M28.8745 42.7021C28.7871 42.7 28.716 42.6258 28.7181 42.5372V42.4527C28.7221 42.4073 28.7587 42.3723 28.8034 42.3702L30.942 42.3393C31.005 42.3393 31.0557 42.3867 31.0618 42.4506L31.0679 42.5227C31.072 42.5908 31.0253 42.6505 30.9603 42.6608L30.4729 42.7392C30.2637 42.7721 30.1093 42.9535 30.1052 43.1679C30.1012 43.3802 30.0951 44.4933 30.087 46.5112C30.0829 47.9272 29.3802 48.7105 27.9808 48.861C26.5348 49.0176 25.1598 48.5724 25.0339 46.8781C24.977 46.1051 24.9689 44.9405 25.0075 43.3823C25.0257 42.7268 24.6561 42.7515 24.1727 42.6608C24.0874 42.6444 24.0285 42.566 24.0346 42.4774V42.463C24.0448 42.3991 24.0976 42.3517 24.1605 42.3517H26.6424C26.7135 42.3517 26.7704 42.4094 26.7765 42.4795V42.4856C26.7765 42.5825 26.7054 42.6629 26.6119 42.6732L26.1793 42.7268C25.9823 42.7495 25.828 42.9123 25.8138 43.1122C25.8077 43.1823 25.8016 44.1367 25.7955 45.9732C25.7914 47.2429 25.9905 48.1972 27.3553 48.3477C29.4939 48.5848 29.7661 47.2903 29.6848 45.4208C29.6625 44.9034 29.6584 44.1573 29.6767 43.1803C29.6828 42.9267 29.4838 42.7165 29.2319 42.7103L28.8745 42.7021Z" fill="black"/>
<path d="M37.234 43.4585L35.1299 48.7991C35.1055 48.8589 35.0385 48.8878 34.9796 48.863C34.9512 48.8507 34.9289 48.828 34.9146 48.8012L32.8511 43.879C32.8511 43.879 32.8369 43.8687 32.8288 43.8728C32.8247 43.8749 32.8207 43.8811 32.8207 43.8852L32.7293 48.0117C32.7232 48.2282 32.8918 48.4096 33.1071 48.4157C33.1071 48.4157 33.1071 48.4157 33.1091 48.4157L33.432 48.424C33.5173 48.424 33.5843 48.4941 33.5864 48.5806V48.6693C33.5904 48.7393 33.5336 48.7971 33.4645 48.7991C33.4645 48.7991 33.4625 48.7991 33.4604 48.7991L31.4416 48.7517C31.3888 48.7517 31.3462 48.7064 31.3482 48.6528L31.3502 48.5951C31.3502 48.527 31.401 48.4693 31.468 48.459L31.9128 48.3869C32.1403 48.3498 32.3089 48.154 32.315 47.919L32.4185 43.2586C32.4246 42.9721 32.1992 42.733 31.9169 42.7268L31.5269 42.7186C31.4457 42.7165 31.3787 42.6464 31.3807 42.564L31.3848 42.4465C31.3848 42.3826 31.4396 42.329 31.5026 42.3311L33.0542 42.3661C33.103 42.3661 33.1477 42.3991 33.168 42.4444L35.203 47.3006C35.2132 47.3212 35.2396 47.3315 35.2599 47.3192C35.268 47.3151 35.2762 47.3068 35.2802 47.2986L37.1853 42.4609C37.2097 42.4032 37.2645 42.364 37.3254 42.362L38.9462 42.3496C39.0233 42.3496 39.0863 42.4073 39.0903 42.4836V42.4898C39.0863 42.5887 39.0111 42.6712 38.9137 42.6835L38.4993 42.7412C38.2901 42.7701 38.1378 42.9515 38.1419 43.1617C38.1459 43.3946 38.1866 44.9467 38.2617 47.818C38.2719 48.257 38.5176 48.4611 38.9949 48.4302C39.0883 48.424 39.1696 48.492 39.1858 48.5848L39.198 48.6631C39.2081 48.729 39.1635 48.7909 39.0985 48.8012C39.0904 48.8012 39.0843 48.8012 39.0761 48.8012L36.6105 48.7455C36.5597 48.7455 36.5171 48.7002 36.5191 48.6487L36.5211 48.593C36.5211 48.525 36.5719 48.4673 36.6369 48.457L37.165 48.3725C37.3193 48.3477 37.4331 48.2117 37.431 48.0509L37.366 43.4812C37.364 43.442 37.3315 43.4132 37.2929 43.4152C37.2665 43.4152 37.2442 43.4317 37.234 43.4565V43.4585Z" fill="black"/>
<path d="M43.5752 46.4658H43.5041C43.4269 46.47 43.3619 46.4122 43.3538 46.3339C43.3274 46.0907 43.2543 45.8908 43.1324 45.732C43.0816 45.664 43.0024 45.6249 42.9171 45.6269L41.5584 45.6475C41.4873 45.6475 41.4304 45.7073 41.4304 45.7774C41.4203 46.6348 41.4264 47.3295 41.4487 47.8592C41.4609 48.1601 41.6153 48.3189 41.9098 48.3353C42.6632 48.3786 43.3335 48.358 43.9204 48.2776C43.9875 48.2694 44.0464 48.2302 44.0829 48.1725L44.5399 47.4552C44.5764 47.3975 44.6496 47.3728 44.7145 47.3975L44.7938 47.4264C44.8567 47.4511 44.8872 47.5212 44.8648 47.5851L44.4586 48.6981C44.4444 48.7373 44.4099 48.762 44.3693 48.762L39.7955 48.7785C39.7163 48.7785 39.6533 48.7146 39.6533 48.6342V48.628C39.6614 48.5353 39.7285 48.4611 39.8178 48.4487L40.3154 48.3683C40.5145 48.3374 40.6587 48.1601 40.6546 47.9561L40.5835 43.1761C40.5795 42.9473 40.4129 42.7577 40.1895 42.7289C39.9884 42.7021 39.8422 42.6753 39.7549 42.6464C39.6858 42.6237 39.6472 42.5495 39.6696 42.4774C39.6858 42.4217 39.7366 42.3846 39.7935 42.3846L44.2129 42.3207C44.286 42.3207 44.3469 42.3785 44.349 42.4527L44.3652 43.6007C44.3652 43.6708 44.3104 43.7265 44.2413 43.7285C44.2251 43.7285 44.2109 43.7265 44.1966 43.7203L44.1256 43.6935C44.0626 43.6708 44.0179 43.609 44.0159 43.541C43.9834 42.7639 43.4289 42.801 42.7709 42.7598C42.3748 42.733 42.0479 42.7433 41.7899 42.7886C41.5706 42.8257 41.4122 43.0174 41.4162 43.2421L41.4426 45.0972C41.4426 45.1673 41.4995 45.225 41.5685 45.227C42.188 45.2456 43.0816 45.4373 43.3294 44.5943C43.3538 44.5015 43.4492 44.4479 43.5386 44.4726C43.6138 44.4933 43.6645 44.5633 43.6645 44.6417L43.6909 46.3463C43.6909 46.4102 43.6402 46.4638 43.5752 46.4658Z" fill="black"/>
<path d="M64.6098 43.4833C64.6098 43.4441 64.5793 43.4132 64.5427 43.4111C64.5123 43.4111 64.4859 43.4297 64.4757 43.4585L62.3716 48.7991C62.3472 48.8589 62.2802 48.8878 62.2213 48.863C62.1929 48.8507 62.1705 48.828 62.1563 48.8012L60.0928 43.879C60.0928 43.879 60.0786 43.8687 60.0705 43.8728C60.0664 43.8749 60.0624 43.8811 60.0624 43.8852L59.971 48.0117C59.9649 48.2282 60.1335 48.4096 60.3488 48.4157C60.3488 48.4157 60.3487 48.4157 60.3508 48.4157L60.6737 48.424C60.759 48.424 60.826 48.4941 60.8281 48.5806V48.6693C60.8321 48.7393 60.7753 48.7971 60.7062 48.7991C60.7062 48.7991 60.7042 48.7991 60.7021 48.7991L58.6833 48.7517C58.6305 48.7517 58.5879 48.7064 58.5899 48.6528V48.5951C58.5899 48.527 58.6407 48.4693 58.7077 48.459L59.1525 48.3869C59.38 48.3498 59.5485 48.154 59.5546 47.919L59.6582 43.2586C59.6643 42.9721 59.4389 42.733 59.1566 42.7268L58.7666 42.7186C58.6854 42.7165 58.6183 42.6464 58.6204 42.564L58.6244 42.4465C58.6244 42.3826 58.6793 42.329 58.7422 42.3311L60.2939 42.3661C60.3427 42.3661 60.3873 42.3991 60.4076 42.4444L62.4427 47.3006C62.4529 47.3212 62.4793 47.3315 62.4996 47.3192C62.5077 47.3151 62.5158 47.3068 62.5199 47.2986L64.4249 42.4609C64.4493 42.4032 64.5042 42.364 64.5651 42.362L66.1878 42.3496C66.265 42.3496 66.328 42.4073 66.332 42.4836V42.4898C66.328 42.5887 66.2528 42.6712 66.1554 42.6835L65.741 42.7412C65.5318 42.7701 65.3795 42.9515 65.3836 43.1617C65.3876 43.3946 65.4283 44.9467 65.5034 47.818C65.5136 48.257 65.7593 48.4611 66.2366 48.4302C66.33 48.424 66.4113 48.492 66.4275 48.5848L66.4397 48.6631C66.4498 48.729 66.4052 48.7909 66.3402 48.8012C66.3321 48.8012 66.326 48.8012 66.3178 48.8012L63.8502 48.7455C63.7994 48.7455 63.7567 48.7002 63.7588 48.6487L63.7608 48.593C63.7608 48.525 63.8116 48.4673 63.8766 48.457L64.4067 48.3725C64.561 48.3477 64.6748 48.2117 64.6727 48.0509L64.6077 43.4812L64.6098 43.4833Z" fill="black"/>
<path d="M73.2151 48.4405C73.2983 48.4343 73.3715 48.4982 73.3775 48.5827C73.3775 48.5848 73.3775 48.5889 73.3775 48.591V48.6507C73.3775 48.7085 73.3329 48.7559 73.276 48.7579L71.0033 48.7909C70.9424 48.7909 70.8916 48.7414 70.8896 48.6775L70.8875 48.591C70.8875 48.5085 70.9525 48.4426 71.0338 48.4405C71.3364 48.4364 71.5273 48.3519 71.6086 48.1849C71.6289 48.1437 71.6309 48.0942 71.6146 48.0489L70.9404 46.3257C70.914 46.2577 70.851 46.2144 70.7799 46.2165L68.9358 46.2432C68.885 46.2432 68.8383 46.2783 68.82 46.3278L68.2391 47.919C68.1721 48.1045 68.2655 48.3106 68.4504 48.3787C68.4788 48.389 68.5072 48.3951 68.5357 48.3993L68.9398 48.4384C69.0089 48.4467 69.0617 48.5044 69.0637 48.5765V48.6549C69.0658 48.7105 69.0231 48.7538 68.9683 48.7559L66.9576 48.7847C66.9007 48.7847 66.856 48.7414 66.854 48.6837V48.5889C66.854 48.5023 66.919 48.4323 67.0043 48.4302C67.4369 48.4158 67.6989 48.2777 67.7903 48.0159C68.6596 45.4888 69.2668 43.7244 69.6121 42.7206C69.6913 42.4898 69.8721 42.3537 70.1523 42.3105C70.2112 42.3022 70.2681 42.3352 70.2884 42.3908C71.2349 44.8148 71.9254 46.6019 72.358 47.7541C72.5387 48.2364 72.8251 48.4652 73.2151 48.4405ZM68.9662 45.7774C68.954 45.8104 68.9723 45.8475 69.0048 45.8578C69.0109 45.8599 69.019 45.8619 69.0272 45.8619L70.6946 45.8331C70.7291 45.8331 70.7576 45.8021 70.7555 45.7671C70.7555 45.7609 70.7555 45.7527 70.7515 45.7465L69.8781 43.3823C69.866 43.3493 69.8314 43.3308 69.7989 43.3431C69.7807 43.3493 69.7644 43.3658 69.7583 43.3843L68.9662 45.7774Z" fill="black"/>
<path d="M73.9137 42.5083V42.4465C73.9137 42.4032 73.9462 42.3681 73.9889 42.3681L76.5317 42.329C76.5845 42.329 76.6271 42.3702 76.6312 42.4217L76.6393 42.4939C76.6515 42.5825 76.5926 42.665 76.5073 42.6814C76.1661 42.7412 75.7132 42.6835 75.6908 43.17C75.6746 43.5636 75.6726 45.4022 75.6827 48.6899C75.6868 49.9451 75.0287 51.2602 73.5766 50.7861C73.1399 50.6439 72.884 50.0626 73.3552 49.7679C73.5299 49.6566 73.7675 49.7225 73.8833 49.9122C73.8853 49.9163 73.8873 49.9184 73.8893 49.9225C73.9462 50.0235 73.999 50.143 74.0498 50.277C74.1087 50.4419 74.2895 50.5264 74.4519 50.4646C74.5291 50.4357 74.5921 50.3759 74.6286 50.2997C74.785 49.9555 74.8642 49.502 74.8662 48.9434C74.8764 46.5503 74.8744 44.6231 74.8622 43.1658C74.8602 42.8463 74.6063 42.6918 74.1046 42.6979C74.001 42.6979 73.9157 42.6134 73.9137 42.5083Z" fill="black"/>
<path d="M88.1794 45.4867L88.4516 45.7052C88.5653 45.7959 88.6628 45.9031 88.74 46.0247C88.8902 46.2432 89.3025 46.8801 89.9789 47.9334C90.2023 48.2817 90.4765 48.4466 90.8034 48.4281C90.9091 48.4219 91.0025 48.4982 91.0187 48.6054L91.0289 48.6692C91.037 48.7249 91.0004 48.7785 90.9456 48.7867C90.9415 48.7867 90.9375 48.7867 90.9314 48.7867L89.8611 48.8012C89.7067 48.8032 89.5605 48.727 89.4731 48.5971C89.1258 48.0839 88.6019 47.2821 87.9012 46.1958C87.6249 45.765 87.233 45.5548 86.7232 45.5609C86.6683 45.5609 86.6237 45.6063 86.6237 45.664L86.6582 48.0158C86.6602 48.2137 86.8085 48.3786 87.0035 48.3992L87.4686 48.4446C87.5457 48.4528 87.6026 48.5167 87.6046 48.595V48.6713C87.6046 48.7146 87.5721 48.7496 87.5275 48.7517L85.005 48.7888C84.9318 48.7888 84.8709 48.7311 84.8689 48.6569C84.8689 48.6548 84.8689 48.6528 84.8689 48.6507V48.5971C84.8729 48.5312 84.9217 48.4734 84.9867 48.4631L85.4883 48.3827C85.7077 48.3477 85.8681 48.1519 85.8641 47.9272L85.795 43.104C85.793 42.904 85.6407 42.7371 85.4437 42.7165L84.9928 42.6711C84.9197 42.6629 84.8628 42.6031 84.8628 42.5289V42.4733C84.8628 42.3887 84.9278 42.3187 85.0111 42.3187C85.0212 42.3187 85.0293 42.3187 85.0395 42.3207C85.3218 42.3723 86.2378 42.3743 87.7874 42.3269C88.4597 42.3063 89.2741 42.6979 89.5341 43.4049C89.8936 44.3799 89.1076 45.0147 88.2017 45.3425C88.1591 45.3589 88.1388 45.4064 88.153 45.4476C88.1591 45.462 88.1672 45.4744 88.1794 45.4847V45.4867ZM86.646 43.005V44.922C86.646 45.0601 86.7557 45.1714 86.8918 45.1714H87.2959C88.0677 45.1714 88.6932 44.6499 88.6932 44.0068V43.9202C88.6932 43.2771 88.0677 42.7556 87.2959 42.7556H86.8918C86.7557 42.7556 86.646 42.8669 86.646 43.005Z" fill="black"/>
<path d="M15.5515 45.3425C15.5089 45.3589 15.4886 45.4064 15.5028 45.4476C15.5089 45.462 15.517 45.4744 15.5292 45.4847L15.8013 45.7032C15.913 45.7939 16.0105 45.901 16.0877 46.0227C16.238 46.2411 16.6503 46.876 17.3226 47.9293C17.5439 48.2776 17.8181 48.4425 18.1431 48.424C18.2487 48.4178 18.3421 48.494 18.3584 48.6012L18.3685 48.6651C18.3766 48.7208 18.3401 48.7744 18.2873 48.7826C18.2812 48.7826 18.2771 48.7826 18.271 48.7826L17.2027 48.795C17.0484 48.797 16.9042 48.7208 16.8168 48.5909C16.4716 48.0777 15.9496 47.2779 15.2509 46.1917C14.9768 45.7609 14.5848 45.5506 14.075 45.5568C14.0202 45.5568 13.9755 45.6022 13.9755 45.6599L14.008 48.0076C14.01 48.2055 14.1583 48.3683 14.3512 48.3889L14.8163 48.4363C14.8915 48.4466 14.9504 48.5105 14.9504 48.5868V48.661C14.9504 48.7043 14.9179 48.7393 14.8732 48.7414L12.3568 48.7764C12.2837 48.7764 12.2227 48.7187 12.2207 48.6445C12.2207 48.6425 12.2207 48.6404 12.2207 48.6383V48.5847C12.2248 48.5188 12.2735 48.4611 12.3385 48.4508L12.8402 48.3704C13.0595 48.3353 13.2179 48.1416 13.2159 47.9169L13.1529 43.104C13.1509 42.904 12.9986 42.7371 12.8016 42.7165L12.3527 42.6711C12.2796 42.6629 12.2227 42.6031 12.2227 42.5289V42.4733C12.2227 42.3887 12.2877 42.3187 12.371 42.3187C12.3812 42.3187 12.3893 42.3187 12.3994 42.3207C12.6817 42.3723 13.5957 42.3743 15.1413 42.331C15.8135 42.3104 16.6259 42.7021 16.8839 43.409C17.2413 44.3819 16.4553 45.0147 15.5515 45.3404V45.3425ZM13.9978 43.0586L13.9897 44.8601C13.9897 45.0312 14.1258 45.1714 14.2943 45.1734H14.6376C15.4114 45.1796 16.041 44.6602 16.0451 44.0171V43.9264C16.0491 43.2812 15.4256 42.7556 14.6498 42.7515H14.3065C14.138 42.7474 13.9999 42.8876 13.9978 43.0586Z" fill="black"/>
<path d="M55.5941 47.8777C55.6388 47.8365 55.7079 47.8386 55.7485 47.8819C55.7851 47.921 55.7891 47.9829 55.7566 48.0261C54.8792 49.2732 52.9924 49.1825 52.6005 47.5541C52.2958 46.2886 53.1549 44.3881 54.7086 44.6911C55.4134 44.8272 55.781 45.3507 55.8074 46.2638C55.8094 46.3339 55.7566 46.3916 55.6876 46.3937C55.6876 46.3937 55.6876 46.3937 55.6855 46.3937L53.3215 46.4287C53.2544 46.4287 53.1996 46.4844 53.2016 46.5524C53.2016 46.5524 53.2016 46.5544 53.2016 46.5565C53.2199 47.1316 53.3012 47.5108 53.4433 47.6943C54.0912 48.5332 54.8081 48.595 55.5941 47.8777ZM53.4697 46.0742L54.8285 46.0556C54.9747 46.0556 55.0905 45.932 55.0884 45.7836C55.0884 45.7774 55.0884 45.7712 55.0884 45.7629C55.0417 45.2085 54.7371 44.9611 54.1704 45.0209C53.9064 45.0477 53.6708 45.1961 53.5266 45.4228L53.3052 45.7712C53.2463 45.8619 53.2727 45.9835 53.3601 46.0433C53.3925 46.0639 53.4311 46.0762 53.4697 46.0742Z" fill="black"/>
<path d="M85.706 66.5606C85.6735 66.5874 85.6268 66.5833 85.6004 66.5523C85.5964 66.5462 85.5923 66.54 85.5903 66.5338L84.4143 63.7264C84.3047 63.4647 84.3432 63.1637 84.5179 62.9411C85.2227 62.0403 85.6106 61.0675 85.6837 60.0245C85.8441 57.7159 83.8781 56.3123 81.7862 56.2339C78.1609 56.0979 74.8504 57.9736 73.845 61.6219C73.4206 63.1678 73.4876 64.9302 73.4673 66.8265C73.4632 67.2964 73.2053 67.4551 72.7686 67.5417C72.3848 67.618 71.5602 67.7788 70.2908 68.0261C70.0471 68.0735 69.8115 67.9107 69.7648 67.6633C69.7628 67.6468 69.7607 67.6324 69.7587 67.6159C69.5272 64.7962 69.649 61.7683 70.7722 59.0949C73.1525 53.4327 80.5493 52.3589 85.8969 52.835C87.471 52.9752 88.9536 53.1462 90.3489 53.3462C90.9683 53.4348 91.1105 53.9666 91.145 54.5747C91.4152 59.2907 89.1871 63.5698 85.706 66.5606ZM85.8543 65.9278C89.1262 62.9349 91.1044 58.8517 90.7591 54.3149C90.7327 53.946 90.5174 53.7337 90.1173 53.678C87.8447 53.3565 85.838 53.171 84.0975 53.1236C80.2142 53.0164 75.7034 53.7935 72.8275 56.6956C70.0633 59.4865 69.8643 63.8233 70.1182 67.519C70.1243 67.6036 70.1954 67.6654 70.2786 67.6592C70.2847 67.6592 70.2928 67.6592 70.2989 67.6571L72.8783 67.1295C73.0083 67.1027 73.1017 66.9852 73.1017 66.8492C73.0915 65.2208 73.0611 63.139 73.4612 61.6302C74.4848 57.7675 77.8725 55.7784 81.6847 55.8526C83.606 55.8897 85.6512 57.0357 85.9904 59.0537C86.2585 60.6614 85.6938 61.9105 84.7738 63.242C84.7088 63.3369 84.6966 63.4585 84.7413 63.5656L85.7182 65.8969C85.7365 65.9402 85.7852 65.9628 85.8299 65.9443C85.838 65.9402 85.8482 65.936 85.8543 65.9278Z" fill="black"/>
<path d="M15.714 54.9497C15.6917 55.0198 15.6328 55.0796 15.5373 55.127C14.0324 55.9041 13.0554 56.4771 12.6066 56.8461C12.4502 56.9739 12.2451 57.0192 12.0501 56.9677C10.866 56.6502 9.98052 56.3699 9.03611 56.3431C7.8947 56.3081 6.75937 57.0625 6.08305 58.0869C4.54356 60.412 5.82512 62.4629 7.82767 63.9243C10.3014 65.7299 12.962 66.9913 16.24 67.6901C16.567 67.7602 16.7133 68.0054 16.6767 68.4259C16.5873 69.4297 16.5163 70.2048 16.4614 70.7469C16.4167 71.1776 16.1385 71.2354 15.7648 71.1344C9.84242 69.5307 3.59712 67.0223 1.5377 60.5439C0.841066 58.3487 0.570944 56.1391 0.731392 53.915C0.757795 53.5461 0.987297 53.3132 1.41584 53.2183C2.43336 52.9916 3.61946 52.8597 4.81165 52.8659C7.6002 52.8803 10.2669 53.1441 12.8117 53.6574C13.7785 53.8532 14.6843 54.1459 15.5272 54.5396C15.6856 54.6138 15.7668 54.791 15.714 54.9497ZM15.1778 54.9085C15.2124 54.89 15.2286 54.8487 15.2124 54.8137C15.2042 54.7972 15.192 54.7849 15.1758 54.7787C14.4264 54.453 13.618 54.2015 12.7508 54.0263C9.82617 53.4348 6.81015 53.1792 3.7007 53.2554C3.65196 53.2554 3.06703 53.3379 1.94389 53.5007C1.5905 53.5522 1.11931 53.5543 1.09088 54.0119C0.82888 58.0787 1.95811 62.5783 4.94164 65.4124C6.34505 66.746 7.90282 67.7993 9.61494 68.5723C11.5647 69.4524 13.6729 70.1924 15.9374 70.7881C16.0065 70.8066 16.0755 70.7654 16.0938 70.6933C16.0938 70.6871 16.0958 70.6809 16.0979 70.6747L16.3213 68.3723C16.3375 68.2013 16.2238 68.0467 16.0572 68.0158C12.9661 67.4201 10.3238 66.1174 7.7769 64.3468C7.01528 63.8171 6.47706 63.3512 6.1582 62.9514C4.68979 61.1045 4.66339 59.2783 6.07493 57.4747C6.71875 56.6502 7.57989 56.1576 8.65632 55.9989C9.66572 55.8505 11.0326 56.3019 12.1374 56.609C12.2166 56.6317 12.3019 56.6152 12.369 56.5637C13.1753 55.9597 14.1116 55.4094 15.1778 54.9085Z" fill="black"/>
<path d="M59.5323 54.991C59.5628 55.0157 59.5689 55.0611 59.5466 55.092C59.5405 55.1002 59.5323 55.1085 59.5222 55.1126L56.8575 56.4833C56.7174 56.5554 56.559 56.5843 56.4026 56.5678C54.5544 56.3637 51.3982 55.6609 51.2297 58.6208C51.1809 59.4741 51.3312 60.2532 51.6826 60.9602C53.8679 65.363 58.3442 67.4901 62.8551 68.5249C63.113 68.5847 63.3059 68.8031 63.3364 69.0711L63.6106 71.4971C63.6329 71.6929 63.4948 71.8702 63.3019 71.8908C63.2694 71.8949 63.2348 71.8929 63.2023 71.8888C58.4701 71.0519 53.2952 68.9289 50.072 65.1692C47.58 62.265 46.4771 58.7589 46.7655 54.655C46.8529 53.4038 48.2177 53.3235 49.156 53.2431C52.6534 52.9463 55.9761 53.4451 59.1241 54.7416C59.246 54.791 59.3821 54.8735 59.5323 54.991ZM58.7484 54.9704C55.247 53.6038 51.5891 53.2204 47.777 53.8202C47.3992 53.88 47.192 54.1191 47.1535 54.5396C46.2375 64.5715 54.6092 69.945 63.0988 71.4889C63.1516 71.4992 63.2023 71.4621 63.2125 71.4085C63.2125 71.3982 63.2125 71.3899 63.2125 71.3796L62.9668 69.2195C62.9464 69.0361 62.8124 68.8856 62.6357 68.8423C58.4051 67.8426 54.6844 66.07 52.1213 62.4484C50.0497 59.5194 50.2324 55.3063 55.0378 56.0216C55.2246 56.0484 55.6917 56.1061 56.4392 56.1906C56.5407 56.2009 56.6423 56.1824 56.7316 56.137L58.7545 55.094C58.787 55.0775 58.8012 55.0363 58.7829 55.0033C58.7748 54.9889 58.7626 54.9765 58.7484 54.9704Z" fill="black"/>
<path d="M43.2234 64.2808L41.7387 62.1392C41.6961 62.0795 41.6758 62.0073 41.6778 61.9331C41.688 61.6755 41.757 61.2117 41.885 60.5397C42.5532 57.0233 38.8832 56.8296 36.6572 57.6438C33.2675 58.8805 30.7247 61.1107 29.0288 64.3344C28.8196 64.7302 28.4175 65.7484 27.8204 67.3912C27.8001 67.4489 27.7676 67.5005 27.7269 67.5458C27.5177 67.7705 27.2578 67.888 26.9491 67.8941C26.0453 67.9168 25.2633 67.991 24.6012 68.1168C24.5505 68.1271 24.4977 68.125 24.4489 68.1106C24.1199 68.0158 23.9838 67.8591 24.0387 67.6406C25.0785 63.6006 27.0405 60.0595 30.156 57.4376C33.9885 54.2139 39.0233 52.7917 43.9464 53.3008C44.6674 53.375 45.0919 53.7914 45.2158 54.5519C45.7662 57.9055 45.2422 61.1396 43.6438 64.252C43.5809 64.3757 43.4306 64.4231 43.3107 64.3592C43.2762 64.3406 43.2457 64.3138 43.2234 64.2808ZM43.4813 63.7387C44.9477 60.8036 45.3884 57.6973 44.8055 54.42C44.7487 54.1047 44.5253 53.847 44.2247 53.7522C43.7291 53.5955 43.2193 53.61 42.671 53.5997C37.4066 53.5069 32.6704 55.195 28.9922 59.0474C26.748 61.3993 25.2715 64.3983 24.4286 67.5994C24.4144 67.6468 24.4428 67.6983 24.4895 67.7128C24.5017 67.7169 24.5119 67.7169 24.5241 67.7148L27.1156 67.4695C27.3086 67.451 27.4731 67.317 27.532 67.1315C28.7302 63.4234 30.613 60.5459 33.9702 58.5177C35.6783 57.485 37.3213 56.8048 39.2792 56.8997C40.6014 56.9656 41.9662 57.5757 42.2607 58.9712C42.4476 59.8616 42.2221 60.7706 42.0454 61.7785C42.0312 61.8569 42.0495 61.9393 42.0942 62.0053L43.3046 63.7511C43.3371 63.7985 43.4021 63.8109 43.4488 63.7758C43.4631 63.7655 43.4732 63.7532 43.4813 63.7387Z" fill="black"/>
<path d="M32.3234 55.5393C32.2767 55.6279 32.1528 55.7392 31.9558 55.8753C31.5699 56.1412 30.8042 56.6853 29.6587 57.5077C29.4353 57.6685 29.1124 57.7242 28.692 57.6768C23.3566 57.0625 17.0849 57.4912 13.3621 62.028C12.5781 62.9823 11.8835 64.0686 11.2803 65.2826C11.2052 65.4351 11.0203 65.4949 10.87 65.4187C10.866 65.4166 10.8619 65.4145 10.8558 65.4104L8.10992 63.8006C7.88245 63.6687 7.79715 63.3781 7.91698 63.141C9.92563 59.1753 13.224 56.1432 17.2839 54.8611C22.0649 53.3503 27.3454 53.8223 32.1609 55.1476C32.3031 55.1868 32.3864 55.3373 32.3457 55.4816C32.3396 55.5022 32.3315 55.5207 32.3234 55.5393ZM31.8116 55.4259C27.122 54.1933 21.9674 53.7357 17.3205 55.2404C13.2524 56.5555 10.2242 59.4783 8.29474 63.2791C8.25209 63.3636 8.28256 63.4688 8.36379 63.5162L10.8335 64.9652C10.9228 65.0167 11.0366 64.9858 11.0894 64.8951C11.0914 64.891 11.0934 64.8869 11.0955 64.8827C13.1854 60.5047 16.9752 57.8952 21.7033 57.3119C23.9171 57.0398 26.2548 57.044 28.7184 57.3263C29.0251 57.3614 29.3358 57.281 29.5897 57.0996L31.8258 55.5042C31.8461 55.4919 31.8502 55.4651 31.838 55.4445C31.8319 55.4342 31.8217 55.428 31.8116 55.4259Z" fill="black"/>
<path d="M53.809 63.543C53.7522 63.5966 53.6628 63.5924 53.61 63.5347C53.6059 63.5306 53.6019 63.5244 53.5978 63.5203L51.9933 61.2035C51.8349 60.9747 51.8674 60.6614 52.0685 60.4718C54.8631 57.8211 58.2975 55.5331 62 54.5808C65.605 53.6553 69.0922 53.8697 72.4616 55.226C72.4982 55.2404 72.5307 55.2549 72.5591 55.2693C72.7297 55.3538 72.7988 55.564 72.7135 55.7372C72.7013 55.7598 72.6891 55.7825 72.6729 55.8011L71.0806 57.7757C70.9201 57.9736 70.6601 58.054 70.4185 57.9839C66.3443 56.7946 62.5118 57.246 58.921 59.336C57.1094 60.3914 55.4237 62.0259 53.809 63.543ZM53.8639 62.9741C55.6328 61.3643 56.7011 60.4202 57.0728 60.1399C61.1368 57.0708 65.6172 56.2277 70.5139 57.6129C70.6216 57.6438 70.7373 57.6067 70.8084 57.5181L72.2667 55.7104C72.3073 55.6609 72.3012 55.5867 72.2524 55.5455C72.2423 55.5372 72.2301 55.5311 72.2179 55.5249C68.9216 54.2469 65.5624 54.049 62.1361 54.9333C58.4722 55.8773 55.1474 58.087 52.3934 60.6532C52.2756 60.7624 52.2573 60.9438 52.3487 61.0757L53.6445 62.9493C53.6912 63.0174 53.7846 63.0338 53.8496 62.9864C53.8537 62.9823 53.8598 62.9782 53.8639 62.9741Z" fill="black"/>
<path d="M75.3478 59.6081C75.8311 58.7754 76.4871 58.1034 77.3158 57.5902C77.5372 57.4521 77.8215 57.4706 78.0246 57.6335C82.115 60.9417 86.4248 65.2435 85.1026 71.1488C84.0648 75.7886 79.6149 77.79 75.3031 78.2167C74.8522 78.2621 74.7202 78.0786 74.7567 77.6375C74.8197 76.914 74.8542 76.0896 74.8624 75.1599C74.8624 74.9456 75.0106 74.758 75.2178 74.7085C77.0782 74.2613 79.0503 73.7624 80.4293 72.3608C82.0236 70.7407 81.9729 68.459 81.0833 66.4122C79.9337 63.7656 77.6773 61.929 75.4595 60.1914C75.2828 60.0533 75.2361 59.8019 75.3478 59.6081ZM75.2848 77.8354C76.8324 77.7097 78.4146 77.2933 80.0292 76.5863C82.1638 75.6526 83.6159 74.1994 84.3897 72.231C85.8256 68.5682 84.475 64.722 82.0216 61.9002C80.7746 60.4656 79.3671 59.1464 77.7971 57.9427C77.6976 57.8664 77.5615 57.8602 77.4559 57.9282C76.7837 58.3632 76.2048 58.9465 75.7235 59.6823C75.6626 59.7751 75.6829 59.9008 75.7702 59.9668C76.7938 60.7645 77.7829 61.6116 78.7375 62.5041C80.5837 64.2335 82.3019 66.9914 82.0521 69.6462C81.7169 73.2183 78.3353 74.3829 75.3701 75.0445C75.2807 75.0631 75.2157 75.1435 75.2137 75.2362L75.1589 77.7158C75.1589 77.7797 75.2076 77.8354 75.2726 77.8354C75.2767 77.8354 75.2807 77.8354 75.2848 77.8354Z" fill="black"/>
<path d="M42.7992 75.9638L40.362 74.5354C40.1386 74.4055 40.0431 74.1272 40.1366 73.884C42.5047 67.7313 38.5707 63.1657 33.9461 59.8348C33.5805 59.573 33.7389 59.2597 34.0761 59.0763C35.0388 58.5548 35.7841 58.1694 36.3142 57.9199C36.8037 57.6912 37.0251 57.9364 37.3724 58.2126C39.3688 59.8039 40.9855 61.5085 42.2183 63.3244C44.9256 67.3108 45.2303 71.4889 43.1323 75.8607C43.0754 75.9803 42.9332 76.0297 42.8154 75.972C42.8093 75.97 42.8053 75.9658 42.7992 75.9638ZM34.2589 59.5875C39.0012 62.9307 42.8378 67.7499 40.5042 73.9335C40.4635 74.0427 40.5042 74.1664 40.6057 74.2262L42.7586 75.4794C42.7972 75.5021 42.8459 75.4897 42.8682 75.4505C42.8682 75.4505 42.8682 75.4485 42.8682 75.4464C46.2966 68.5022 42.2122 62.4381 36.8931 58.2992C36.7834 58.2147 36.6351 58.2003 36.5112 58.2642L34.269 59.4246C34.2223 59.4473 34.204 59.505 34.2264 59.5524C34.2325 59.5669 34.2447 59.5792 34.2568 59.5875H34.2589Z" fill="black"/>
<path d="M59.2137 59.5504C59.2442 59.3793 59.3863 59.2391 59.6443 59.1299C60.9827 58.5693 61.7971 58.2498 62.0896 58.1735C62.38 58.0972 62.6339 58.2188 62.8553 58.5342C66.2064 63.343 68.0282 68.6053 67.7804 74.4014C67.7682 74.6652 67.5976 74.7889 67.2707 74.7745C65.4529 74.69 64.5268 74.6467 64.4902 74.6426C63.9947 74.5972 63.95 74.2674 63.9581 73.8057C64.0272 69.0464 62.709 64.7281 60.0017 60.8489C59.6402 60.3316 59.3904 59.9647 59.2543 59.7503C59.2157 59.6906 59.2015 59.6184 59.2137 59.5504ZM59.6565 59.6741C62.4308 63.512 64.1064 67.6138 64.3013 72.4412C64.3237 72.9833 64.3379 73.546 64.346 74.1293C64.346 74.2262 64.4232 74.3045 64.5166 74.3066L67.3011 74.3684C67.3824 74.3705 67.4494 74.3066 67.4514 74.2241C67.4514 74.2241 67.4514 74.2241 67.4514 74.2221C67.5306 68.4404 65.8611 63.2482 62.443 58.6435C62.3597 58.5322 62.2155 58.4909 62.0876 58.5425L59.7052 59.5009C59.6483 59.5236 59.6199 59.5896 59.6423 59.6473C59.6463 59.6576 59.6504 59.6658 59.6565 59.6741Z" fill="black"/>
<path d="M15.6405 60.4862C15.5877 60.2986 15.6689 60.0986 15.8375 60.0059C16.6316 59.5669 17.5131 59.1113 18.4818 58.6393C18.7154 58.5259 18.9327 58.528 19.1338 58.6393C19.1988 58.6764 19.2516 58.7341 19.2861 58.8021C20.2183 60.6923 20.525 62.3392 20.7444 64.4004C20.8155 65.0723 20.8215 65.8288 20.7606 66.6677C20.5738 69.2298 20.4032 71.4064 20.2508 73.1956C20.2285 73.4573 20.0092 73.6573 19.7512 73.6511L17.0683 73.5893C16.8144 73.5831 16.6154 73.3708 16.6215 73.1131C16.6215 73.0987 16.6215 73.0843 16.6235 73.0719C16.8774 70.8231 16.9972 68.6588 16.983 66.5791C16.9728 64.9239 16.6986 63.3141 16.1645 61.7517C16.0223 61.3354 15.7583 60.8984 15.6405 60.4841V60.4862ZM18.9266 58.9423C18.8941 58.8846 18.821 58.8619 18.7642 58.8928L16.1564 60.2697C16.0568 60.3233 16.0162 60.449 16.065 60.5521C16.9464 62.4113 17.3222 64.3138 17.3546 66.4843C17.3851 68.5166 17.2693 70.6685 17.0114 72.9379C16.9952 73.0822 17.0987 73.2141 17.2429 73.2285C17.2511 73.2285 17.2572 73.2285 17.2653 73.2285L19.67 73.2883C19.7776 73.2924 19.871 73.21 19.8792 73.0987C19.9746 71.8661 20.1066 70.2522 20.2711 68.259C20.4093 66.5791 20.4397 65.2867 20.3646 64.386C20.2062 62.4732 19.8162 60.5294 18.9266 58.9402V58.9423Z" fill="black"/>
<path d="M25.1557 71.5714C25.1557 71.5714 23.8437 71.6229 21.2399 71.7404C21.0003 71.7507 20.7992 71.5631 20.7891 71.3199C20.7891 71.3096 20.7891 71.2993 20.7891 71.291L20.8419 68.8794C20.85 68.5785 21.0856 68.3332 21.3821 68.3188C23.1125 68.2425 24.3352 68.1786 25.048 68.1271C26.5652 68.022 27.7635 67.8818 28.6429 67.7107C32.0468 67.045 34.6485 65.901 37.8027 64.2788C38.1357 64.1077 38.4018 64.1799 38.5988 64.4932C38.9705 65.0786 39.332 65.7382 39.6854 66.4719C39.8662 66.8491 39.7707 67.1418 39.399 67.35C35.7575 69.3721 31.6406 70.7634 27.467 71.3426C27.4426 71.3467 27.4263 71.3694 27.4304 71.3941C27.4324 71.4085 27.4426 71.423 27.4568 71.4292L27.7107 71.524C27.7675 71.5446 27.8102 71.5982 27.8204 71.66C28.3179 74.6714 29.175 77.6375 30.3916 80.5541C30.5967 81.0468 30.8262 81.525 31.0801 81.9908C31.1877 82.1887 31.1166 82.436 30.9196 82.5452C30.8993 82.5556 30.879 82.5659 30.8587 82.5741L28.4317 83.4254C28.1453 83.5243 27.8285 83.4007 27.6843 83.1306C25.8625 79.7399 24.7109 76.0875 24.2275 72.2804C24.193 72.0125 24.3778 71.7651 24.6439 71.7301C24.6479 71.7301 24.652 71.7301 24.6561 71.7301L25.1354 71.6765C25.1658 71.6724 25.1862 71.6435 25.1821 71.6147C25.1801 71.5982 25.1699 71.5837 25.1557 71.5734V71.5714ZM21.2095 68.865L21.1587 71.2148C21.1587 71.2684 21.1993 71.3117 21.2501 71.3137C27.5644 71.4972 33.5051 70.1017 39.072 67.1274C39.3361 66.9852 39.4153 66.7894 39.3117 66.54C39.0395 65.8927 38.6922 65.2703 38.2718 64.6725C38.2068 64.5798 38.085 64.5509 37.9855 64.6045C36.4338 65.4413 34.8618 66.1669 33.2695 66.7791C29.5508 68.2095 25.5172 68.6074 21.4085 68.6651C21.2988 68.6651 21.2115 68.7537 21.2095 68.865ZM26.882 71.4745C26.882 71.4601 26.6972 71.4477 26.4677 71.4477C26.2382 71.4477 26.0534 71.4601 26.0534 71.4745C26.0534 71.4889 26.2382 71.5013 26.4677 71.5013C26.6972 71.5013 26.882 71.4889 26.882 71.4745ZM25.7305 71.5446C25.7284 71.526 25.635 71.5281 25.5233 71.5446C25.4116 71.5631 25.3243 71.594 25.3263 71.6105C25.3283 71.6291 25.4218 71.627 25.5335 71.6105C25.6452 71.592 25.7325 71.5611 25.7305 71.5446ZM30.7145 82.1371C29.1527 78.8557 28.1067 75.5 27.4771 71.8909C27.4649 71.8208 27.402 71.7734 27.3329 71.7816L24.7475 72.0846C24.6601 72.0949 24.5992 72.1753 24.6094 72.2639C24.6094 72.2639 24.6094 72.2639 24.6094 72.266C24.8307 73.9521 25.1618 75.5763 25.5984 77.1366C26.1082 78.9505 27.1197 81.1807 27.928 82.8503C28.0113 83.0235 28.2103 83.108 28.389 83.0441L30.6719 82.2402C30.7104 82.2278 30.7308 82.1845 30.7165 82.1454C30.7165 82.1433 30.7165 82.1413 30.7145 82.1371Z" fill="black"/>
<path d="M49.3245 64.5797C49.8587 65.2208 50.535 65.9422 51.3535 66.7481C51.6134 67.0017 51.7089 67.3809 51.6622 67.7746C51.4205 69.7348 51.3718 71.4394 51.516 72.8864C51.7983 75.7536 53.1956 78.3878 55.4764 80.1893C56.9753 81.3724 58.6082 82.0876 60.3569 82.8132C60.5437 82.8915 60.6331 83.1079 60.5559 83.2976C60.5417 83.3306 60.5234 83.3615 60.5011 83.3903L58.6935 85.6309C58.5249 85.8411 58.2426 85.9174 57.9928 85.8246C54.7351 84.6064 51.6175 82.638 49.6556 79.8121C46.5278 75.3104 47.1839 69.5679 48.8533 64.6684C48.9041 64.522 49.0605 64.4458 49.2047 64.4973C49.2514 64.5138 49.292 64.5426 49.3245 64.5797ZM49.1092 65.0971C47.6185 69.4236 47.1229 74.4055 49.2798 78.4826C51.059 81.8444 54.5442 84.1406 58.1167 85.4639C58.2284 85.5072 58.3543 85.4722 58.4315 85.3773L60.1111 83.2873C60.1558 83.2316 60.1477 83.1471 60.0908 83.1018C60.0806 83.0935 60.0705 83.0873 60.0583 83.0812C58.663 82.5205 57.286 81.9207 56.1486 81.1457C52.5843 78.7134 50.8945 75.2197 51.0813 70.6644C51.1301 69.5163 51.191 68.6547 51.2986 67.5994C51.3169 67.4283 51.2621 67.2593 51.1463 67.1315L49.2636 65.0641C49.227 65.027 49.1681 65.025 49.1316 65.0641C49.1214 65.0744 49.1133 65.0847 49.1092 65.0992V65.0971Z" fill="black"/>
<path d="M68.0362 71.761C67.9916 71.7589 67.955 71.7239 67.9469 71.6785L67.5386 69.0587C67.5001 68.8052 67.6707 68.5682 67.9205 68.529C72.0048 67.8921 76.1257 67.2222 79.82 65.7052C80.0394 65.6145 80.2892 65.7196 80.3806 65.9422C80.6264 66.5338 80.9087 67.2758 81.2296 68.1683C81.3636 68.5393 81.0549 68.7764 80.7218 68.9145C76.8589 70.516 72.6933 71.2539 68.6029 71.7301C68.3774 71.7569 68.1886 71.7672 68.0362 71.761ZM68.3896 71.3797C72.5674 70.8973 76.7837 70.1615 80.7502 68.5002C80.8619 68.4548 80.9168 68.325 80.8721 68.2095L80.0678 66.1545C80.0394 66.0803 79.9561 66.0432 79.885 66.0741C78.5588 66.6286 77.0945 67.0985 75.492 67.4799C73.1137 68.0467 70.6481 68.5063 68.0951 68.8588C67.9855 68.8753 67.9083 68.9784 67.9245 69.0897V69.0938L68.2657 71.2828C68.2759 71.3446 68.3307 71.3879 68.3917 71.3797H68.3896Z" fill="black"/>
<path d="M6.31448 67.6179C6.32463 67.5849 6.36119 67.5664 6.39369 67.5767C6.39572 67.5767 6.39978 67.5767 6.40181 67.5808C7.49245 68.1394 8.52623 68.63 9.50314 69.0546C9.84434 69.203 10.0048 69.4132 10.1388 69.8069C11.9058 75.0857 19.7332 74.0881 23.716 73.6964C23.9841 73.6717 24.2298 73.8551 24.2847 74.1252L24.7802 76.5553C24.827 76.7821 24.6828 77.0026 24.4594 77.05C24.4512 77.05 24.4431 77.0521 24.437 77.0541C20.9417 77.5715 17.5804 77.5694 14.3572 77.0521C13.4087 76.8995 12.3628 76.5862 11.2153 76.1101C8.10988 74.8198 6.23527 72.3237 6.22309 68.7825C6.22309 68.3744 6.19059 68.0116 6.31448 67.6179ZM6.59069 68.1992C6.12966 77.7488 18.1531 77.4911 24.2745 76.7264C24.3537 76.7161 24.4126 76.6419 24.4025 76.5615C24.4025 76.5574 24.4025 76.5553 24.4025 76.5512L23.9414 74.2798C23.915 74.1499 23.7932 74.0592 23.6632 74.0736C19.3859 74.5292 11.4387 75.3846 9.73467 69.7616C9.68592 69.5967 9.56813 69.4627 9.4158 69.3947L6.65569 68.16C6.63335 68.1497 6.60694 68.16 6.59679 68.1827C6.59476 68.1889 6.59273 68.193 6.59273 68.1992H6.59069Z" fill="black"/>
<path d="M63.5256 87.3767C63.3103 87.3685 63.16 87.1191 63.2697 86.9294C63.4992 86.5378 64.0476 85.6721 64.9189 84.3344C64.9859 84.2313 65.0773 84.1489 65.1849 84.0932C65.3494 84.0066 65.5891 83.9221 65.8998 83.8417C71.3734 82.436 70.8494 76.4873 70.2624 72.1877C70.2177 71.8599 70.3883 71.6641 70.7762 71.5981C71.2677 71.5136 72.1918 71.3632 73.5506 71.1488C73.7821 71.1117 74.0015 71.2684 74.0441 71.5013C74.5173 74.0551 74.5864 76.5512 74.2513 78.9938C73.642 83.4295 70.9834 86.6285 66.4482 87.2365C65.4835 87.3664 64.5106 87.4118 63.5256 87.3767ZM63.7856 86.9933C64.7828 87.016 65.6256 86.9768 66.3142 86.8779C74.1721 85.7504 74.7184 77.957 73.7273 71.7053C73.711 71.5982 73.6115 71.526 73.5059 71.5425L70.7966 71.9774C70.693 71.9939 70.6219 72.0908 70.6361 72.1959C71.3084 77.081 71.6455 82.8812 65.5525 84.3261C65.4063 84.3612 65.2804 84.4519 65.1991 84.5796L63.7307 86.8861C63.7104 86.9191 63.7206 86.9624 63.7531 86.983C63.7632 86.9892 63.7734 86.9933 63.7856 86.9933Z" fill="black"/>
<path d="M30.5625 87.0449L33.4729 86.0246C33.6983 85.9442 33.9481 85.9607 34.1614 86.072C36.0177 87.0222 38.0182 87.5622 39.9071 86.781C42.001 85.9153 42.6002 83.7366 41.8588 81.6754C40.0045 76.51 34.2 76.4338 29.7582 76.5781C29.484 76.5863 29.2362 76.409 29.155 76.1411C29.1022 75.97 28.9052 75.2568 28.5619 74.0015C28.434 73.5254 28.633 73.309 29.0981 73.2801C31.6998 73.1152 34.0822 73.1956 36.2452 73.5192C39.2145 73.9665 41.8792 75.1311 43.7274 77.6499C45.5085 80.0759 46.2762 82.8751 46.0305 86.0452C45.9147 87.5437 45.6994 89.1762 45.3887 90.9426C45.2872 91.5239 44.9663 91.831 44.428 91.864C39.1982 92.1835 34.5493 90.7303 30.4853 87.5045C30.3716 87.4159 30.3512 87.2489 30.4406 87.1335C30.4711 87.0923 30.5137 87.0614 30.5625 87.0449ZM30.9484 87.3808C34.9027 90.4706 39.4217 91.8331 44.5073 91.4682C44.7875 91.4497 44.9561 91.2704 45.015 90.9303C45.2993 89.2916 45.5085 87.7498 45.6446 86.3028C45.9452 83.1245 45.214 80.3192 43.4491 77.889C41.2435 74.8528 37.7644 73.9109 34.2386 73.6635C32.5711 73.546 30.8346 73.544 29.0291 73.6594C28.9519 73.6656 28.893 73.7315 28.8991 73.8099C28.8991 73.8202 28.9011 73.8284 28.9032 73.8387L29.484 75.9679C29.5246 76.1184 29.6648 76.2173 29.8191 76.205C30.532 76.1493 31.7933 76.1679 33.6029 76.2565C36.9337 76.4214 40.2848 77.5118 41.8365 80.6675C42.4052 81.8238 42.6225 82.9225 42.4885 83.9634C42.1066 86.9171 39.0744 87.9745 36.5214 87.3623C35.6582 87.1541 34.8255 86.8408 34.0273 86.4183C33.8892 86.3461 33.7288 86.3338 33.5826 86.3853L30.9605 87.3046C30.9382 87.3128 30.926 87.3355 30.9321 87.3582C30.9341 87.3664 30.9402 87.3747 30.9484 87.3808Z" fill="black"/>
<path d="M69.9411 77.9096C69.8964 78.1672 69.6669 78.3486 69.411 78.3321C67.1871 78.1899 65.0525 78.0642 63.0073 77.9529C62.5523 77.9281 61.4008 77.9797 59.5526 78.1054C58.269 78.194 56.7478 78.5259 54.9869 79.103C54.6883 79.2019 54.3918 78.9752 54.1907 78.6722C53.7744 78.0435 53.291 77.3366 52.7406 76.5512C52.6066 76.3595 52.6492 76.0957 52.8381 75.9597C52.8686 75.937 52.9011 75.9205 52.9356 75.9061C54.729 75.2279 56.5589 74.8219 58.4294 74.6879C59.1281 74.6364 60.365 74.6384 62.1421 74.69C64.1934 74.7518 66.6631 74.8837 69.5491 75.0837C69.9492 75.1125 70.1482 75.3063 70.1421 75.667C70.13 76.4605 70.0629 77.2067 69.9411 77.9096ZM53.0696 76.3802L54.601 78.5918C54.6904 78.7217 54.8549 78.7732 55.0011 78.7217C56.4898 78.194 57.9887 77.8683 59.4977 77.7447C61.2078 77.6025 62.4122 77.5509 63.1088 77.588C65.4181 77.7096 67.5019 77.8354 69.3602 77.9611C69.4841 77.9714 69.5938 77.8766 69.6039 77.7509L69.7989 75.7453C69.8131 75.6031 69.7116 75.4773 69.5714 75.4629C69.5694 75.4629 69.5653 75.4629 69.5633 75.4629C66.6001 75.2424 63.6328 75.096 60.6635 75.028C57.9156 74.9641 55.5109 75.3269 53.1143 76.2338C53.0656 76.2524 53.0392 76.308 53.0574 76.3575C53.0595 76.3657 53.0635 76.3719 53.0696 76.3802Z" fill="black"/>
<path d="M16.7499 77.8931C16.8067 77.7488 16.9469 77.656 17.0992 77.6622L20.2107 77.7859C20.4828 77.7962 20.7143 77.9858 20.7854 78.2538C21.6222 81.428 23.5232 83.58 26.9028 83.6871C31.0541 83.817 34.653 81.2364 37.4639 78.3507C37.665 78.1425 37.9717 78.0806 38.2377 78.1919C39.0522 78.5362 39.7955 79.0721 40.4718 79.7976C40.5835 79.9172 40.6038 80.1212 40.5287 80.4119C40.5145 80.4716 40.482 80.5252 40.4373 80.5665C37.996 82.7884 35.829 84.5796 32.9572 85.7896C29.8782 87.0881 26.1716 87.3355 22.9525 86.2348C20.3021 85.3299 18.4011 83.3676 17.4384 80.7107C17.0586 79.6637 16.827 78.7959 16.7458 78.1074C16.7336 78.0064 16.7356 77.9364 16.7499 77.8931ZM17.1175 78.1919C17.5907 80.7911 18.724 83.2337 20.8931 84.7796C23.7101 86.7851 28.1132 86.9541 31.2857 85.9895C34.7444 84.9383 37.4375 82.8049 40.1042 80.3686C40.222 80.2614 40.2301 80.0759 40.1245 79.9563C40.1205 79.9522 40.1184 79.9502 40.1144 79.946C39.5234 79.34 38.8694 78.8763 38.1484 78.5568C37.994 78.4867 37.8153 78.5217 37.6975 78.6434C34.913 81.4775 31.5639 83.8974 27.4897 84.0561C23.7019 84.2066 21.3399 81.9289 20.4442 78.3898C20.4077 78.2414 20.2777 78.1384 20.1274 78.1342L17.221 78.0683C17.1642 78.0683 17.1175 78.1136 17.1154 78.1713C17.1154 78.1775 17.1154 78.1858 17.1154 78.1919H17.1175Z" fill="black"/>
<path d="M48.1407 79.0495C48.226 78.9052 48.4088 78.8557 48.553 78.9423C48.5835 78.9608 48.6119 78.9856 48.6343 79.0144L50.6612 81.6054C50.8541 81.8506 50.8866 82.1866 50.7465 82.4669C50.1209 83.7037 49.865 85.1898 50.9212 86.2575C51.9427 87.2943 53.1817 87.8323 54.6358 87.8735C57.5848 87.958 59.4798 85.4784 61.0842 83.2708C62.0835 81.896 62.6745 80.2821 63.2229 78.697C63.3589 78.3074 63.623 78.1343 64.019 78.1734C64.5654 78.227 65.4184 78.2868 66.5801 78.3507C66.9802 78.3734 67.3762 78.5094 67.1813 78.9979C66.8827 79.742 66.377 80.9128 65.6601 82.5082C64.4455 85.2125 62.7821 87.3438 60.5074 88.9288C56.7948 91.5198 52.2169 92.0413 47.8219 91.998C47.4543 91.9938 47.1841 91.93 47.0115 91.8083C46.9343 91.7527 46.8754 91.6764 46.8389 91.5857C46.65 91.1116 46.5464 90.8251 46.5302 90.7241C45.9554 87.3891 46.5545 84.1798 47.4339 80.7994C47.6046 80.146 47.8401 79.5627 48.1407 79.0495ZM48.3662 79.4452C48.1773 79.7544 48.0189 80.1213 47.895 80.5438C47.1679 83.0255 46.5545 86.0308 46.6744 88.8217C46.7129 89.71 46.8551 90.5304 47.1029 91.2848C47.1659 91.4806 47.3446 91.6146 47.5477 91.6166C53.8133 91.7073 59.6016 90.6788 63.6169 85.3712C64.1957 84.6085 64.7847 83.5573 65.3879 82.2155C66.0155 80.8159 66.4989 79.6967 66.838 78.8619C66.8665 78.7918 66.834 78.7135 66.7649 78.6846C66.7507 78.6784 66.7345 78.6743 66.7182 78.6743L63.8667 78.6084C63.7408 78.6063 63.627 78.6846 63.5824 78.8042C62.8898 80.717 62.382 82.1124 61.3259 83.5676C60.5927 84.5817 59.8067 85.5175 58.9679 86.375C57.1725 88.2157 54.7232 88.7825 52.3429 87.7086C51.3639 87.2696 50.6571 86.6759 50.2225 85.9277C49.5462 84.7611 49.8427 83.512 50.4134 82.2835C50.4825 82.133 50.4622 81.9558 50.3606 81.8259L48.4921 79.437C48.4657 79.404 48.417 79.3978 48.3845 79.4246C48.3784 79.4308 48.3723 79.437 48.3662 79.4452Z" fill="black"/>
</g>
<defs>
<clipPath id="clip0_414_32553">
<rect width="90.6269" height="92" fill="white" transform="translate(0.686523)"/>
</clipPath>
</defs>
</svg>
