<svg width="104" height="43" viewBox="0 0 104 43" fill="none" xmlns="http://www.w3.org/2000/svg">
<path d="M33.3284 39.2384C35.2133 39.5074 36.9625 38.1659 37.2354 36.2428C37.5083 34.3194 36.2019 32.5421 34.3174 32.2735C32.4326 32.0044 30.6833 33.346 30.4104 35.269C30.1375 37.1925 31.444 38.9697 33.3284 39.2384Z" stroke="#2871B3" stroke-width="2"/>
<path d="M9.18982 38.6449C9.61304 38.6412 10.0363 38.6392 10.4595 38.6392C16.271 38.6392 19.4496 38.6404 19.9949 38.6425C20.0239 38.6425 20.0546 38.6425 20.0869 38.6433C20.6314 38.649 21.6253 38.6511 23.0678 38.6498C23.1327 38.6498 23.2332 38.6535 23.3684 38.6605C23.4844 38.6662 23.5833 38.6814 23.6646 38.7059C24.777 39.0401 25.3763 40.2105 24.8832 41.2969C24.5862 41.9513 24.0453 42.2785 23.3378 42.346C23.2516 42.3542 23.1417 42.3583 23.0089 42.3583C21.6535 42.3587 20.7164 42.3608 20.198 42.3637C20.1596 42.3637 20.1052 42.3645 20.0346 42.3649C19.5435 42.3686 18.383 42.371 16.5524 42.3727C16.5389 42.3727 16.5001 42.3727 16.4352 42.3731C15.6075 42.3772 14.4208 42.3796 12.8746 42.3804C12.8382 42.3804 12.8007 42.3809 12.761 42.3817C12.3325 42.3895 11.1552 42.3911 9.22904 42.387C9.1698 42.387 9.10975 42.3976 9.05379 42.3976C8.22614 42.3976 7.62073 42.3976 7.23714 42.3968C6.70321 42.3952 6.14682 42.3301 5.56878 42.2011C3.47352 41.733 1.70222 40.3563 0.78184 38.4156C0.341056 37.486 0.093498 36.5081 0.0395745 35.4819C0.0318128 35.3324 0.0277277 35.1821 0.0273192 35.0314C0.0162894 30.5809 0.0134298 27.793 0.0183319 26.6673C0.0183319 26.6325 0.0183319 26.5981 0.0179234 26.5641C0.0093447 26.0891 0.00607661 20.9059 0.00730214 11.0147C0.00730214 10.9873 0.00730214 10.9459 0.00689363 10.8915C0.000765959 9.33698 -0.0012766 8.26325 0.000765959 7.67029C0.00403405 6.72596 0.181328 5.78451 0.532239 4.84633C1.3558 2.64483 3.06133 0.971173 5.32571 0.342991C5.97402 0.163218 6.62764 0.057565 7.28738 0.026033C7.39605 0.0207094 7.66812 0.0145668 8.10359 0.00719569C8.55867 -0.000584927 8.97494 -0.00222295 9.35282 0.00310063C9.39979 0.00351013 9.44391 0.00391964 9.48558 0.00432915C10.5882 0.0108812 12.0143 0.0166143 13.7635 0.0215284C13.7843 0.0215284 13.8084 0.0215284 13.8354 0.0219379C14.3007 0.0256235 15.3424 0.02849 16.9597 0.0305375C17.014 0.0305375 17.0688 0.0309471 17.1231 0.0309471C18.3008 0.0346326 22.1204 0.0374992 28.5819 0.0391372C28.6321 0.0391372 28.686 0.0272615 28.7318 0.0272615C30.8005 0.0272615 31.8397 0.0272615 31.8499 0.0272615C31.8732 0.0272615 31.9141 0.0272615 31.9725 0.025214C32.1763 0.0190714 32.8708 0.0170238 34.0559 0.0182524C34.4742 0.0186619 34.9183 0.0448703 35.3885 0.0968776C35.6981 0.130867 35.9669 0.173046 36.1949 0.224234C36.8415 0.36879 37.4608 0.605484 38.0524 0.934318C39.1067 1.52032 39.9601 2.3033 40.6129 3.28325C41.2661 4.26401 41.6493 5.34838 41.7617 6.53636C41.8344 7.30296 41.8642 8.06177 41.8511 8.81322C41.8434 9.24279 41.8397 9.51552 41.8397 9.63223C41.8409 15.79 41.8397 19.0558 41.8376 19.4293C41.8372 19.4784 41.8495 19.5345 41.8495 19.58C41.854 22.0956 41.8617 23.838 41.8736 24.8081C41.8781 25.1865 41.8732 25.4527 41.8581 25.6062C41.8287 25.9072 41.7478 26.1939 41.615 26.4662C41.3564 26.9973 40.9442 27.3311 40.3788 27.467C39.3633 27.7111 38.4809 27.017 38.2444 26.0497C38.2056 25.8921 38.1864 25.6542 38.1864 25.3368C38.1851 19.3625 38.1847 16.2945 38.186 16.1327C38.186 16.1184 38.186 16.0836 38.1851 16.0283C38.179 15.1835 38.1762 13.8399 38.1766 11.9967C38.1766 11.9545 38.1651 11.912 38.1651 11.8739C38.1655 9.85459 38.1614 8.41804 38.1521 7.56422C38.1471 7.11622 38.0769 6.67559 37.9417 6.24234C37.8563 5.96961 37.7472 5.72063 37.6136 5.49581C37.1369 4.69277 36.3362 4.06581 35.4101 3.87416C35.232 3.83731 35.0032 3.81519 34.7234 3.80741C34.4166 3.79922 34.0702 3.78653 33.8059 3.78653C33.5232 3.78653 31.6661 3.78612 28.2346 3.78571H28.1198C25.6512 3.79431 18.7175 3.79759 7.31884 3.79513C7.16156 3.79513 6.91605 3.81601 6.58229 3.85778C6.3045 3.89259 6.06593 3.95115 5.86699 4.03305C5.31713 4.25951 4.86532 4.60104 4.51155 5.05764C4.05116 5.65183 3.77705 6.3267 3.68881 7.08183C3.66838 7.25668 3.65735 7.5286 3.65613 7.89756C3.6549 8.28413 3.65408 9.28047 3.65408 10.8865C3.65408 10.9394 3.65408 10.9918 3.65449 11.0446C3.66062 12.0999 3.66389 16.3862 3.66389 23.9031C3.66389 23.9944 3.6741 24.1148 3.6741 24.2172C3.6692 29.4093 3.67247 33.0621 3.6835 35.1764C3.6839 35.2972 3.70024 35.4618 3.7317 35.6711C3.8661 36.5597 4.30525 37.3857 5.01647 37.9344C5.47645 38.2891 6.00343 38.5127 6.59741 38.6056C6.77348 38.6331 7.04473 38.6478 7.41198 38.649C8.03496 38.6515 8.62771 38.6503 9.18982 38.6449Z" fill="#2D336E"/>
<path d="M50.8796 9.33242H55.4864C55.4958 9.33242 55.5031 9.33979 55.5031 9.34921V12.3476C55.5031 12.3636 55.4954 12.3714 55.4794 12.3714H50.8714C50.8637 12.3714 50.8575 12.3775 50.8575 12.3853V24.2843C50.8575 24.3007 50.8494 24.3089 50.833 24.3089H47.8411C47.8174 24.3089 47.8055 24.297 47.8055 24.2737C47.8055 18.8387 47.8055 13.5037 47.806 8.26893C47.806 7.90406 47.8186 7.63174 47.8443 7.45238C47.9914 6.42656 48.4575 5.55923 49.2431 4.85078C49.8702 4.28485 50.5916 3.93636 51.4074 3.80531C51.6014 3.77419 51.8727 3.75822 52.222 3.75781C53.6808 3.75576 54.7445 3.75658 55.4137 3.76027C55.4296 3.76027 55.4374 3.76805 55.4374 3.78402V6.77382C55.4374 6.78652 55.4308 6.79307 55.4181 6.79307C53.693 6.79758 52.6015 6.80003 52.1427 6.80044C51.6697 6.80044 51.3061 6.99455 51.052 7.38153C50.929 7.56827 50.8649 7.77957 50.8596 8.01545C50.8559 8.16 50.8563 8.59244 50.8604 9.31317C50.8604 9.32587 50.8669 9.33242 50.8796 9.33242Z" fill="#2D336E"/>
<path d="M11.0829 11.6359C11.0478 11.6363 11.0196 11.665 11.0192 11.7002C11.018 12.1027 11.0192 12.8091 11.0225 13.819C11.0225 13.8886 11.0229 13.9295 11.0233 13.9418C11.0274 14.2137 11.0294 15.4566 11.029 17.6708C11.029 17.7834 11.0155 17.9103 11.0074 18.0037C10.9604 18.5348 10.6544 19.0271 10.2488 19.3211C9.77161 19.6667 9.14046 19.7556 8.5759 19.5918C7.93739 19.4067 7.46107 18.9304 7.29848 18.283C7.25967 18.1298 7.24047 17.8903 7.24088 17.5643C7.24374 13.149 7.24211 9.8832 7.23639 7.76646C7.23639 7.7165 7.27601 7.67637 7.32585 7.67596C7.32585 7.67596 7.32585 7.67596 7.32626 7.67596C8.34713 7.67596 10.4383 7.67596 13.5998 7.67637C13.6427 7.67637 13.6864 7.66613 13.7235 7.66654C14.9176 7.67064 16.1195 7.66777 17.3283 7.65753C17.4765 7.6563 17.6273 7.6735 17.7805 7.70913C18.3132 7.83362 18.756 8.23985 18.9803 8.72675C19.2838 9.38524 19.2131 10.1903 18.8283 10.7968C18.5758 11.1948 18.2331 11.4545 17.8005 11.5761C17.6359 11.6224 17.3658 11.6453 16.9912 11.6453C16.6661 11.6453 16.1856 11.6433 15.5504 11.6396C13.6439 11.6285 12.1545 11.6273 11.0829 11.6359Z" fill="#2D336E"/>
<path d="M29.6702 11.6159C29.1731 11.6216 28.0885 11.6294 26.4164 11.6392C26.3964 11.6392 26.376 11.6396 26.356 11.6396C26.0696 11.6409 25.5112 11.6417 24.6802 11.6425C24.284 11.6425 24.0152 11.6245 23.8738 11.588C23.5389 11.5016 23.2586 11.3223 23.0335 11.0499C22.549 10.4652 22.4592 9.60275 22.6883 8.89267C22.8718 8.3255 23.3191 7.84433 23.9053 7.72721C24.1181 7.68463 24.3706 7.67603 24.6137 7.67603H33.4351C33.5086 7.67603 33.5682 7.73581 33.5682 7.80952C33.5682 9.60111 33.5686 11.3997 33.5686 13.2048C33.5686 13.2461 33.5686 13.301 33.569 13.3686C33.5784 15.4063 33.5809 16.8195 33.5772 17.6078C33.5744 18.1168 33.4154 18.6258 33.0817 19.0071C32.589 19.5705 31.8296 19.7839 31.1029 19.5738C30.446 19.3838 29.9635 18.8351 29.8062 18.1803C29.7417 17.912 29.7139 17.6045 29.7229 17.2568C29.7311 16.9423 29.7352 16.7839 29.7352 16.7814C29.7339 14.3506 29.7303 12.6462 29.7237 11.6687C29.7237 11.6392 29.6996 11.6155 29.6702 11.6159Z" fill="#2D336E"/>
<path d="M71.7348 8.42949V11.8833C71.7348 11.8911 71.7283 11.8976 71.7205 11.8976C71.7172 11.8976 71.714 11.8964 71.7111 11.8939L67.8531 8.44014C67.8474 8.43482 67.8466 8.42581 67.8519 8.42008C67.8547 8.4168 67.8584 8.41516 67.8629 8.41516H71.7205C71.7283 8.41516 71.7348 8.42171 71.7348 8.42949Z" fill="#149ED3"/>
<path d="M104 8.42745V11.8915C104 11.8984 103.994 11.9037 103.988 11.9037C103.985 11.9037 103.982 11.9025 103.979 11.9005L100.11 8.43646C100.105 8.43195 100.105 8.42417 100.11 8.41926C100.112 8.4168 100.115 8.41557 100.119 8.41516H103.988C103.995 8.41516 104 8.42048 104 8.42745Z" fill="#149ED3"/>
<path d="M88.2538 9.35124L80.336 29.931C80.334 29.9363 80.3291 29.94 80.3234 29.94H77.0005C76.9928 29.94 76.9867 29.9334 76.9871 29.9256C76.9871 29.924 76.9871 29.9224 76.9879 29.9211L79.3144 23.8301C79.3156 23.8269 79.3156 23.8236 79.3144 23.8203L73.8264 9.35124C73.8236 9.34386 73.8272 9.33608 73.8346 9.33322C73.8362 9.33281 73.8374 9.3324 73.8391 9.3324H77.0508C77.0565 9.3324 77.0618 9.33608 77.0639 9.34141L80.9194 19.6581C80.9223 19.6651 80.9304 19.6687 80.9374 19.6659C80.9406 19.6646 80.9435 19.6618 80.9451 19.6581L84.8864 9.34141C84.8885 9.33608 84.8934 9.3324 84.8991 9.3324H88.2407C88.2485 9.3324 88.2546 9.33854 88.2546 9.34632C88.2546 9.34796 88.2546 9.3496 88.2538 9.35124Z" fill="#2D336E"/>
<path d="M68.4754 12.3977C68.4754 12.3932 68.4717 12.3895 68.4672 12.3895C66.8054 12.3899 65.1428 12.3903 63.4797 12.3907C63.0945 12.3907 62.8233 12.4083 62.6668 12.4439C61.7918 12.6421 61.0732 13.3686 60.8939 14.2523C60.862 14.4092 60.8461 14.6811 60.8461 15.0681C60.8461 16.2585 60.8465 17.5382 60.8473 18.9072C60.8481 19.9993 61.6619 20.992 62.7297 21.2074C62.8813 21.2381 63.1517 21.2528 63.5402 21.2516C64.8744 21.2487 65.9402 21.2491 66.738 21.2528C66.7519 21.2528 66.7589 21.2598 66.7589 21.2741V24.2901C66.7589 24.3004 66.7507 24.3086 66.7405 24.3086C65.4414 24.3098 64.2424 24.3098 63.1431 24.3081C62.217 24.3065 61.3559 24.0792 60.5597 23.6267C59.0315 22.7578 57.9804 21.2004 57.819 19.4285C57.8043 19.2692 57.7969 18.996 57.7965 18.6099C57.7945 16.2487 57.7953 14.9153 57.7986 14.6098C57.8088 13.6098 58.0788 12.695 58.6086 11.8653C59.4849 10.4939 60.929 9.54586 62.5504 9.36404C62.7289 9.34398 63.001 9.33374 63.3666 9.33333C64.903 9.33169 66.4427 9.33128 67.986 9.33169C67.9975 9.33169 68.0073 9.33579 68.0158 9.34357L71.5115 12.473C71.5217 12.482 71.5274 12.4951 71.5274 12.5086V24.2893C71.5274 24.2996 71.5188 24.3081 71.5086 24.3081H68.5024C68.4844 24.3081 68.4754 24.2991 68.4754 24.2811V12.3977Z" fill="#2D336E"/>
<path d="M100.736 12.3996C100.736 12.3951 100.733 12.3915 100.728 12.3915C99.0663 12.3915 97.4041 12.3906 95.741 12.3902C95.3558 12.3902 95.0845 12.4078 94.9281 12.4431C94.053 12.6408 93.3341 13.3669 93.1543 14.2506C93.1225 14.4075 93.1065 14.6794 93.1061 15.0663C93.1057 16.2568 93.1053 17.5361 93.1057 18.9051C93.1057 19.9972 93.9191 20.9903 94.9869 21.2061C95.1385 21.2368 95.4085 21.2515 95.797 21.2507C97.1312 21.2483 98.197 21.2491 98.9948 21.2532C99.0087 21.2532 99.0156 21.2601 99.0156 21.2745L99.014 24.2905C99.014 24.3007 99.0058 24.3089 98.9956 24.3089C97.697 24.3097 96.498 24.3089 95.3987 24.3069C94.4726 24.3048 93.6114 24.0771 92.8157 23.6242C91.2878 22.7544 90.2376 21.1967 90.0774 19.4247C90.0627 19.2654 90.0554 18.9923 90.0549 18.6061C90.0545 16.2453 90.0558 14.912 90.059 14.6065C90.0701 13.6065 90.3405 12.692 90.8703 11.8628C91.7474 10.4918 93.1919 9.54457 94.8129 9.36357C94.9914 9.3435 95.2635 9.33367 95.6291 9.33326C97.1655 9.33203 98.7052 9.33244 100.249 9.33367C100.26 9.33367 100.27 9.33777 100.278 9.34555L103.772 12.4766C103.782 12.4856 103.788 12.4987 103.788 12.5123L103.782 24.2921C103.782 24.3024 103.774 24.3105 103.763 24.3105L100.758 24.3093C100.74 24.3093 100.731 24.3003 100.731 24.2823L100.736 12.3996Z" fill="#2D336E"/>
<path d="M18.3449 23.1357C18.3711 23.1472 18.4025 23.1508 18.4393 23.1463C18.5018 23.1386 18.5369 23.1349 18.5447 23.1349C21.1016 23.1222 23.0077 23.1201 24.2638 23.1287C24.4366 23.13 24.6233 23.1648 24.8239 23.2336C25.9718 23.6271 26.4147 24.879 25.9579 25.9625C25.7312 26.4998 25.3464 26.9126 24.7876 27.0596C24.5931 27.1108 24.3966 27.1382 24.1981 27.1411C23.906 27.1456 23.2262 27.1464 22.158 27.1431C20.8634 27.139 19.1043 27.1378 16.88 27.139C16.6966 27.139 16.4502 27.1419 16.1414 27.148C15.7852 27.155 15.5389 27.1538 15.4028 27.1443C14.9694 27.1149 14.6916 26.8941 14.5691 26.4826C14.5466 26.4076 14.5356 26.2881 14.5356 26.1247C14.5298 21.4895 14.529 19.0152 14.5331 18.7024C14.5335 18.6635 14.5331 18.6246 14.5319 18.5861C14.5225 18.3203 14.5196 17.6532 14.5225 16.584C14.5225 16.5525 14.5319 16.4673 14.5511 16.3285C14.6075 15.9136 14.8346 15.5373 15.2472 15.4091C15.3448 15.3788 15.4882 15.3637 15.6773 15.3637C16.6463 15.3629 17.2432 15.36 17.4683 15.3551C17.4928 15.3547 17.5173 15.3543 17.5422 15.3538C17.8833 15.351 18.9863 15.3514 20.8507 15.3547C20.8707 15.3547 20.9185 15.3547 20.9937 15.3555C22.3528 15.3653 23.4824 15.3674 24.3831 15.3612C24.6515 15.3592 24.8554 15.378 24.9943 15.4169C25.6205 15.5926 26.1083 16.1434 26.2508 16.7736C26.3485 17.2056 26.3236 17.6241 26.1753 18.0291C25.9616 18.6139 25.502 19.0705 24.9044 19.2311C24.7549 19.2712 24.5322 19.2925 24.2361 19.2949C23.408 19.3019 22.2764 19.3035 20.8405 19.299C20.7821 19.299 20.7449 19.2986 20.7294 19.2986C19.8924 19.297 19.0958 19.2912 18.3388 19.281C18.3008 19.2806 18.2698 19.3109 18.2693 19.349C18.2693 19.3494 18.2693 19.3498 18.2693 19.3502L18.2939 23.0575C18.2939 23.0915 18.3143 23.1222 18.3449 23.1357Z" fill="#149ED3"/>
<path d="M11.0928 30.6731C11.8518 30.6809 12.7828 30.6813 13.8858 30.6748C13.9148 30.6748 13.9418 30.6743 13.9675 30.6739C15.0276 30.6653 16.0938 30.6682 17.1653 30.6825C17.2789 30.6842 17.406 30.6997 17.5461 30.7296C18.2295 30.8754 18.6936 31.2767 18.9375 31.9336C19.1997 32.6388 19.1197 33.4823 18.6311 34.0667C18.2749 34.4934 17.8096 34.7072 17.2348 34.7084C13.617 34.7154 10.3346 34.7129 7.38722 34.701C7.3386 34.701 7.29898 34.6609 7.29898 34.6122C7.29775 33.0057 7.29775 32.1764 7.29898 32.124C7.29898 32.1043 7.29898 32.0634 7.29734 32.0011C7.2904 31.6322 7.28754 30.5945 7.28836 28.8889V28.7763C7.27651 26.368 7.26997 25.0305 7.26793 24.7631C7.26671 24.6112 7.28917 24.4019 7.33452 24.1358C7.43174 23.5665 7.75488 23.0629 8.27205 22.7967C9.01677 22.4138 9.99801 22.5596 10.5716 23.1947C10.8224 23.4728 10.9711 23.8098 11.0181 24.2058C11.0381 24.372 11.0238 24.5834 11.0311 24.773C11.0352 24.8778 11.0373 24.9535 11.0373 24.9998C11.0381 25.6407 11.0389 27.5138 11.0397 30.6191C11.0397 30.649 11.0634 30.6727 11.0928 30.6731Z" fill="#2D336E"/>
<path d="M31.1509 42.1965C27.6598 40.7251 26.0364 36.6547 27.5254 33.1042C29.0144 29.5538 33.0513 27.8683 36.5425 29.3392C40.0336 30.8106 41.657 34.8811 40.168 38.4315C38.679 41.9819 34.6421 43.6674 31.1509 42.1965ZM33.3283 39.2382C35.2132 39.5073 36.9624 38.1657 37.2353 36.2427C37.5082 34.3192 36.2018 32.542 34.3173 32.2733C32.4324 32.0043 30.6832 33.3458 30.4103 35.2689C30.1374 37.1923 31.4438 38.9696 33.3283 39.2382Z" fill="#3C4493"/>
<path d="M48.4905 35.4875C48.4828 35.4875 48.4766 35.4937 48.4766 35.5014C48.4766 35.5018 48.4766 35.5023 48.4766 35.5027C48.5914 36.639 49.339 37.5649 50.4738 37.7889C50.8329 37.8598 51.2088 37.8614 51.6017 37.7947C52.2223 37.6894 52.7497 37.4065 53.1831 36.9466C53.1913 36.9376 53.2047 36.9372 53.2137 36.9454C53.2137 36.9454 53.2141 36.9458 53.2145 36.9462L53.766 37.499C53.775 37.508 53.7754 37.5228 53.7664 37.5322C53.2599 38.0576 52.65 38.4003 51.9371 38.5613C51.4514 38.671 50.9583 38.6976 50.4587 38.6407C50.1295 38.6034 49.8272 38.5314 49.5518 38.4241C48.7998 38.1309 48.2356 37.6317 47.8594 36.9261C47.6939 36.6161 47.5787 36.2828 47.5134 35.9253C47.4169 35.3978 47.4141 34.8745 47.5044 34.3552C47.5526 34.0788 47.6298 33.8175 47.7356 33.5714C48.0264 32.8953 48.493 32.3773 49.1347 32.0174C49.8496 31.6169 50.7173 31.4948 51.52 31.6013C52.5679 31.7409 53.3244 32.2536 53.7893 33.1398C54.1611 33.8487 54.2424 34.6669 54.2084 35.4576C54.2076 35.4744 54.1941 35.4875 54.1774 35.4875H48.4905ZM51.0494 32.4076C50.1029 32.374 49.3774 32.7389 48.8729 33.5018C48.6609 33.8216 48.5289 34.2148 48.477 34.6804C48.4754 34.6943 48.4815 34.7013 48.4954 34.7013H53.2611C53.2689 34.7013 53.275 34.6951 53.275 34.6873C53.275 34.6873 53.275 34.6869 53.275 34.6865C53.2419 34.0866 53.072 33.5465 52.6733 33.1095C52.2541 32.6496 51.6806 32.4301 51.0494 32.4076Z" fill="#2D336E"/>
<path d="M68.3902 33.1363C68.393 33.1391 68.3975 33.1391 68.4004 33.1363C68.4008 33.1359 68.4016 33.135 68.402 33.1342C68.7627 32.3533 69.3641 31.8619 70.2056 31.66C70.5026 31.5887 70.8224 31.558 71.1652 31.5675C71.4728 31.5765 71.7404 31.6162 71.9687 31.6862C72.787 31.9376 73.3221 32.5028 73.5742 33.3816C73.577 33.3926 73.5807 33.393 73.5848 33.3816C73.8013 32.7882 74.1857 32.2718 74.7323 31.9573C75.0669 31.7648 75.4484 31.6432 75.8774 31.5928C76.2896 31.5441 76.6715 31.5564 77.0232 31.6289C77.8452 31.7988 78.4208 32.2632 78.7496 33.022C78.8452 33.2427 78.9106 33.4823 78.9453 33.7407C78.9669 33.8984 78.9776 34.1453 78.9776 34.4823V38.6232C78.9776 38.6323 78.9702 38.6396 78.9612 38.6396H77.9497C77.9354 38.6396 77.9285 38.6327 77.9285 38.6183C77.9285 36.536 77.9285 35.1424 77.9277 34.4373C77.9277 34.0753 77.8219 33.64 77.6229 33.3255C77.3741 32.9319 77.0249 32.6793 76.5743 32.5675C76.1923 32.4729 75.8002 32.4757 75.3982 32.5761C74.2135 32.8721 73.6816 34.0134 73.6804 35.1543C73.6792 36.38 73.6792 37.5348 73.68 38.6196C73.68 38.6331 73.6734 38.6396 73.66 38.6396H72.6505C72.6407 38.6396 72.6326 38.6314 72.6326 38.6216C72.6326 36.2895 72.6326 34.9152 72.6326 34.4987C72.6326 34.2489 72.5921 33.995 72.5116 33.7374C72.3388 33.1838 71.9859 32.8115 71.4532 32.6207C71.1251 32.5032 70.7632 32.4708 70.3678 32.5241C69.2366 32.676 68.5671 33.5622 68.4171 34.6457C68.3947 34.8091 68.3832 35.0347 68.3832 35.3222C68.3832 35.9443 68.3832 37.0434 68.384 38.6191C68.384 38.6306 68.3751 38.6396 68.3636 38.6396H67.3689C67.353 38.6396 67.3448 38.6314 67.3448 38.6151V31.6117C67.3448 31.6027 67.3517 31.5957 67.3603 31.5957H68.3608C68.3751 31.5957 68.3824 31.6031 68.3824 31.6174C68.3844 32.0896 68.3849 32.5888 68.384 33.115C68.384 33.1244 68.3861 33.1314 68.3906 33.1359L68.3902 33.1363Z" fill="#2D336E"/>
<path d="M81.623 35.4875C81.6153 35.4875 81.6091 35.4937 81.6091 35.5014C81.6091 35.5018 81.6091 35.5023 81.6091 35.5027C81.7239 36.639 82.4715 37.5649 83.6063 37.7889C83.9654 37.8598 84.3413 37.8614 84.7342 37.7947C85.3548 37.6894 85.8822 37.4065 86.3156 36.9466C86.3238 36.9376 86.3372 36.9372 86.3462 36.9454C86.3462 36.9454 86.3466 36.9458 86.347 36.9462L86.8985 37.499C86.9075 37.508 86.9079 37.5228 86.8989 37.5322C86.3924 38.0576 85.7825 38.4003 85.0696 38.5613C84.5839 38.671 84.0908 38.6976 83.5912 38.6407C83.262 38.6034 82.9597 38.5314 82.6843 38.4241C81.9323 38.1309 81.3681 37.6317 80.9919 36.9261C80.8264 36.6161 80.7112 36.2828 80.6459 35.9253C80.5495 35.3978 80.5466 34.8745 80.6369 34.3552C80.6851 34.0788 80.7623 33.8175 80.8681 33.5714C81.1589 32.8953 81.6255 32.3773 82.2672 32.0174C82.9821 31.6169 83.8498 31.4948 84.6525 31.6013C85.7004 31.7409 86.4569 32.2536 86.9218 33.1398C87.2936 33.8487 87.3749 34.6669 87.341 35.4576C87.3401 35.4744 87.3267 35.4875 87.3099 35.4875H81.623ZM84.1819 32.4076C83.2354 32.374 82.5095 32.7389 82.005 33.5018C81.793 33.822 81.661 34.2152 81.6091 34.6808C81.6075 34.6947 81.6136 34.7017 81.6275 34.7017H86.394C86.4018 34.7017 86.4079 34.6955 86.4079 34.6877C86.4079 34.6877 86.4079 34.6873 86.4079 34.6869C86.3748 34.0866 86.2049 33.5465 85.8062 33.1095C85.387 32.6496 84.8131 32.4301 84.1819 32.4076Z" fill="#2D336E"/>
<path d="M90.1996 33.0871C90.6318 32.2398 91.3364 31.7468 92.314 31.6088C92.8247 31.5367 93.2944 31.5535 93.7238 31.6595C94.4824 31.8467 95.0674 32.3352 95.3558 33.0559C95.4984 33.4126 95.5707 33.7939 95.5727 34.1989C95.578 35.2767 95.5788 36.7505 95.5756 38.6207C95.5756 38.6334 95.569 38.64 95.5564 38.64H94.5359C94.5269 38.64 94.5196 38.633 94.5196 38.624C94.5196 35.8635 94.5196 34.4544 94.5192 34.3967C94.5192 34.2857 94.5 34.1395 94.462 33.9581C94.281 33.0932 93.6253 32.5793 92.7577 32.5215C91.9431 32.4675 91.191 32.7193 90.6996 33.3889C90.4814 33.6858 90.3311 34.0216 90.2482 34.3954C90.2061 34.5859 90.1848 34.8361 90.1848 35.1469C90.1853 37.1441 90.1861 38.2976 90.1873 38.6084C90.1873 38.6293 90.1767 38.64 90.1558 38.64H89.144C89.135 38.64 89.1276 38.6326 89.1276 38.6236V31.6223C89.1276 31.6079 89.1395 31.5961 89.1538 31.5961H90.164C90.1783 31.5961 90.1857 31.6034 90.1857 31.6178V33.0838C90.1857 33.1039 90.1902 33.1051 90.1996 33.0871Z" fill="#2D336E"/>
<path d="M102.923 37.1076C102.682 37.6301 102.303 38.056 101.806 38.3148C101.471 38.4889 101.103 38.5982 100.703 38.6424C99.6136 38.7632 98.5645 38.4557 98.0061 37.4668C97.7696 37.0478 97.6503 36.5544 97.6478 35.986C97.6425 34.7783 97.6417 33.3197 97.6454 31.6108C97.6454 31.6026 97.6519 31.5961 97.6601 31.5961H98.6711C98.6854 31.5961 98.6928 31.6034 98.6928 31.6178C98.6944 33.5539 98.6944 34.8389 98.6924 35.4729C98.692 35.6465 98.6973 35.8025 98.7087 35.9413C98.7631 36.6142 99.0584 37.1981 99.6508 37.5028C99.9192 37.6408 100.207 37.7125 100.513 37.7182C101.543 37.737 102.266 37.3001 102.68 36.4078C102.851 36.0392 102.938 35.6318 102.941 35.1854C102.945 34.5126 102.945 33.323 102.942 31.617C102.942 31.603 102.949 31.5961 102.963 31.5961H103.973C103.988 31.5961 104 31.6079 104 31.6227V38.6158C104 38.6318 103.992 38.64 103.976 38.64H102.976C102.954 38.64 102.943 38.6289 102.943 38.6068V37.1121C102.943 37.0802 102.936 37.0785 102.923 37.1076Z" fill="#2D336E"/>
<path d="M37.2355 36.2425C37.5086 34.3192 36.2021 32.542 34.3173 32.2731C32.4326 32.0042 30.6833 33.3454 30.4103 35.2688C30.1372 37.1921 31.4437 38.9693 33.3285 39.2382C35.2132 39.5071 36.9625 38.1659 37.2355 36.2425Z" fill="#149ED3"/>
<path d="M61.9572 34.2189H58.8606C58.8523 34.2189 58.8455 34.2257 58.8455 34.234V34.9417C58.8455 34.95 58.8523 34.9568 58.8606 34.9568H61.9572C61.9655 34.9568 61.9723 34.95 61.9723 34.9417V34.234C61.9723 34.2257 61.9655 34.2189 61.9572 34.2189Z" fill="#2D336E"/>
</svg>
