<svg width="263" height="53" viewBox="0 0 263 53" fill="none" xmlns="http://www.w3.org/2000/svg">
<path d="M139.727 5.12688L140.48 5.87778C140.537 5.93532 140.628 5.94107 140.693 5.89073L141.314 5.40595C143.481 3.65242 145.642 1.89313 147.795 0.126647C147.851 0.0820536 147.901 0.0561606 147.947 0.0518451C147.983 0.0475296 148.015 0.0734226 148.019 0.107947C148.021 0.120893 148.019 0.135278 148.012 0.146786L145.098 5.6318L144.84 6.11082L141.759 11.9008L141.545 12.3165L140.112 14.9979L139.642 15.9272L139.224 16.737C139.189 16.8018 139.109 16.8262 139.044 16.7917C139.042 16.7917 139.04 16.7903 139.038 16.7888C138.626 16.5443 138.197 16.3228 137.753 16.1228C135.449 15.0856 133.156 15.1087 130.878 16.1918L129.725 16.8406C129.633 16.8924 129.518 16.8593 129.466 16.7672C129.466 16.7658 129.463 16.7629 129.463 16.7615L126.118 10.1674C124.467 6.88761 122.805 3.61214 121.132 0.342423C121.086 0.250358 121.06 0.198572 121.057 0.188503C120.994 -0.0215186 121.044 -0.0560426 121.208 0.0849306L128.313 6.16836C128.403 6.2446 128.536 6.24028 128.62 6.15685L134.578 0.194257C134.635 0.136717 134.727 0.136717 134.785 0.194257L139.727 5.12688ZM134.821 1.61694C134.742 1.53782 134.615 1.53782 134.536 1.61694L129.371 6.78548C129.292 6.86459 129.294 6.99118 129.371 7.0703C129.374 7.07318 129.379 7.07749 129.383 7.08037L134.066 11.0909C134.141 11.1542 134.249 11.1556 134.325 11.0938L139.648 6.76246C139.734 6.69197 139.747 6.56538 139.676 6.47907C139.672 6.47332 139.668 6.46757 139.662 6.46325L134.821 1.61694ZM138.605 8.88425L135.108 11.7339C135.044 11.7872 135.035 11.8821 135.087 11.9454C135.092 11.9526 135.098 11.9583 135.105 11.9641L136.382 13.0674L138.746 15.0856C138.798 15.1288 138.874 15.123 138.919 15.0713C138.92 15.0698 138.922 15.0669 138.923 15.0655C138.992 14.972 139.087 14.8123 139.208 14.5865C142.76 7.91758 144.623 4.42058 144.795 4.09691C144.817 4.05807 144.82 4.01636 144.807 3.97464C144.794 3.93436 144.749 3.91422 144.709 3.92717C144.7 3.93005 144.693 3.93436 144.686 3.94012L138.605 8.88425ZM136.34 14.3218C131.427 10.1588 126.905 6.24891 124.74 4.39037C124.588 4.25947 124.487 4.17891 124.439 4.14582C124.162 3.95738 124.094 4.00485 124.237 4.28536L129.883 15.3805C129.928 15.4697 130.035 15.5042 130.125 15.4611C132.115 14.4872 134.089 14.1132 136.283 14.5778C136.388 14.5994 136.441 14.5563 136.444 14.4484C136.444 14.4239 136.411 14.3808 136.34 14.3218Z" fill="#F0D8B9"/>
<path d="M139.256 18.5022C140.072 18.9927 140.826 19.581 141.52 20.2658C142.698 21.4612 143.677 22.8162 144.454 24.3295C145.308 25.9896 145.933 27.7388 146.332 29.5786L146.756 32.0845C147.091 34.8306 146.98 37.5637 146.421 40.2825C146.034 42.1655 145.41 43.968 144.552 45.687C142.912 48.9768 139.959 52.2437 136.153 52.8939C136.044 52.9126 135.942 52.8392 135.923 52.7313C135.922 52.7227 135.92 52.7126 135.92 52.704C135.835 50.0989 135.607 43.2243 135.235 32.0802C135.23 31.9406 135.285 31.8601 135.398 31.8414C135.424 31.8371 135.45 31.8414 135.473 31.8486C135.726 31.9392 135.946 32.0428 136.134 32.1593C138.347 33.5331 140.138 35.7915 141.595 38.0399C141.617 38.0744 141.663 38.0845 141.696 38.0629C141.717 38.0485 141.73 38.0241 141.73 37.9982C141.709 36.8934 141.449 35.8735 140.951 34.9399C140.132 33.4022 138.94 32.3866 137.431 31.5983C137.405 31.5853 137.388 31.5666 137.379 31.5436C137.371 31.522 137.371 31.5048 137.379 31.4918C137.392 31.4659 137.414 31.4559 137.442 31.4602C138.456 31.6026 139.448 31.8543 140.417 32.2154C141.779 32.7174 143.094 33.3317 144.361 34.0552C144.411 34.084 144.46 34.0912 144.505 34.0783C144.53 34.0696 144.545 34.0423 144.536 34.0164C144.536 34.0135 144.533 34.0106 144.532 34.0078C143.539 32.2859 142.104 31.1538 140.225 30.6143C139.149 30.3123 138.061 30.236 136.961 30.3856C136.867 30.3986 136.83 30.3655 136.852 30.2864C136.856 30.2662 136.869 30.2504 136.888 30.2418C137.529 29.9555 138.249 29.7512 139.047 29.629C140.73 29.3686 142.423 29.3269 144.127 29.5024C144.168 29.5067 144.206 29.4765 144.211 29.4348C144.213 29.4218 144.211 29.4089 144.206 29.3974C144.19 29.3571 144.157 29.3197 144.105 29.2837C141.807 27.7215 138.828 27.8049 136.566 29.3873C136.363 29.5297 136.196 29.6477 136.067 29.7441C135.854 29.9023 135.821 29.8706 135.969 29.6505C136.064 29.511 136.169 29.3758 136.285 29.2463C137.59 27.7776 139.413 26.506 141.239 25.512C141.256 25.5033 141.27 25.489 141.283 25.4674C141.296 25.4444 141.303 25.4242 141.302 25.407C141.296 25.3595 141.259 25.3235 141.214 25.3235C138.795 25.3293 136.899 26.3434 135.523 28.3645C135.373 28.5861 135.291 28.5645 135.276 28.3012L135.009 23.3887C135 23.2176 134.901 23.0752 134.787 23.068C134.77 23.068 134.753 23.068 134.737 23.0752C134.733 23.0752 134.73 23.0752 134.726 23.0766C134.534 23.0795 134.435 23.16 134.427 23.3183L134.136 28.4796C134.135 28.5069 134.108 28.5242 134.076 28.5184C134.06 28.5156 134.046 28.5069 134.036 28.494C133.918 28.3516 133.719 28.1085 133.441 27.7618C132.135 26.1449 130.409 25.3336 128.26 25.3264C128.243 25.3264 128.226 25.3307 128.211 25.3408C128.146 25.3825 128.141 25.4372 128.192 25.5019C128.203 25.5149 128.217 25.5264 128.233 25.5336C128.404 25.6242 128.898 25.9191 129.715 26.4211C131.01 27.2166 132.173 28.1746 133.202 29.2938C133.341 29.4448 133.429 29.557 133.465 29.629C133.573 29.8505 133.533 29.8836 133.341 29.7268C132.542 29.0723 131.629 28.6191 130.602 28.366C128.683 27.8941 126.909 28.212 125.28 29.3211C125.253 29.3413 125.236 29.3729 125.236 29.406C125.236 29.4794 125.286 29.511 125.391 29.5009C127.373 29.3039 129.279 29.3931 131.111 29.7714C131.51 29.8534 131.995 30.0116 132.564 30.2446C132.594 30.2576 132.616 30.2864 132.617 30.3195C132.617 30.3382 132.617 30.3511 132.617 30.3583C132.61 30.3842 132.594 30.3957 132.568 30.3928C131.629 30.2734 130.784 30.2835 130.03 30.4216C127.799 30.8316 126.123 31.9766 125 33.8553C124.836 34.13 124.892 34.1861 125.17 34.0265C127.113 32.9016 129.252 31.9867 131.315 31.5666C131.52 31.5249 131.724 31.4961 131.926 31.4803C132.171 31.4616 132.184 31.5091 131.966 31.6242C131.516 31.8615 131.156 32.0715 130.891 32.2571C128.923 33.6237 127.859 35.488 127.701 37.8514C127.679 38.1694 127.756 38.1952 127.927 37.9263C129.22 35.8936 130.893 33.8251 132.82 32.4671C133.195 32.2039 133.581 31.9982 133.98 31.85C134.062 31.8184 134.154 31.8615 134.185 31.945C134.192 31.9637 134.195 31.9852 134.195 32.0054L133.511 52.773C133.507 52.8852 133.449 52.9413 133.337 52.9428C133.011 52.9442 132.639 52.8867 132.219 52.7673C128.263 51.6453 125.492 48.2374 123.942 44.5779L123.712 44.0514C123.307 42.9869 122.947 41.8088 122.632 40.5156L122.558 40.1099C122.45 39.5 122.355 38.8728 122.272 38.2283C121.938 35.6433 122.001 33.0684 122.463 30.5036C122.939 27.8611 123.87 25.3926 125.26 23.101C126.331 21.336 127.705 19.8745 129.383 18.7194C130.249 18.1655 131.177 17.7426 132.163 17.4535C134.662 16.8191 137.028 17.1687 139.258 18.5022H139.256Z" fill="#F0D8B9"/>
<path d="M90.2531 34.9154C91.2295 34.9512 91.7308 35.4268 91.7568 36.3486C91.7731 36.8372 91.5387 37.1206 91.057 37.1988L90.8975 37.2248C90.38 37.3095 90.0806 37.0913 89.9992 36.5734C89.9276 36.1011 89.9406 35.6027 90.0415 35.0815C90.0643 34.9675 90.1326 34.9122 90.2531 34.9154Z" fill="#F0D8B9"/>
<path d="M94.9728 39.9772L94.273 39.9381C94.0843 39.9284 94.081 39.9088 94.2665 39.873C94.4748 39.8339 94.7157 39.8242 94.9891 39.8437C95.0282 39.847 95.0445 39.873 95.0379 39.9219C95.0314 39.961 95.0086 39.9805 94.9728 39.9772Z" fill="#F0D8B9"/>
<path d="M104.216 40.6416L103.943 40.5569C103.858 40.5276 103.813 40.4364 103.842 40.3517C103.855 40.3159 103.878 40.2866 103.91 40.2638C106.488 38.7361 106.807 42.2442 105.076 42.0032C104.526 41.925 104.347 41.355 104.366 40.8534C104.369 40.7459 104.32 40.6742 104.216 40.6416Z" fill="#F0D8B9"/>
<path d="M85.9793 40.3811L84.9963 40.2704C84.9963 40.2704 84.98 40.2704 84.9767 40.2639L84.9214 40.202C84.8856 40.1597 84.8954 40.1369 84.954 40.1303L85.9597 40.0066C86.0671 39.9903 86.129 39.9153 86.1387 39.7785C86.2462 38.4007 86.3633 37.1532 87.278 36.0685C87.662 35.6125 88.0689 35.3291 88.5018 35.2151C88.645 35.1792 88.6808 35.2248 88.606 35.3519C87.9192 36.5245 87.6881 37.987 87.9192 39.7395C87.9452 39.9219 88.0949 40.0619 88.2805 40.0684L89.3936 40.1043C89.4327 40.1043 89.462 40.1368 89.4587 40.1759C89.4587 40.1792 89.4587 40.1824 89.4587 40.189L89.4392 40.2834C89.4392 40.2834 89.4327 40.2932 89.4262 40.2932L88.2967 40.3388C87.968 40.3518 87.802 40.5212 87.7955 40.8502C87.7597 42.6059 87.7564 44.5146 87.7792 46.5765C87.7857 47.0684 87.942 47.3974 88.2382 47.7589C88.3683 47.9185 88.3293 47.9967 88.1242 47.9902L86.1615 47.925C86.0802 47.925 86.0444 47.8827 86.0476 47.8045L86.2787 40.7297C86.282 40.5505 86.1518 40.4007 85.9793 40.3811Z" fill="#F0D8B9"/>
<path d="M58.1306 36.4853L58.5732 36.1563C58.6579 36.0944 58.7783 36.1107 58.8401 36.1921C58.8662 36.2247 58.8792 36.2638 58.8792 36.3062L58.9215 39.5244C58.9215 39.6481 58.8662 39.6612 58.7555 39.5634C58.6741 39.4918 58.4431 39.1205 58.0687 38.4495C57.4308 37.3159 56.3892 36.0814 54.9896 35.9706C54.7911 35.9544 54.5925 35.9381 54.4005 35.9153C54.2149 35.8925 54.2149 35.8567 54.394 35.8143C55.4746 35.5505 56.6822 35.9055 57.8637 36.5081C57.9581 36.557 58.0459 36.5472 58.1306 36.4853Z" fill="#F0D8B9"/>
<path d="M52.8806 36.3322C52.1352 36.9804 51.6177 37.7329 51.328 38.5928C50.6217 40.6872 50.5761 43.3126 51.621 45.381C52.8025 47.7132 55.312 48.2409 57.5318 46.951C57.9192 46.7262 58.2707 46.2409 58.7557 45.9478C58.9607 45.8272 58.9868 45.8598 58.8403 46.0455C57.597 47.6415 56.1387 48.3842 54.469 48.2735C51.2499 48.0617 49.3751 46.4201 48.851 43.3517C48.5353 41.495 48.8771 39.8371 49.8828 38.3778C50.7324 37.1433 51.8488 36.3713 53.2289 36.0651C53.2972 36.0488 53.3428 36.0456 53.3623 36.0521C53.4958 36.101 53.4893 36.14 53.3363 36.1726L53.0889 36.228C53.0108 36.2443 52.9392 36.2801 52.8806 36.3322Z" fill="#F0D8B9"/>
<path d="M107.537 40.3192L107.032 40.2899C106.983 40.2899 106.941 40.2476 106.944 40.1955C106.944 40.1727 106.954 40.1531 106.967 40.1368L107.022 40.0717C107.022 40.0717 107.035 40.0619 107.042 40.0652C107.39 40.1629 107.68 40.1173 107.914 39.9316C108.009 39.8567 108.061 39.759 108.067 39.6385L108.171 37.8046C108.188 37.4952 108.35 37.3518 108.66 37.3681L109.151 37.3974C109.441 37.4137 109.591 37.5636 109.607 37.8535L109.711 39.7525C109.717 39.8795 109.783 39.9609 109.906 39.9935C110.424 40.1271 110.945 40.1499 111.465 40.0684C111.475 40.0684 111.482 40.0684 111.485 40.0782L111.534 40.1955C111.556 40.2476 111.537 40.2736 111.482 40.2769L110.17 40.3486C109.874 40.3648 109.721 40.5244 109.717 40.8209C109.691 42.3029 109.691 43.9641 109.721 45.811C109.727 46.1954 109.786 46.4951 109.9 46.71C110.404 47.6579 111.211 47.2345 111.999 47.0683C112.041 47.0586 112.084 47.0846 112.094 47.127C112.1 47.153 112.094 47.1824 112.074 47.1986C111.436 47.9152 110.723 48.2377 109.932 48.1693C108.787 48.0683 108.152 47.2149 108.103 46.114C108.083 45.6579 108.07 43.9153 108.067 40.8828C108.067 40.5277 107.891 40.3388 107.537 40.3192Z" fill="#F0D8B9"/>
<path d="M66.5283 43.1399C66.3753 41.5178 65.8643 39.8989 63.9374 39.8924C63.9342 39.8924 63.9309 39.8924 63.9309 39.8956C63.9309 39.9021 63.9309 39.9054 63.9374 39.9054C65.8773 39.7067 67.2249 40.4722 67.98 42.205C68.9727 44.4786 67.9312 47.42 65.4184 48.1008C65.1906 48.1626 65.1482 48.0975 65.2915 47.9086C65.6007 47.5014 65.7992 47.2278 65.8904 47.0942C66.5771 46.091 66.639 44.3516 66.5283 43.1399Z" fill="#F0D8B9"/>
<path d="M75.6872 47.6904C75.8467 47.2897 75.9281 46.9151 75.9314 46.5633C75.9476 45.3516 75.9509 44.1432 75.9411 42.9347C75.9346 42.1432 75.863 41.6057 75.7231 41.3256C75.212 40.267 74.3039 40.5439 73.3307 40.7067C72.9759 40.7686 72.9434 40.697 73.2396 40.4852C75.0395 39.1921 77.6239 39.8305 77.5588 42.3875C77.5328 43.4103 77.5295 44.9282 77.549 46.9379C77.5523 47.0715 77.5849 47.2246 77.6467 47.4037C77.676 47.4852 77.7085 47.5698 77.7443 47.6545C77.7899 47.7685 77.7541 47.8435 77.6337 47.876C76.9925 48.0487 76.3643 48.0356 75.7556 47.8304C75.7003 47.8141 75.6677 47.7588 75.684 47.7034C75.684 47.7001 75.684 47.6969 75.6872 47.6904Z" fill="#F0D8B9"/>
<path d="M80.9082 47.7459C81.0644 47.342 81.1425 46.9642 81.1425 46.6091C81.1425 45.3876 81.136 44.1694 81.1132 42.9512C81.097 42.1531 81.0188 41.6157 80.8789 41.3323C80.3516 40.2737 79.4402 40.5603 78.4605 40.7362C78.1025 40.8014 78.0699 40.7264 78.3661 40.5115C80.1661 39.1923 82.7765 39.8079 82.7374 42.3844C82.7211 43.417 82.7374 44.9446 82.7765 46.9707C82.7797 47.1042 82.8155 47.2573 82.8774 47.4365C82.9099 47.5212 82.9425 47.6058 82.9783 47.6905C83.0271 47.8045 82.9913 47.8795 82.8709 47.9153C82.2231 48.0944 81.5917 48.0847 80.9765 47.886C80.9212 47.8697 80.8886 47.8143 80.9049 47.7589C80.9049 47.7557 80.9049 47.7524 80.9082 47.7459Z" fill="#F0D8B9"/>
<path d="M60.2037 44.1107C60.1776 42.3062 61.0662 40.7394 62.7848 40.088C63.3056 39.8925 63.3772 40 63.0029 40.4072C62.1371 41.3518 61.9483 42.7622 61.9678 44.0847C61.9874 45.4104 62.2185 46.811 63.1103 47.7296C63.4976 48.127 63.4293 48.2345 62.902 48.0553C61.1671 47.456 60.2297 45.9185 60.2037 44.1107Z" fill="#F0D8B9"/>
<path d="M72.4911 40.9739L72.5464 41.0455C72.6082 41.1172 72.6115 41.1921 72.5561 41.2703C72.3999 41.5081 72.3218 41.6872 72.3218 41.8045C72.312 43.4885 72.3088 45.1693 72.312 46.8533C72.312 47.0487 72.4097 47.3419 72.6017 47.7295C72.6571 47.8403 72.6213 47.9054 72.5008 47.9282C71.7847 48.0487 71.1631 48.0487 70.639 47.9347C70.5251 47.9087 70.4828 47.837 70.5121 47.723C70.5967 47.4136 70.6553 47.1236 70.6878 46.8533C70.7171 46.6123 70.7204 44.8045 70.6976 41.4332C70.6976 41.0977 70.5023 40.7198 70.1215 40.2996C70.0792 40.2508 70.0857 40.1758 70.1313 40.1335C70.1508 40.1172 70.1736 40.1074 70.1996 40.1074L71.9052 40.0162C72.0549 40.0065 72.1525 40.0749 72.1949 40.2182L72.3316 40.6742C72.3641 40.785 72.4162 40.8859 72.4911 40.9739Z" fill="#F0D8B9"/>
<path d="M92.3001 44.0553C92.3066 45.381 92.5247 46.7882 93.4067 47.7197C93.7941 48.1204 93.7225 48.2279 93.1984 48.0422C91.4636 47.4233 90.5392 45.8728 90.5327 44.0618C90.5229 42.2507 91.431 40.6938 93.1594 40.0553C93.6834 39.8631 93.7518 39.9706 93.3709 40.3778C92.4986 41.3159 92.2936 42.7263 92.3001 44.0553Z" fill="#F0D8B9"/>
<path d="M98.6698 44.0489C98.66 45.8502 97.7389 47.3876 96.0171 48C95.493 48.1857 95.4247 48.0782 95.8087 47.6775C96.6876 46.7557 96.9024 45.3583 96.9122 44.0391C96.9187 42.7199 96.7201 41.3193 95.8511 40.3877C95.4735 39.9838 95.5451 39.8763 96.0659 40.0685C97.7812 40.7004 98.6796 42.2509 98.6698 44.0489Z" fill="#F0D8B9"/>
<path d="M102.859 47.5308C103.064 47.8631 102.827 48.0227 102.143 48.0064C101.717 48.0487 101.32 48.0096 100.952 47.8956C100.825 47.8565 100.792 47.7784 100.854 47.6611C100.971 47.4396 101.085 47.1497 101.088 46.8826C101.098 45.1334 101.098 43.3354 101.088 41.482C101.088 41.2508 100.913 40.8599 100.561 40.3159C100.47 40.1758 100.509 40.1042 100.675 40.0944L102.257 40.0065C102.41 39.9967 102.511 40.0651 102.563 40.2084C102.68 40.5309 102.735 40.7622 102.729 40.9022C102.657 42.8989 102.641 44.9641 102.683 47.0976C102.683 47.2018 102.745 47.3452 102.859 47.5308Z" fill="#F0D8B9"/>
<path d="M43.7505 35.4339L43.7554 35.8757V38.6981L43.7571 40.542C43.7438 42.856 43.7571 45.1568 43.8003 47.4442C43.8052 47.7249 43.9165 47.9226 44.1306 48.0356C44.2153 48.0804 44.3896 48.1419 44.6535 48.2167C44.6883 48.2266 44.7016 48.2482 44.69 48.2831C44.685 48.2997 44.6751 48.313 44.6601 48.323C44.6485 48.3313 44.6336 48.3346 44.6153 48.3346C41.805 48.3396 40.4007 48.3429 40.399 48.3429C40.3276 48.3429 40.3011 48.3213 40.316 48.2781L40.3359 48.22C40.3409 48.2084 40.3492 48.2017 40.3608 48.2C40.8821 48.1286 41.1443 47.8063 41.1477 47.2366C41.1609 44.9657 41.1626 42.6999 41.1526 40.4373L41.1493 38.738V36.5469L41.0032 35.8558C40.814 35.5053 40.4704 35.3076 39.9707 35.2644C39.896 35.2578 39.8413 35.2445 39.8097 35.2229C39.7715 35.1996 39.7616 35.1498 39.7865 35.1116C39.7998 35.09 39.8247 35.0767 39.8496 35.075L41.4182 34.9936C42.054 34.9588 42.6981 34.9322 43.3504 34.9156C43.6542 34.9073 43.7886 35.08 43.7505 35.4339Z" fill="#F0D8B9"/>
<path d="M10.9711 38.5286C11.0258 39.2246 10.8897 39.8476 10.5627 40.3974C9.82569 41.3294 8.98906 41.6383 7.88187 42.0104C7.6113 42.1018 7.61628 42.1749 7.89515 42.2314C8.63383 42.3825 9.37916 42.6533 9.912 43.2397C10.1145 43.4607 10.2805 43.8411 10.4117 44.3776C10.5494 44.9408 10.6938 45.6335 10.8482 46.4591C10.8964 46.7182 10.9727 46.9159 11.0773 47.0538C11.4657 47.5671 12.0218 47.4359 12.3621 46.9641C12.6094 46.6235 12.709 46.2066 12.6592 45.7165C12.6526 45.6584 12.6692 45.6069 12.7074 45.5621L12.7638 45.4956C12.7871 45.4674 12.8269 45.464 12.8551 45.489C12.8667 45.4989 12.875 45.5139 12.8784 45.5288C12.9365 45.886 12.9132 46.3179 12.8053 46.8246C12.6045 47.7681 12.0285 48.3578 11.0624 48.4974C10.327 48.602 9.72277 48.5788 9.24636 48.4276C7.99475 48.0289 7.65612 46.803 7.51834 45.6435C7.41875 44.8162 7.2793 44.067 6.92739 43.3178C6.56552 42.5453 5.81356 42.2895 4.97528 42.3327C4.83917 42.3394 4.74787 42.3892 4.69973 42.4822C4.66653 42.547 4.64827 42.665 4.64495 42.8361C4.62835 43.6284 4.63333 45.087 4.66155 47.2149C4.67317 48.107 5.41019 48.0522 6.05758 48.2133C6.0941 48.2233 6.10738 48.2465 6.09742 48.2831C6.09244 48.2997 6.08248 48.313 6.06588 48.3246C6.04928 48.3362 6.03434 48.3412 6.02272 48.3412C4.01583 48.3479 2.02387 48.3495 0.0435419 48.3479C0.0219624 48.3479 0.00370357 48.3279 0.00536353 48.3063C0.00536353 48.2947 0.0103437 48.2847 0.0186435 48.2781L0.116581 48.1984C0.12986 48.1867 0.148119 48.1801 0.168039 48.1801C0.744045 48.1801 1.1524 48.0588 1.38977 47.813C1.55079 47.6485 1.63046 47.2781 1.63046 46.7049C1.63378 43.5736 1.63378 40.4423 1.63046 37.311C1.6288 36.6282 1.32171 36.3425 0.690925 36.2395C0.526589 36.2129 0.304156 36.178 0.0236232 36.1332C0.00868355 36.1315 0.00204381 36.1232 0.000383849 36.1099V36.0534C-0.00293607 36.0152 0.0153222 35.9953 0.0535013 35.9953C3.53278 36.0003 5.59777 36.0019 6.24847 36.0019C7.57312 36.0019 9.02725 36.1548 10.0946 36.9538C10.6357 37.3591 10.9279 37.8841 10.9711 38.5286ZM4.64329 36.4754V41.7712C4.64329 41.9257 4.76779 42.0503 4.92216 42.0503H5.31059C6.64686 42.0503 7.73082 40.9074 7.73082 39.4971V38.7495C7.73082 37.3392 6.64686 36.1963 5.31059 36.1963H4.92216C4.76779 36.1963 4.64329 36.3209 4.64329 36.4754Z" fill="#F0D8B9"/>
<path d="M13.2118 43.6334C13.2715 43.0038 13.4591 42.3925 13.7761 41.7961C14.724 40.3426 16.1167 39.6615 17.9543 39.7562C20.8343 39.904 22.4793 42.0669 22.1208 44.8909C22.0328 45.5736 21.822 46.1783 21.4883 46.7032C20.7828 47.8096 19.7022 48.4359 18.2497 48.582C15.1904 48.891 12.8582 46.7713 13.2118 43.6334ZM16.0984 44.1882C16.0951 45.2364 16.125 46.5737 16.5333 47.5587C16.7657 48.1186 17.1492 48.3976 17.682 48.3993C18.2149 48.401 18.6 48.1219 18.8357 47.5637C19.2474 46.582 19.2839 45.2447 19.2872 44.1948C19.2872 43.1466 19.259 41.8094 18.8506 40.8243C18.6182 40.2645 18.2348 39.9854 17.7019 39.9837C17.1691 39.9837 16.784 40.2612 16.5499 40.8193C16.1366 41.8027 16.1001 43.14 16.0984 44.1882Z" fill="#F0D8B9"/>
<path d="M37.7777 48.5621C37.0257 48.5338 36.4397 48.2066 36.0181 47.577C35.9683 47.5039 35.8687 47.484 35.794 47.5338C35.7874 47.5388 35.7807 47.5438 35.7757 47.5488C35.0238 48.2465 34.2785 48.7132 33.143 48.6053C32.1587 48.5189 31.508 48.0322 31.1943 47.1467C30.9303 45.8926 31.3154 44.9872 32.3512 44.4307C33.3024 44.0968 34.2585 43.7912 35.223 43.5171C35.4404 43.4556 35.6313 43.3476 35.7957 43.1931C35.8372 43.1549 35.8587 43.1068 35.8604 43.0503C35.8853 41.9788 35.8654 41.2711 35.7973 40.9273C35.623 40.0319 35.0835 39.7462 34.1805 40.0734C33.9465 40.1582 33.8701 40.3193 33.9548 40.5535C34.0544 40.8293 34.1473 41.1598 34.2353 41.5436C34.3283 41.9472 34.2237 42.2778 33.9232 42.5386C33.1796 43.1782 31.7337 43.1151 31.5428 41.914C31.4598 41.3924 31.6524 40.9688 32.1189 40.6449C33.241 39.8641 34.6304 39.6299 35.955 39.8043C37.107 39.9571 37.9603 40.1947 38.3454 41.3243C38.4582 41.6549 38.5114 42.0619 38.5047 42.5453C38.4815 44.0503 38.4533 45.4623 38.4217 46.7796C38.4151 47.0703 38.5728 47.5687 38.9048 47.6385C39.1488 47.69 39.333 47.6551 39.4609 47.5355C39.7314 47.278 39.8841 47.0271 39.9157 46.7813C39.9671 46.3843 40.0103 46.1683 40.0485 46.1301C40.0983 46.0819 40.1315 46.0869 40.1464 46.1484C40.2012 46.3693 40.1829 46.6451 40.0916 46.9756C39.7746 48.1268 39.0027 48.6568 37.7777 48.5621ZM35.8853 43.7297C35.8836 43.645 35.8123 43.5769 35.7259 43.5802C35.7093 43.5802 35.6944 43.5835 35.6795 43.5885C35.0636 43.8094 34.2204 44.2962 34.0129 44.9507C33.8153 45.5769 33.6311 47.4375 34.5773 47.6202C34.979 47.6983 35.3143 47.6202 35.5832 47.386C35.7442 47.2448 35.8305 47.0105 35.8421 46.6849C35.887 45.3577 35.9002 44.3726 35.8853 43.7297Z" fill="#F0D8B9"/>
<path d="M30.2544 40.7396L28.6891 44.7763L26.5544 50.0921L26.3685 50.4343C25.8406 51.4177 25.1932 52.2865 24.0113 52.4227C22.9838 52.5423 21.8849 51.8978 22.1024 50.7532C22.3182 49.6203 23.3739 49.298 24.335 49.9475C24.7998 50.2632 24.6089 51.3662 24.491 51.8014C24.4711 51.8745 24.5159 51.9509 24.5873 51.9692C24.6172 51.9775 24.6487 51.9742 24.6786 51.9625C25.6281 51.5439 26.2423 50.22 26.654 49.2648C26.7901 48.9492 26.8432 48.783 26.6872 48.4574C24.5027 43.8859 23.3407 41.4522 23.2013 41.1566C22.9805 40.6931 22.7083 40.3791 22.3829 40.2163C22.0974 40.0751 22.114 40.0037 22.4327 40.0037L25.6829 40.0004L26.4764 40.0087C26.5079 40.0087 26.5262 40.0236 26.5311 40.0552C26.5328 40.0685 26.5311 40.0834 26.5262 40.0984C26.5228 40.1083 26.5129 40.1166 26.4979 40.1216L25.9701 40.316C25.8472 40.3608 25.7808 40.4871 25.8207 40.5984C25.8207 40.6034 25.824 40.6067 25.8257 40.6117L27.1935 43.7131L27.9388 45.3062C27.9703 45.371 28.0483 45.3976 28.1114 45.366C28.1396 45.3527 28.1612 45.3294 28.1745 45.2995L28.553 44.3759C28.9231 43.3942 29.2784 42.4157 29.6187 41.4373C29.6867 41.2429 29.7415 41.0153 29.783 40.7579C29.8112 40.5818 29.695 40.414 29.5191 40.3808C29.202 40.321 28.8816 40.1997 28.5596 40.0153H31.0379C31.0695 40.0153 31.096 40.0419 31.096 40.0735C31.096 40.0751 31.096 40.0768 31.096 40.0784C31.096 40.0917 31.091 40.1067 31.0861 40.1216C31.0794 40.1399 31.0628 40.1549 31.0429 40.1598C30.6877 40.2579 30.4254 40.4522 30.2544 40.7396Z" fill="#F0D8B9"/>
<path d="M261.489 48.3886L261.339 48.4073C261.619 47.1571 261.638 45.9257 261.638 44.6756V36.3538L262.795 34.5999H263V43.1269C263 45.8137 262.086 47.2691 261.489 48.3886Z" fill="#F0D8B9"/>
<path d="M259.591 37.492L258.471 38.966V44.8435C258.471 46.7653 257.594 48.3886 255.355 48.3886L254.422 47.8848V46.1123L255.355 45.5898C256.642 45.5712 257.128 45.4032 257.128 45.0301V36.6523C257.072 36.2978 257.128 35.906 257.426 35.4022L257.986 34.5253H258.21C258.266 35.6634 258.937 37.0815 259.591 37.492Z" fill="#F0D8B9"/>
<path d="M252.072 46.1123L253.004 45.5898H255.467V48.3886H253.004L252.072 47.8849V46.1123Z" fill="#F0D8B9"/>
<path d="M249.721 46.1123L250.654 45.5898H253.117V48.3886H250.654L249.721 47.8849V46.1123Z" fill="#F0D8B9"/>
<path d="M247.371 46.1123L248.304 45.5898H250.766V48.3886H248.304L247.371 47.8849V46.1123Z" fill="#F0D8B9"/>
<path d="M245.02 46.1123L245.953 45.5898H248.416V48.3886H245.953L245.02 47.8849V46.1123Z" fill="#F0D8B9"/>
<path d="M242.669 46.1123L243.602 45.5898H246.065V48.3886H243.602L242.669 47.8849V46.1123Z" fill="#F0D8B9"/>
<path d="M243.618 45.5899V48.4073C243.394 48.4073 242.349 48.4073 241.547 47.8102C241.323 50.4411 239.663 52.7361 238.189 52.7361C236.994 52.7361 235.278 51.5046 234.793 51.1501V50.9076C235.091 50.9449 235.39 50.9635 235.688 50.9635C238.674 50.9635 241.062 49.4522 241.062 47.7543C241.062 46.6907 240.054 45.8138 239.308 44.8808L240.353 42.7911H240.558C240.726 43.1456 240.875 43.4814 241.006 43.7613C241.659 45.0861 242.144 45.5899 243.618 45.5899Z" fill="#F0D8B9"/>
<path d="M238.728 37.7172L238.933 36.8776L242.609 36.0006L242.404 36.8402L238.728 37.7172ZM240.015 41.1131V41.1317C239.493 41.1317 239.157 40.5906 239.157 39.8443C239.157 39.4524 239.213 39.0606 239.288 38.8181L239.437 38.7807C239.381 38.986 239.362 39.1539 239.362 39.3218C239.362 39.807 239.605 40.0309 240.127 40.0309C240.929 40.0309 240.967 39.2472 240.799 38.4635L241.023 38.4076C241.116 39.3965 241.247 39.7323 241.918 39.7323C242.366 39.7323 242.59 39.5644 242.59 39.1726C242.59 38.8927 242.515 38.5382 242.348 38.0904L242.553 38.0344C242.739 38.5755 242.795 38.9114 242.795 39.2472C242.795 40.2361 242.534 40.8518 241.918 40.8518C241.527 40.8518 241.172 40.5906 241.004 39.8443C241.023 40.6093 240.594 41.1131 240.015 41.1131Z" fill="#F0D8B9"/>
<path d="M234.849 48.3886L234.7 48.4073C234.98 47.1571 234.998 45.9257 234.998 44.6756V36.3538L236.155 34.5999H236.36V43.1269C236.36 45.8137 235.446 47.2691 234.849 48.3886Z" fill="#F0D8B9"/>
<path d="M233.885 43.1456L234.091 43.6307L233.195 45.6645C228.68 45.7018 227.803 48.3886 223.213 48.3886L222.28 47.8849V46.1123L223.213 45.5898H223.231C223.287 44.3957 223.679 41.8768 225.377 41.2051C225.769 41.0371 226.198 40.9998 226.646 41.0371C228.344 41.2051 229.463 42.0261 231.385 42.5858C232.841 43.0336 233.419 43.0896 233.885 43.1456ZM226.123 43.3508C224.537 43.3322 223.605 44.6756 223.455 45.5898C225.937 45.5525 228.139 45.1234 230.247 44.5076C228.754 44.0972 227.486 43.4814 226.347 43.3695C226.273 43.3695 226.198 43.3695 226.123 43.3508Z" fill="#F0D8B9"/>
<path d="M226.683 40.0581L226.889 39.2185L230.564 38.3416L230.359 39.1812L226.683 40.0581Z" fill="#F0D8B9"/>
<path d="M219.838 37.38L218.42 36.1112L217.394 37.268L215.92 35.9433L217.058 34.6745L218.457 35.9433L219.502 34.7865L220.976 36.1112L219.838 37.38ZM221.256 37.9584V44.1344C221.256 45.3286 222.208 45.5898 223.215 45.5898V48.3886C220.659 48.3886 220.174 46.7093 220.118 44.8248C219.801 45.8323 219.129 46.7466 217.543 46.7466C216.237 46.7466 215.043 46.0003 215.043 44.1531C215.043 42.2312 216.405 41.2237 220.136 39.8616V39.2832L221.032 37.9584H221.256ZM215.584 43.5187C215.584 44.3583 220.118 44.4329 220.136 43.6493V41.4662C217.356 42.2872 215.584 43.2388 215.584 43.5187Z" fill="#F0D8B9"/>
<path d="M216.962 30.7051C216.962 28.4101 219.183 28.3168 219.183 30.7424C219.183 32.4964 217.597 34.045 216.309 33.3546L215.488 32.8322V32.7762C217.466 32.7203 218.754 32.0672 218.978 31.3768C217.858 32.3471 216.962 31.6007 216.962 30.7051ZM217.093 30.5372C217.093 31.097 218.269 31.3022 219.015 30.7238C218.828 29.5856 217.093 29.6416 217.093 30.5372Z" fill="#F0D8B9"/>
<path d="M208.61 48.3886L208.461 48.4073C208.741 47.1571 208.759 45.9257 208.759 44.6756V36.3538L209.916 34.5999H210.121V43.1269C210.121 45.8137 209.207 47.2691 208.61 48.3886Z" fill="#F0D8B9"/>
<path d="M206.712 37.492L205.593 38.966V44.8435C205.593 46.7653 204.716 48.3886 202.477 48.3886L201.544 47.8848V46.1123L202.477 45.5898C203.764 45.5712 204.25 45.4032 204.25 45.0301V36.6523C204.194 36.2978 204.25 35.906 204.548 35.4022L205.108 34.5253H205.332C205.388 35.6634 206.059 37.0815 206.712 37.492Z" fill="#F0D8B9"/>
<path d="M199.193 46.1123L200.126 45.5898H202.589V48.3886H200.126L199.193 47.8849V46.1123Z" fill="#F0D8B9"/>
<path d="M196.843 46.1123L197.776 45.5898H200.239V48.3886H197.776L196.843 47.8849V46.1123Z" fill="#F0D8B9"/>
<path d="M194.492 46.1123L195.425 45.5898H197.888V48.3886H195.425L194.492 47.8849V46.1123Z" fill="#F0D8B9"/>
<path d="M192.142 46.1123L193.075 45.5898H195.538V48.3886H193.075L192.142 47.8849V46.1123Z" fill="#F0D8B9"/>
<path d="M190.63 44.0039H190.612C190.798 45.5898 192.552 45.5898 193.056 45.5898V48.3886C191.433 48.3886 190.556 47.9035 190.07 47.1572C189.679 47.8848 189.1 48.3886 188.354 48.3886C186.563 48.3886 185.126 47.1012 184.883 46.1683C184.38 47.493 183.671 48.3886 182.234 48.3886L181.301 47.8848V46.1123L182.234 45.5898C183.764 45.5898 184.473 45.2353 185.126 44.2278C186.339 42.2686 187.384 41.261 188.522 41.261C189.828 41.261 190.5 42.5298 190.63 44.0039ZM185.667 44.5263C186.88 45.5898 190.201 46.2615 190.164 45.6645C190.014 44.3584 189.119 43.5374 188.018 43.5374C187.29 43.5374 186.432 43.8732 185.667 44.5263Z" fill="#F0D8B9"/>
<path d="M185.449 40.0581L185.654 39.2185L189.33 38.3416L189.125 39.1812L185.449 40.0581Z" fill="#F0D8B9"/>
<path d="M180.769 38.2757V43.7053C180.769 44.8808 180.638 45.5712 182.206 45.5898V48.3886C180.955 48.3886 180.414 47.6236 180.079 46.784C179.817 47.5676 179.127 48.3886 177.933 48.3886L177 47.8848V46.1123L177.933 45.5898C178.437 45.5898 179.37 45.6271 179.37 44.6009V39.6191V36.3911L180.526 34.5999H180.769V38.2757Z" fill="#F0D8B9"/>
<path d="M177.996 34.3722L178.202 33.5325L181.877 32.6556L181.672 33.4952L177.996 34.3722Z" fill="#F0D8B9"/>
<path d="M174.437 43.5934C175.519 44.9181 176.526 45.5898 177.907 45.5898V48.3886C176.582 48.3886 174.941 47.4744 173.858 45.8138C173.56 47.6236 172.31 48.3886 170.444 48.3886L169.511 47.8849V46.1123L170.444 45.5898C172.086 45.5898 173.019 45.2727 173.019 44.7875C173.019 44.1905 172.123 42.9403 170.257 40.9252L171.302 38.1637L177.553 35.4396L177.59 35.4769L177.329 37.5667L171.451 39.9923C172.72 41.373 173.784 42.7911 174.437 43.5934Z" fill="#F0D8B9"/>
<path d="M171.546 52.2622L171.751 51.4226L175.427 50.5456L175.222 51.3853L171.546 52.2622Z" fill="#F0D8B9"/>
<path d="M168.188 44.5263C168.374 45.1793 169.12 45.5898 170.427 45.5898V48.3886C169.214 48.3886 168.076 47.6796 167.665 46.4854C167.292 47.6049 166.266 48.3886 164.941 48.3886L163.989 47.8662V46.1123L164.941 45.5898C166.881 45.5898 167.814 44.9927 168.001 42.8657H168.3C168.281 43.4441 168.244 43.8919 168.188 44.5263ZM165.557 49.3589L166.956 50.6276L168.001 49.4708L169.475 50.7956L168.337 52.0643L166.919 50.7956L165.893 51.9524L164.419 50.6276L165.557 49.3589Z" fill="#F0D8B9"/>
<path d="M165.934 37.7172L166.139 36.8776L169.815 36.0006L169.609 36.8402L165.934 37.7172ZM167.221 41.1131V41.1317C166.699 41.1317 166.363 40.5906 166.363 39.8443C166.363 39.4524 166.419 39.0606 166.493 38.8181L166.643 38.7807C166.587 38.986 166.568 39.1539 166.568 39.3218C166.568 39.807 166.811 40.0309 167.333 40.0309C168.135 40.0309 168.173 39.2472 168.005 38.4635L168.229 38.4076C168.322 39.3965 168.453 39.7323 169.124 39.7323C169.572 39.7323 169.796 39.5644 169.796 39.1726C169.796 38.8927 169.721 38.5382 169.553 38.0904L169.759 38.0344C169.945 38.5755 170.001 38.9114 170.001 39.2472C170.001 40.2361 169.74 40.8518 169.124 40.8518C168.733 40.8518 168.378 40.5906 168.21 39.8443C168.229 40.6093 167.8 41.1131 167.221 41.1131Z" fill="#F0D8B9"/>
<path d="M161.566 37.38L160.148 36.1112L159.122 37.268L157.648 35.9433L158.786 34.6745L160.186 35.9433L161.23 34.7865L162.704 36.1112L161.566 37.38ZM162.984 37.9584V44.1344C162.984 45.3286 163.936 45.5898 164.943 45.5898V48.3886C162.387 48.3886 161.902 46.7093 161.846 44.8248C161.529 45.8323 160.857 46.7466 159.271 46.7466C157.965 46.7466 156.771 46.0003 156.771 44.1531C156.771 42.2312 158.133 41.2237 161.865 39.8616V39.2832L162.76 37.9584H162.984ZM157.312 43.5187C157.312 44.3583 161.846 44.4329 161.865 43.6493V41.4662C159.085 42.2872 157.312 43.2388 157.312 43.5187Z" fill="#F0D8B9"/>
<path d="M158.691 30.7051C158.691 28.4101 160.911 28.3168 160.911 30.7424C160.911 32.4964 159.325 34.045 158.038 33.3546L157.217 32.8322V32.7762C159.195 32.7203 160.482 32.0672 160.706 31.3768C159.586 32.3471 158.691 31.6007 158.691 30.7051ZM158.821 30.5372C158.821 31.097 159.997 31.3022 160.743 30.7238C160.557 29.5856 158.821 29.6416 158.821 30.5372Z" fill="#F0D8B9"/>
</svg>
