<svg width="232" height="21" viewBox="0 0 232 21" fill="none" xmlns="http://www.w3.org/2000/svg">
<path d="M0.463722 1.34919H4.03402C5.91686 1.34919 7.3734 1.74885 8.40364 2.54817C9.45164 3.32973 9.97563 4.43102 9.97563 5.85203C9.97563 6.95331 9.64703 7.86809 8.98981 8.59636C8.35035 9.32463 7.41781 9.81311 6.19219 10.0618V10.2216C7.36452 10.4526 8.32371 11.0032 9.06974 11.8736C9.81577 12.7439 10.3753 13.8186 10.7483 15.0975C11.0858 16.2698 11.4144 17.1846 11.7341 17.8418C12.0716 18.4813 12.4358 18.9431 12.8265 19.2273C13.2351 19.5115 13.7147 19.7158 14.2653 19.8401V20H13.1729C12.3914 20 11.743 19.8579 11.2279 19.5737C10.7305 19.2895 10.3042 18.8099 9.94899 18.1349C9.59374 17.4599 9.25625 16.5274 8.93652 15.3373C8.4214 13.5077 7.73754 12.2111 6.88493 11.4473C6.03232 10.6835 4.9932 10.3016 3.76758 10.3016H3.60772V9.82199H3.76758C6.62737 9.82199 8.05727 8.50755 8.05727 5.87867C8.05727 3.28532 6.71618 1.98865 4.03402 1.98865H2.27551V20H0.463722V1.34919ZM15.1731 10.6746C15.1731 9.30687 15.4129 8.03684 15.8925 6.8645C16.3898 5.6744 17.0737 4.64417 17.9441 3.7738C18.8322 2.88566 19.8624 2.2018 21.0348 1.72221C22.2249 1.22485 23.5038 0.976174 24.8715 0.976174C26.2392 0.976174 27.5093 1.22485 28.6816 1.72221C29.8717 2.2018 30.9019 2.88566 31.7723 3.7738C32.6604 4.64417 33.3443 5.6744 33.8239 6.8645C34.3213 8.03684 34.5699 9.30687 34.5699 10.6746C34.5699 12.0423 34.3213 13.3212 33.8239 14.5113C33.3443 15.6837 32.6604 16.7139 31.7723 17.602C30.9019 18.4724 29.8717 19.1563 28.6816 19.6536C27.5093 20.1332 26.2392 20.373 24.8715 20.373C23.5038 20.373 22.2249 20.1332 21.0348 19.6536C19.8624 19.1563 18.8322 18.4724 17.9441 17.602C17.0737 16.7139 16.3898 15.6837 15.8925 14.5113C15.4129 13.3212 15.1731 12.0423 15.1731 10.6746ZM17.198 10.6746C17.198 12.4864 17.5178 14.0761 18.1572 15.4439C18.7967 16.7938 19.6937 17.8507 20.8483 18.6145C22.0028 19.3605 23.3439 19.7336 24.8715 19.7336C26.3991 19.7336 27.7402 19.3605 28.8948 18.6145C30.0493 17.8507 30.9463 16.785 31.5858 15.4172C32.2253 14.0495 32.545 12.4686 32.545 10.6746C32.545 8.88056 32.2253 7.30857 31.5858 5.95861C30.9463 4.59088 30.0493 3.52512 28.8948 2.76132C27.7402 1.99753 26.3991 1.61563 24.8715 1.61563C23.3439 1.61563 22.0028 1.99753 20.8483 2.76132C19.7115 3.50736 18.8144 4.56424 18.1572 5.93196C17.5178 7.28192 17.198 8.8628 17.198 10.6746ZM42.7101 20V12.1134L36.1024 1.34919H38.1273L44.0689 11.1009H44.2288L48.9714 1.34919H50.9964L44.6285 11.7404V20H42.7101ZM50.2668 20L57.434 1.34919H59.086L66.2532 20H64.3082L61.0043 11.2608H54.9561L52.2118 20H50.2668ZM57.6205 2.73468L55.1426 10.6213H60.7645L57.7804 2.73468H57.6205ZM70.0421 1.34919H71.8539V19.4671C72.1913 19.4671 72.7242 19.4138 73.4525 19.3073L77.8754 18.6412V20H70.0421V1.34919ZM88.4389 20V1.34919H94.3006C96.3611 1.34919 98.1551 1.73997 99.6827 2.52153C101.21 3.30308 102.4 4.39549 103.253 5.79874C104.106 7.18423 104.532 8.80951 104.532 10.6746C104.532 12.5397 104.106 14.1738 103.253 15.5771C102.4 16.9626 101.21 18.0461 99.6827 18.8277C98.1551 19.6092 96.3611 20 94.3006 20H88.4389ZM94.3006 1.98865H90.2507V19.3605H94.3006C96.8762 19.3605 98.8834 18.5967 100.322 17.0692C101.779 15.5416 102.507 13.41 102.507 10.6746C102.507 7.93914 101.779 5.80762 100.322 4.28003C98.8834 2.75244 96.8762 1.98865 94.3006 1.98865ZM109.606 20V1.34919H117.733V2.65475L113.07 2.04193C112.253 1.93536 111.702 1.88207 111.418 1.88207V10.0085C111.649 10.0085 112.2 9.98185 113.07 9.92856L117.44 9.66212V10.8877L113.07 10.6213C112.2 10.568 111.649 10.5414 111.418 10.5414V19.4671C111.738 19.4671 112.297 19.4138 113.097 19.3073L117.813 18.6944V20H109.606ZM147.071 1.34919V20H145.259V2.89454H145.099L138.651 15.2574H137.825L130.498 4.35996H130.338L130.924 20H129.113L129.779 0.976174H130.312L138.705 13.4456H138.864L145.152 1.34919H147.071ZM150.693 20L157.86 1.34919H159.512L166.679 20H164.734L161.43 11.2608H155.382L152.638 20H150.693ZM158.047 2.73468L155.569 10.6213H161.191L158.206 2.73468H158.047ZM170.468 20V1.34919H172.28V20H170.468ZM177.053 19.4138L177.212 17.8152H177.372C178.065 18.4191 178.847 18.8898 179.717 19.2273C180.587 19.5648 181.449 19.7336 182.301 19.7336C183.509 19.7336 184.486 19.405 185.232 18.7477C185.978 18.0727 186.351 17.1757 186.351 16.0567C186.351 15.435 186.209 14.8577 185.925 14.3248C185.659 13.7919 185.206 13.2502 184.566 12.6995C183.944 12.1489 183.083 11.5538 181.982 10.9144C181.218 10.4703 180.49 10.0085 179.797 9.5289C179.104 9.03155 178.536 8.46314 178.092 7.82369C177.648 7.16647 177.426 6.38491 177.426 5.47901C177.426 4.12905 177.914 3.04553 178.891 2.22844C179.868 1.3936 181.156 0.976174 182.754 0.976174C183.465 0.976174 184.229 1.05611 185.046 1.21597C185.863 1.35807 186.493 1.54458 186.937 1.7755L186.804 3.26756H186.644C185.632 2.16627 184.335 1.61563 182.754 1.61563C181.618 1.61563 180.703 1.90871 180.01 2.49488C179.317 3.06329 178.971 3.83597 178.971 4.81291C178.971 5.54118 179.157 6.17176 179.53 6.70464C179.921 7.21975 180.419 7.69047 181.022 8.11677C181.626 8.52531 182.275 8.92497 182.968 9.31575C183.767 9.77758 184.54 10.2661 185.286 10.7812C186.049 11.2963 186.671 11.918 187.151 12.6463C187.648 13.3568 187.897 14.2538 187.897 15.3373C187.897 16.332 187.666 17.2113 187.204 17.9751C186.742 18.7211 186.085 19.3073 185.232 19.7336C184.397 20.1599 183.42 20.373 182.301 20.373C181.591 20.373 180.756 20.2842 179.797 20.1066C178.838 19.9289 177.923 19.698 177.053 19.4138ZM191.28 10.6746C191.28 9.30687 191.519 8.03684 191.999 6.8645C192.496 5.6744 193.18 4.64417 194.051 3.7738C194.939 2.88566 195.969 2.2018 197.141 1.72221C198.331 1.22485 199.61 0.976174 200.978 0.976174C202.346 0.976174 203.616 1.22485 204.788 1.72221C205.978 2.2018 207.008 2.88566 207.879 3.7738C208.767 4.64417 209.451 5.6744 209.93 6.8645C210.428 8.03684 210.676 9.30687 210.676 10.6746C210.676 12.0423 210.428 13.3212 209.93 14.5113C209.451 15.6837 208.767 16.7139 207.879 17.602C207.008 18.4724 205.978 19.1563 204.788 19.6536C203.616 20.1332 202.346 20.373 200.978 20.373C199.61 20.373 198.331 20.1332 197.141 19.6536C195.969 19.1563 194.939 18.4724 194.051 17.602C193.18 16.7139 192.496 15.6837 191.999 14.5113C191.519 13.3212 191.28 12.0423 191.28 10.6746ZM193.305 10.6746C193.305 12.4864 193.624 14.0761 194.264 15.4439C194.903 16.7938 195.8 17.8507 196.955 18.6145C198.109 19.3605 199.45 19.7336 200.978 19.7336C202.506 19.7336 203.847 19.3605 205.001 18.6145C206.156 17.8507 207.053 16.785 207.692 15.4172C208.332 14.0495 208.652 12.4686 208.652 10.6746C208.652 8.88056 208.332 7.30857 207.692 5.95861C207.053 4.59088 206.156 3.52512 205.001 2.76132C203.847 1.99753 202.506 1.61563 200.978 1.61563C199.45 1.61563 198.109 1.99753 196.955 2.76132C195.818 3.50736 194.921 4.56424 194.264 5.93196C193.624 7.28192 193.305 8.8628 193.305 10.6746ZM215.331 20L215.997 0.976174H216.317L229.719 17.1757H229.879L229.292 1.34919H231.104L230.438 20.373H230.118L216.717 4.17346H216.557L217.143 20H215.331Z" fill="black"/>
</svg>
