<svg width="194" height="120" viewBox="0 0 194 120" fill="none" xmlns="http://www.w3.org/2000/svg">
<mask id="mask0_178_1028" style="mask-type:luminance" maskUnits="userSpaceOnUse" x="0" y="0" width="194" height="120">
<path d="M193.132 0H0.5V120H193.132V0Z" fill="white"/>
</mask>
<g mask="url(#mask0_178_1028)">
<path d="M47.342 110.316L49.4473 114.316H45.2368L47.342 110.316ZM47.0262 109.052L42.3947 117.368H43.7631L44.921 115.158H50.0789L51.2368 117.368H53.1315L48.4999 109.052H47.0262Z" fill="#0A0A0A"/>
<path d="M56.1837 109.052V117.368H62.9205V116.316H57.8679V109.052H56.1837Z" fill="#0A0A0A"/>
<path d="M64.9214 115.895L65.7635 114.947C66.7109 115.684 68.5003 116.631 70.5003 116.631C72.5003 116.631 74.0793 116.21 74.0793 114.526C74.0793 113.052 72.1846 112.842 70.6056 112.737C68.3951 112.631 65.6582 112 65.6582 109.789C65.6582 107.368 67.974 106.526 70.0793 106.526C72.3951 106.526 74.0793 107.158 75.1319 108L74.3951 108.947C73.3424 108.21 71.6582 107.684 69.974 107.684C68.7109 107.684 67.2372 108 67.2372 109.473C67.2372 110.947 69.553 111.052 70.8161 111.158C73.0267 111.263 75.6582 111.789 75.6582 114.316C75.6582 116.842 73.0267 117.684 70.5003 117.684C67.8688 117.684 66.0793 116.737 64.9214 115.895Z" fill="#0A0A0A"/>
<path d="M79.6581 109.052H81.3423V112.526H86.5002V109.052H88.0791V117.368H86.5002V113.473H81.3423V117.368H79.6581V109.052Z" fill="#0A0A0A"/>
<path d="M99.8685 117.368L98.7106 115.158H93.5528L92.3949 117.368H91.0264L95.658 109.052H97.237L101.869 117.368H99.8685ZM96.0791 110.316L93.9738 114.316H98.1843L96.0791 110.316Z" fill="#0A0A0A"/>
<path d="M104.921 109.052H106.606V112.526H111.658V109.052H113.342V117.368H111.658V113.473H106.606V117.368H104.921V109.052Z" fill="#0A0A0A"/>
<path d="M118.289 109.052H125.868V110H119.973V112.526H123.342V113.579H119.973V116.316H126.184V117.368H118.289V109.052Z" fill="#0A0A0A"/>
<path d="M129.868 109.052H137.447V110H131.552V112.526H134.921V113.579H131.552V116.316H137.763V117.368H129.868V109.052Z" fill="#0A0A0A"/>
<path d="M141.447 109.052H146.289C148.078 109.052 148.921 109.263 149.657 109.894C150.078 110.316 150.289 110.842 150.289 111.473C150.289 112.526 149.447 113.579 147.763 113.684L150.394 117.368H148.394L145.973 113.789H143.131V117.368H141.447V109.052ZM146.815 112.842C147.868 112.842 148.605 112.421 148.605 111.368C148.605 110.21 147.657 109.894 146.394 109.894H143.131V112.737H146.815V112.842Z" fill="#0A0A0A"/>
<path d="M161.448 117.368L160.29 115.158H155.132L153.974 117.368H152.605L157.237 109.052H158.816L163.448 117.368H161.448ZM157.553 110.316L155.448 114.316H159.658L157.553 110.316Z" fill="#0A0A0A"/>
<path d="M166.289 112C164.605 112 163.342 110.842 163.342 109.263C163.342 107.789 164.605 106.526 166.289 106.526C167.974 106.526 169.237 107.789 169.237 109.263C169.237 110.842 167.974 112 166.289 112ZM166.289 106.947C164.921 106.947 163.763 108 163.763 109.263C163.763 110.526 164.816 111.579 166.289 111.579C167.658 111.579 168.816 110.526 168.816 109.263C168.816 108 167.658 106.947 166.289 106.947ZM167.237 110.526L166.5 109.368H165.552V110.526H165.026V107.789H166.5C167.131 107.789 167.342 107.789 167.552 108.105C167.658 108.21 167.763 108.421 167.763 108.631C167.763 108.947 167.552 109.368 167.026 109.368L167.868 110.526H167.237ZM165.552 108.21V109.052H166.71C167.026 109.052 167.237 108.947 167.237 108.631C167.237 108.316 166.921 108.21 166.605 108.21H165.552Z" fill="#0A0A0A"/>
<path d="M13.5521 29.158L19.9731 35.2633L27.7626 27.158L19.6573 19.3685L13.5521 25.7896L7.13102 19.6843L-0.658447 27.6843L7.44681 35.5791L13.5521 29.158Z" fill="#0A0A0A"/>
<path d="M54.6046 86.1052L48.1836 79.8947L40.3941 88L48.4994 95.7895L54.6046 89.4737L61.0257 95.5789L68.8152 87.4737L60.7099 79.6842L54.6046 86.1052Z" fill="#0A0A0A"/>
<path d="M142.184 29.158L148.605 35.2633L156.395 27.158L148.29 19.3685L142.079 25.7896L135.658 19.6843L127.869 27.6843L135.974 35.5791L142.184 29.158Z" fill="#0A0A0A"/>
<path d="M141.789 6.2235L133.979 14.3397L142.095 22.1496L149.905 14.0334L141.789 6.2235Z" fill="#0A0A0A"/>
<path d="M248.289 95.1576C247.342 95.3682 246.395 95.4734 245.447 95.5787C235.868 96.9471 226.289 96.2103 217.447 92.2103C208.184 87.7892 200.921 80.8419 195.658 71.9997C191.658 65.1576 189.131 57.3682 186.71 49.8945C184.816 43.8945 183.131 37.684 181.763 31.5787C180.605 26.2103 179.763 23.7892 178.921 18.4208C178.71 17.0524 176.921 1.57869 176.921 1.47343C176.605 -1.15815 173.131 5.05238 171.974 7.89449C171.342 9.26291 169.974 11.8945 170.184 13.4734C172.079 24.105 176.289 49.684 176.921 55.9997C177.552 62.3155 177.868 70.3155 176.921 70.4208C176.395 70.5261 175.763 68.5261 175.552 68.105C174.816 66.3155 168.816 35.5787 168.395 33.7892C168.289 33.3682 167.658 33.2629 167.237 33.684C165.868 34.8419 164.5 35.9997 163.237 37.2629C162.816 37.7892 162.289 38.2103 161.974 38.8419C161.552 39.5787 161.868 40.5261 161.974 41.2629C162.079 41.684 162.184 42.105 162.184 42.4208C162.395 43.4734 162.605 44.5261 162.816 45.5787C163.342 48.2103 163.868 50.8419 164.395 53.4734C164.921 55.9998 165.447 58.5261 165.974 61.1577C166.289 62.6313 166.5 63.9997 166.816 65.4734C166.816 65.5787 166.816 65.5787 166.816 65.684C168.921 73.9997 166.816 73.3682 165.763 71.5787C164.921 70.105 160.395 47.9998 159.026 42.2103C158.921 41.7892 158.5 41.684 158.079 42.105C155.868 44.4208 153.447 45.8945 153.237 47.3682C153.026 48.3155 153.552 49.684 153.763 50.6313C154.605 54.6313 155.658 58.6313 156.71 62.6313C157.237 64.6313 157.868 66.6313 158.395 68.6313C158.921 70.5261 159.552 72.3155 159.658 74.3156C159.658 74.7366 159.131 75.8945 158.395 74.9471C157.658 74.105 152.921 57.0524 151.552 52.105C151.447 51.5787 151.026 51.1576 150.605 50.8419C149.763 50.4208 148.921 50.6313 148.395 51.2629C144.605 55.684 124.71 79.8945 97.5525 79.0524C84.2893 78.6313 76.3946 67.1576 75.6577 65.684C76.6051 65.4734 78.7104 65.1576 79.342 65.0524C89.0262 62.4208 98.6051 56.105 102.395 46.4208C107.552 33.3682 99.3419 13.8945 82.9209 18.105C67.1314 22.2103 63.763 40.4208 65.4472 54.3155C64.1841 53.1577 61.9735 51.0524 59.9735 50.2103C52.0788 46.8419 43.5525 53.8945 37.6577 58.5261C30.0788 64.5261 23.1314 71.4734 16.6051 78.5261C14.1841 81.0524 11.8683 83.5787 9.65773 86.2103C-3.28964 101.052 -13.7107 114 -14.7633 116.842C-15.8159 119.684 -12.9738 119.789 -9.71068 115.579C-6.44753 111.368 14.2893 87.1577 32.8156 73.4734C43.5525 66.105 49.2367 62.3155 52.8156 60.9471C54.4998 60.3155 55.6577 60.2103 56.7104 60.5261C59.8683 61.5787 62.1841 64.3155 64.0788 66.8419C64.7104 67.684 65.3419 68.7366 66.4998 68.9471C67.763 69.1576 69.0262 68.105 70.0788 67.4734C70.0788 67.4734 70.1841 67.4734 70.1841 67.3682C70.2893 67.2629 70.3946 67.1576 70.4998 67.0524C70.7104 67.2629 70.8156 67.3682 71.0262 67.684C72.9209 71.0524 73.4472 71.7892 75.1314 73.8945C77.8683 77.0524 84.8156 86.9471 100.184 86.6313C113.974 86.4208 129.974 78.5261 142.71 67.1576C147.763 62.5261 149.026 61.0524 150.816 67.7892C151.974 72.105 154.184 80.2103 155.658 83.8945C156.184 85.3682 157.131 88.105 159.026 88.105C160.5 88.105 162.079 86.6313 162.395 85.2629C163.131 81.8945 163.447 87.1577 167.763 86.4208C172.184 85.684 171.026 81.4734 172.289 81.5787C173.552 81.5787 172.921 84.5261 175.868 83.9997C178.816 83.4734 184.184 77.8945 184.605 65.4734C186.5 71.1576 189.552 76.5261 193.131 81.2629C196.289 85.5787 200.079 89.4734 204.605 92.5261C211.026 96.8419 219.131 98.6313 226.816 99.3682C236.605 100.316 246.5 99.684 255.658 95.8945C256.395 95.5787 259.658 94.2103 258.71 92.9471C258.395 92.5261 256.605 93.0524 256.079 93.1576C254.921 93.3682 253.763 93.684 252.605 93.8945C251.026 94.6313 249.658 94.9471 248.289 95.1576ZM86.4998 45.4734C85.763 47.4734 84.3946 49.0524 82.4999 49.9998C81.2367 50.6313 80.9209 50.4208 80.9209 48.5261C81.2367 46.6313 82.2893 44.8419 84.3946 43.684C84.9209 43.3682 85.5525 43.1576 86.1841 43.5787C86.8156 44.105 86.7104 44.8419 86.4998 45.4734ZM74.7104 55.0524C71.9735 56.105 71.4472 55.8945 71.1314 53.0524C70.2893 45.7892 71.1314 37.2629 76.3946 31.5787C79.342 28.4208 83.6577 26.105 88.0788 26.3155C96.8156 26.8419 100.71 38.9471 96.7104 45.8945C95.6577 47.7892 94.0788 49.2629 92.1841 50.5261C92.1841 49.8945 92.4998 49.3682 92.6051 48.9471C93.763 45.4734 94.3946 41.3682 93.1314 37.8945C91.4472 33.3682 86.6051 31.9997 82.6051 34.4208C81.6577 35.0524 80.7104 35.684 79.9735 36.5261C76.1841 40.7366 74.2893 45.684 74.7104 51.3682C74.8156 52.2103 74.9209 53.0524 75.2367 53.7892C75.6577 54.5261 75.4472 54.7366 74.7104 55.0524Z" fill="#0A0A0A"/>
<path d="M-8.02682 61.3685C-6.76366 60.8421 -5.60577 60.3158 -4.44788 59.6842C-3.07945 59.0527 -1.60577 58.3158 -0.23735 57.6842C-0.132087 57.579 -0.0268202 57.579 0.0784426 57.4737C-0.6584 59.8948 -0.974189 62.6316 -1.5005 65.1579C-1.71103 66.3158 5.3416 67.0527 6.07844 67.1579C9.02581 67.3685 11.9732 67.0527 14.8153 66.3158C21.9732 64.5264 28.8153 59.4737 30.8153 52.1053C31.7626 48.7369 31.3416 45.0527 27.9732 43.2632C24.71 41.4737 20.6047 41.7895 17.0258 42.4211C8.28896 44 0.0784359 48 -7.92156 51.8948C-9.07946 52.4211 -9.39525 53.0527 -9.50051 54.3158C-9.39525 55.1579 -10.0268 62.1053 -8.02682 61.3685ZM5.55212 55.2632C6.60476 54.8421 21.1311 48.7369 21.2363 52.9474C21.2363 54.3158 18.289 55.4737 17.3416 56C15.6574 56.8421 13.7626 57.3685 11.8679 57.6842C8.60476 58.2106 5.23633 57.8948 2.28896 56.6316C3.34159 56.2106 4.39423 55.6842 5.55212 55.2632Z" fill="#0A0A0A"/>
</g>
</svg>
