<?xml version="1.0" encoding="UTF-8"?>
<svg version="1.1" xmlns="http://www.w3.org/2000/svg" width="518" height="482">
<path d="M0 0 C1.0209375 0.50144531 2.041875 1.00289062 3.09375 1.51953125 C9.82566892 5.13684483 15.94633229 9.34188185 22 14 C22.93070312 14.69867188 23.86140625 15.39734375 24.8203125 16.1171875 C25.53960937 16.73851563 26.25890625 17.35984375 27 18 C27 18.66 27 19.32 27 20 C27.66 20 28.32 20 29 20 C29 20.66 29 21.32 29 22 C29.66 22 30.32 22 31 22 C31 22.66 31 23.32 31 24 C31.66 24 32.32 24 33 24 C33 24.66 33 25.32 33 26 C33.66 26 34.32 26 35 26 C36.296875 27.3894043 36.296875 27.3894043 37.75 29.32421875 C38.53890625 30.37319336 38.53890625 30.37319336 39.34375 31.44335938 C40.16359375 32.55420898 40.16359375 32.55420898 41 33.6875 C41.81984375 34.7693457 41.81984375 34.7693457 42.65625 35.87304688 C45.36377687 39.50630904 47.38686114 42.74030521 49 47 C49.66 47 50.32 47 51 47 C52.2265625 48.84375 52.2265625 48.84375 53.625 51.5 C54.15480469 52.50546875 54.68460937 53.5109375 55.23046875 54.546875 C58.54036657 61.00592506 61.8131907 67.47917743 65 74 C65.31114746 74.63486328 65.62229492 75.26972656 65.94287109 75.92382812 C70.17722779 84.61456771 73.79756656 93.40742183 77.08276367 102.49926758 C78.03384218 105.09226655 79.00948918 107.67551524 79.98693848 110.25866699 C83.50884817 119.58116822 86.86468397 128.95805243 90.15942383 138.36303711 C91.06093089 140.93302683 91.9688602 143.50069055 92.87695312 146.06835938 C107.80807766 188.51017095 111.9161006 229.57909221 92.125 271.3125 C86.18332863 282.67518082 77.80240182 291.81942092 69 301 C68.42894531 301.61875 67.85789062 302.2375 67.26953125 302.875 C66 304 66 304 64 304 C64 304.66 64 305.32 64 306 C61.64206374 307.9402274 59.27535025 309.76366714 56.8125 311.5625 C56.08434082 312.10044189 55.35618164 312.63838379 54.60595703 313.19262695 C48.16205048 317.93087636 41.64332064 322.54450371 35 327 C34.38253906 327.41475586 33.76507813 327.82951172 33.12890625 328.25683594 C31.21705269 329.5349312 29.29773478 330.80084536 27.375 332.0625 C26.78251465 332.45719482 26.1900293 332.85188965 25.57958984 333.25854492 C21.34787954 336 21.34787954 336 18 336 C18 336.66 18 337.32 18 338 C16 338.66666667 14 339.33333333 12 340 C12 340.66 12 341.32 12 342 C10.43382386 342.93970568 8.85870794 343.8661769 7.25390625 344.73828125 C1.18654908 348.13473943 -4.60982468 352.02830434 -10.3125 356 C-15.61526552 359.55398114 -21.32493249 362.27076115 -27.05712891 365.04833984 C-29.08322219 366.04076402 -31.09529666 367.05776688 -33.10546875 368.08203125 C-48.61464331 375.97993462 -64.33186807 382.47497799 -82 383 C-82.65194336 383.02046387 -83.30388672 383.04092773 -83.97558594 383.06201172 C-86.23379206 383.12341463 -88.49113862 383.15976044 -90.75 383.1875 C-91.44013184 383.20071289 -92.13026367 383.21392578 -92.84130859 383.22753906 C-105.54006511 383.24489895 -118.09850821 380.55978822 -130.4375 377.8125 C-131.12466095 377.66104523 -131.8118219 377.50959045 -132.51980591 377.35354614 C-167.10187765 369.70037789 -201.05250388 359.41373264 -229 337 C-230.17175781 336.17435547 -230.17175781 336.17435547 -231.3671875 335.33203125 C-231.90601563 334.89246094 -232.44484375 334.45289063 -233 334 C-233 333.34 -233 332.68 -233 332 C-233.66 332 -234.32 332 -235 332 C-235 331.34 -235 330.68 -235 330 C-235.66 330 -236.32 330 -237 330 C-237 329.34 -237 328.68 -237 328 C-237.66 328 -238.32 328 -239 328 C-239 327.34 -239 326.68 -239 326 C-239.66 326 -240.32 326 -241 326 C-242.92091885 323.80932248 -244.72070305 321.6136321 -246.5 319.3125 C-247.24830078 318.37374023 -247.24830078 318.37374023 -248.01171875 317.41601562 C-250.65743968 314.02906725 -252.45540133 311.03912553 -254 307 C-254.66 307 -255.32 307 -256 307 C-258.34441866 303.54310242 -260.1125834 299.72042872 -262 296 C-262.30212402 295.4210498 -262.60424805 294.84209961 -262.91552734 294.24560547 C-283.6923493 254.19221001 -293.55746095 205.56202864 -286 161 C-285.88785156 160.30632324 -285.77570313 159.61264648 -285.66015625 158.89794922 C-281.47788718 133.34609235 -270.02153451 108.73405749 -258 86 C-257.50242187 85.03707031 -257.00484375 84.07414062 -256.4921875 83.08203125 C-250.96575099 72.6180408 -244.35389536 62.8006331 -237.5625 53.125 C-237.13743164 52.51164795 -236.71236328 51.8982959 -236.27441406 51.26635742 C-235.23440428 49.80618201 -234.12324675 48.39715758 -233 47 C-232.34 47 -231.68 47 -231 47 C-230.31795783 45.67446588 -229.65456928 44.33931374 -229 43 C-214.67620482 25.35727667 -189.5278013 12.52661246 -167.22265625 9.92578125 C-166.48753815 9.83989243 -165.75242004 9.7540036 -164.99502563 9.66551208 C-155.87725654 8.67549912 -146.74131768 8.61870949 -137.57861328 8.54370117 C-124.31148677 8.41518206 -111.94306904 6.99655583 -99.3125 2.625 C-98.69133301 2.41294922 -98.07016602 2.20089844 -97.43017578 1.98242188 C-93.65273318 0.66802306 -90.01843449 -0.85657849 -86.375 -2.5 C-59.01348322 -14.00717995 -26.60878003 -13.29074169 0 0 Z " fill="#A06FEF" transform="translate(355,61)"/>
<path d="M0 0 C1.0209375 0.50144531 2.041875 1.00289062 3.09375 1.51953125 C9.82566892 5.13684483 15.94633229 9.34188185 22 14 C22.93070312 14.69867188 23.86140625 15.39734375 24.8203125 16.1171875 C25.53960937 16.73851563 26.25890625 17.35984375 27 18 C27 18.66 27 19.32 27 20 C27.66 20 28.32 20 29 20 C29 20.66 29 21.32 29 22 C29.66 22 30.32 22 31 22 C31 22.66 31 23.32 31 24 C31.66 24 32.32 24 33 24 C33 24.66 33 25.32 33 26 C33.66 26 34.32 26 35 26 C36.296875 27.3894043 36.296875 27.3894043 37.75 29.32421875 C38.53890625 30.37319336 38.53890625 30.37319336 39.34375 31.44335938 C40.16359375 32.55420898 40.16359375 32.55420898 41 33.6875 C41.81984375 34.7693457 41.81984375 34.7693457 42.65625 35.87304688 C45.36377687 39.50630904 47.38686114 42.74030521 49 47 C49.66 47 50.32 47 51 47 C52.2265625 48.84375 52.2265625 48.84375 53.625 51.5 C54.15480469 52.50546875 54.68460937 53.5109375 55.23046875 54.546875 C58.54036657 61.00592506 61.8131907 67.47917743 65 74 C65.31114746 74.63486328 65.62229492 75.26972656 65.94287109 75.92382812 C70.17722779 84.61456771 73.79756656 93.40742183 77.08276367 102.49926758 C78.03384218 105.09226655 79.00948918 107.67551524 79.98693848 110.25866699 C83.50884817 119.58116822 86.86468397 128.95805243 90.15942383 138.36303711 C91.06093089 140.93302683 91.9688602 143.50069055 92.87695312 146.06835938 C107.80807766 188.51017095 111.9161006 229.57909221 92.125 271.3125 C86.18332863 282.67518082 77.80240182 291.81942092 69 301 C68.42894531 301.61875 67.85789062 302.2375 67.26953125 302.875 C66 304 66 304 64 304 C64 304.66 64 305.32 64 306 C61.64206374 307.9402274 59.27535025 309.76366714 56.8125 311.5625 C56.08434082 312.10044189 55.35618164 312.63838379 54.60595703 313.19262695 C48.16205048 317.93087636 41.64332064 322.54450371 35 327 C34.38253906 327.41475586 33.76507813 327.82951172 33.12890625 328.25683594 C31.21705269 329.5349312 29.29773478 330.80084536 27.375 332.0625 C26.78251465 332.45719482 26.1900293 332.85188965 25.57958984 333.25854492 C21.34787954 336 21.34787954 336 18 336 C18 336.66 18 337.32 18 338 C16 338.66666667 14 339.33333333 12 340 C12 340.66 12 341.32 12 342 C10.43382386 342.93970568 8.85870794 343.8661769 7.25390625 344.73828125 C1.18654908 348.13473943 -4.60982468 352.02830434 -10.3125 356 C-15.61526552 359.55398114 -21.32493249 362.27076115 -27.05712891 365.04833984 C-29.08322219 366.04076402 -31.09529666 367.05776688 -33.10546875 368.08203125 C-48.61464331 375.97993462 -64.33186807 382.47497799 -82 383 C-82.65194336 383.02046387 -83.30388672 383.04092773 -83.97558594 383.06201172 C-86.23379206 383.12341463 -88.49113862 383.15976044 -90.75 383.1875 C-91.44013184 383.20071289 -92.13026367 383.21392578 -92.84130859 383.22753906 C-105.54006511 383.24489895 -118.09850821 380.55978822 -130.4375 377.8125 C-131.12466095 377.66104523 -131.8118219 377.50959045 -132.51980591 377.35354614 C-167.10187765 369.70037789 -201.05250388 359.41373264 -229 337 C-230.17175781 336.17435547 -230.17175781 336.17435547 -231.3671875 335.33203125 C-231.90601563 334.89246094 -232.44484375 334.45289063 -233 334 C-233 333.34 -233 332.68 -233 332 C-233.66 332 -234.32 332 -235 332 C-235 331.34 -235 330.68 -235 330 C-235.66 330 -236.32 330 -237 330 C-237 329.34 -237 328.68 -237 328 C-237.66 328 -238.32 328 -239 328 C-239 327.34 -239 326.68 -239 326 C-239.66 326 -240.32 326 -241 326 C-242.92091885 323.80932248 -244.72070305 321.6136321 -246.5 319.3125 C-247.24830078 318.37374023 -247.24830078 318.37374023 -248.01171875 317.41601562 C-250.65743968 314.02906725 -252.45540133 311.03912553 -254 307 C-254.66 307 -255.32 307 -256 307 C-258.34441866 303.54310242 -260.1125834 299.72042872 -262 296 C-262.30212402 295.4210498 -262.60424805 294.84209961 -262.91552734 294.24560547 C-283.6923493 254.19221001 -293.55746095 205.56202864 -286 161 C-285.88785156 160.30632324 -285.77570313 159.61264648 -285.66015625 158.89794922 C-281.47788718 133.34609235 -270.02153451 108.73405749 -258 86 C-257.50242187 85.03707031 -257.00484375 84.07414062 -256.4921875 83.08203125 C-250.96575099 72.6180408 -244.35389536 62.8006331 -237.5625 53.125 C-237.13743164 52.51164795 -236.71236328 51.8982959 -236.27441406 51.26635742 C-235.23440428 49.80618201 -234.12324675 48.39715758 -233 47 C-232.34 47 -231.68 47 -231 47 C-230.31795783 45.67446588 -229.65456928 44.33931374 -229 43 C-214.67620482 25.35727667 -189.5278013 12.52661246 -167.22265625 9.92578125 C-166.48753815 9.83989243 -165.75242004 9.7540036 -164.99502563 9.66551208 C-155.87725654 8.67549912 -146.74131768 8.61870949 -137.57861328 8.54370117 C-124.31148677 8.41518206 -111.94306904 6.99655583 -99.3125 2.625 C-98.69133301 2.41294922 -98.07016602 2.20089844 -97.43017578 1.98242188 C-93.65273318 0.66802306 -90.01843449 -0.85657849 -86.375 -2.5 C-59.01348322 -14.00717995 -26.60878003 -13.29074169 0 0 Z M-77 18 C-80.26476421 19.27110417 -83.53217689 20.53388188 -86.8059082 21.78173828 C-89.05976393 22.64511739 -91.3065135 23.52741212 -93.54370117 24.43310547 C-110.47713111 30.99526968 -127.81412804 31.44776554 -145.74682617 31.43579102 C-172.25171133 31.47376726 -193.57675264 39.62814594 -212.5234375 58.49316406 C-232.31525866 78.69076992 -246.0116384 108.45136439 -255 135 C-255.49297539 136.29436395 -255.99189822 137.58649879 -256.5 138.875 C-262.73904977 155.41739482 -266.22375652 171.59558083 -266.125 189.3125 C-266.12016602 190.23256836 -266.11533203 191.15263672 -266.11035156 192.10058594 C-266.00061492 204.58861558 -264.56482586 215.89536822 -261.50537109 227.96923828 C-260.76430154 230.94712068 -260.10428922 233.9422405 -259.4375 236.9375 C-258.37605506 241.55048234 -257.15839512 246.07514899 -255.75 250.59375 C-254.96403473 253.11538856 -254.23367406 255.65021054 -253.5 258.1875 C-252.27522807 262.27007308 -250.76023678 266.11281045 -249 270 C-248.566875 271.04542969 -248.13375 272.09085937 -247.6875 273.16796875 C-245.85835139 277.44557957 -243.69445761 281.52578216 -241.5 285.625 C-241.10941406 286.36234375 -240.71882813 287.0996875 -240.31640625 287.859375 C-237.0472764 294.00137653 -234.01499228 299.09898482 -229 304 C-227.95003913 305.20113324 -226.90915866 306.41023469 -225.875 307.625 C-213.02933862 322.29391654 -199.79662878 331.26740365 -182 339 C-181.00484375 339.45117188 -180.0096875 339.90234375 -178.984375 340.3671875 C-170.55975449 344.0730998 -161.85671931 346.58245633 -153 349 C-151.99952637 349.27634277 -150.99905273 349.55268555 -149.96826172 349.83740234 C-121.25958714 357.71796152 -92.25593304 365.15971097 -63 356 C-61.74678955 355.69340454 -61.74678955 355.69340454 -60.46826172 355.38061523 C-53.61495742 353.68928192 -47.87457228 351.16677588 -41.75 347.6875 C-40.81687988 347.16768555 -39.88375977 346.64787109 -38.92236328 346.11230469 C-25.09979187 338.3407073 -11.42961777 330.17291095 1.67578125 321.23828125 C5.4615073 318.66566078 9.31476717 316.19755931 13.15820312 313.71240234 C44.59626389 293.72854827 44.59626389 293.72854827 69 266 C69.62261719 265.04351562 70.24523437 264.08703125 70.88671875 263.1015625 C85.07268444 239.16082214 86.65190687 206.45628307 80.47900391 179.74560547 C78.52468824 172.11936614 76.04237251 164.71512266 72.96875 157.46484375 C71.36284665 153.37885579 70.19122603 149.16055704 68.93359375 144.95703125 C68.01251051 141.86982953 68.01251051 141.86982953 66.5 138.5 C65.09723586 135.22688368 64.07453113 132.0351905 63.0625 128.625 C61.63545179 123.85536579 59.99182444 119.38542044 57.83203125 114.90234375 C57 113 57 113 56.51171875 110.75390625 C56.34285156 110.17511719 56.17398437 109.59632813 56 109 C55.34 109 54.68 109 54 109 C53.578125 107.234375 53.578125 107.234375 53.25 104.75 C52.26677298 99.22520056 50.10603573 94.85385168 47.49609375 89.921875 C46.19731011 87.38534716 45.1603984 84.92210805 44.1875 82.25 C39.6396984 70.53139091 32.567604 59.95123257 25 50 C24.12104114 48.71102401 23.24551983 47.41969031 22.375 46.125 C19.87233798 42.83202366 17.23409399 40.56032441 14 38 C12.8553125 36.824375 12.8553125 36.824375 11.6875 35.625 C-5.97223354 18.37595794 -28.40295576 12.64957758 -52.50512695 12.62158203 C-61.42116434 12.77328796 -68.74941435 14.74521246 -77 18 Z " fill="#411689" transform="translate(355,61)"/>
<path d="M0 0 C5.76992389 4.48771858 6.96058323 9.64564377 7.88677979 16.68112183 C7.97312683 17.38576569 8.05947388 18.09040955 8.1484375 18.81640625 C8.29439362 19.95168259 8.29439362 19.95168259 8.44329834 21.1098938 C8.76031366 23.59332742 9.06793415 26.07781809 9.375 28.5625 C9.5947219 30.30381345 9.81461374 32.04510547 10.03466797 33.78637695 C11.63027688 46.5221696 13.03671091 59.27508919 14.37094116 72.04058838 C15.37710431 81.65705737 16.52075802 91.22257903 18.06469727 100.77001953 C18.79771681 105.36688702 19.27362869 109.91067574 19.5625 114.5625 C19.82304814 118.73618618 20.14439774 122.8607919 20.75 127 C20.86859375 127.825 20.9871875 128.65 21.109375 129.5 C22.40936583 133.14909706 23.82568951 135.77998643 27 138 C31.18588657 139.27690524 35.40858724 139.71926539 39.75 140.1875 C41.59984497 140.42146484 41.59984497 140.42146484 43.48706055 140.66015625 C49.70362201 141.43538962 55.93122569 142.10242395 62.16015625 142.76953125 C63.84189941 142.9557605 63.84189941 142.9557605 65.55761719 143.14575195 C67.67497005 143.37619592 69.79416797 143.59045744 71.91503906 143.78588867 C77.92351656 144.42002745 82.03980121 145.48116866 87 149 C88.85580918 152.71161835 88.44301744 156.94863758 88 161 C85.45239285 165.6706131 80.64034152 169.41445023 76 172 C69.98745027 173.75504828 64.24719573 174.43411003 58.015625 174.8671875 C56.09089309 175.03090951 54.16641793 175.1976732 52.2421875 175.3671875 C49.25032046 175.62849875 46.2616785 175.87424359 43.26464844 176.06835938 C28.63872078 176.9067471 28.63872078 176.9067471 16.93359375 184.91015625 C15.23773405 186.90264703 13.62704281 188.94958453 12 191 C2.30373613 199.97862835 -5.22349125 202.6338155 -18.46484375 202.35546875 C-23.09841069 201.88955207 -26.24842386 200.69175588 -30 198 C-30.86625 197.443125 -31.7325 196.88625 -32.625 196.3125 C-41.69570166 187.48050102 -46.06156881 174.07500361 -46.5 161.5 C-46.01588207 153.68687457 -43.35219526 146.4580962 -39 140 C-38.34 140 -37.68 140 -37 140 C-36.98269734 137.92381663 -36.97804964 135.84707121 -37.02151489 133.77127075 C-36.98172079 128.64550794 -36.18066484 123.60026393 -35.49609375 118.52734375 C-35.33748367 117.31450211 -35.1788736 116.10166046 -35.01545715 114.85206604 C-34.58442204 111.56233653 -34.14852429 108.27332806 -33.71003723 104.98458862 C-32.97055475 99.43016889 -32.24069359 93.87447051 -31.51098251 88.31875992 C-31.32339837 86.8909394 -31.1355637 85.46315178 -30.94748306 84.03539658 C-29.65904648 74.2458397 -28.43654807 64.45065362 -27.2843647 54.64413643 C-26.90285172 51.40369202 -26.51540485 48.16395439 -26.12915039 44.92407227 C-25.68940717 41.23342286 -25.2548124 37.54257698 -24.83737183 33.84933472 C-24.45263747 30.44980149 -24.04857472 27.05306337 -23.640625 23.65625 C-23.53353714 22.65904434 -23.42644928 21.66183868 -23.31611633 20.63441467 C-22.28236682 12.28859842 -19.3991387 7.63733647 -13 2 C-8.34153429 -1.03812981 -5.3736287 -1.56323744 0 0 Z " fill="#3E1188" transform="translate(268,91)"/>
<path d="M0 0 C5.94119625 4.15348495 10.47205902 8.75545224 12 16 C13.04059788 25.87715038 9.97669735 33.15515283 3.890625 40.82421875 C-3.90763504 49.79866264 -12.20246375 59.1462147 -24.734375 60.23828125 C-31.55776504 60.40621442 -36.3028243 59.83795752 -42 56 C-42.9075 55.401875 -43.815 54.80375 -44.75 54.1875 C-49.52418446 49.54593178 -51.26185245 45.76638235 -51.625 39.1875 C-51.4309084 32.77439016 -49.15635544 27.86702761 -45 23 C-44.34 23 -43.68 23 -43 23 C-42.63863243 21.67399006 -42.31156761 20.33858676 -42 19 C-40.87890625 16.859375 -40.87890625 16.859375 -39.5625 14.75 C-39.13066406 14.04359375 -38.69882813 13.3371875 -38.25390625 12.609375 C-37.84011719 12.07828125 -37.42632812 11.5471875 -37 11 C-36.34 11 -35.68 11 -35 11 C-34.7525 10.46375 -34.505 9.9275 -34.25 9.375 C-31.60159621 4.3430328 -28.02069049 1.09334636 -22.75 -0.875 C-15.56231475 -2.91654421 -6.91426922 -3.15922521 0 0 Z " fill="#3D0F87" transform="translate(288,331)"/>
<path d="M0 0 C6.95144793 2.44939356 12.42056042 5.73306042 17.625 10.9375 C20.3617842 17.48198396 20.25033278 25.21155156 17.75 31.875 C13.69077928 39.77362804 6.5881633 47.4646953 0.0625 53.375 C-0.5975 53.375 -1.2575 53.375 -1.9375 53.375 C-1.9375 54.035 -1.9375 54.695 -1.9375 55.375 C-6.28496139 58.20986538 -10.93705206 57.89637372 -15.9375 57.375 C-19.57988503 55.98427117 -22.50860945 54.47858237 -24.9375 51.375 C-24.9375 50.715 -24.9375 50.055 -24.9375 49.375 C-25.5975 49.375 -26.2575 49.375 -26.9375 49.375 C-29.2923987 45.80760108 -31.12373124 41.93056467 -33.0625 38.125 C-33.62582031 37.08085937 -34.18914062 36.03671875 -34.76953125 34.9609375 C-38.49222037 27.65977966 -40.05816033 21.57605011 -38.9375 13.375 C-32.21166366 -2.52243134 -14.55335863 -4.14581493 0 0 Z " fill="#3C0E86" transform="translate(391.9375,272.625)"/>
<path d="M0 0 C0.69794678 0.14824219 1.39589355 0.29648438 2.11499023 0.44921875 C7.25631305 1.72319687 10.14786262 3.7156425 13.875 7.3125 C15.39078428 10.34406857 15.12471927 13.19216614 15.1875 16.5625 C15.24357422 18.51929688 15.24357422 18.51929688 15.30078125 20.515625 C14.26618889 29.74153123 6.00792905 34.96532243 -0.734375 40.42578125 C-9.05995969 46.81434407 -18.04598306 52.29662598 -28.875 51.671875 C-35.07548606 50.68151959 -40.39043106 47.76198892 -44.3203125 42.8046875 C-48.36912746 36.26429411 -48.00451283 28.72553673 -47.125 21.3125 C-44.56172729 12.24245812 -37.43919816 4.71650216 -29.5625 -0.25 C-20.5886008 -4.09849037 -9.2337872 -2.03780131 0 0 Z " fill="#3C0E86" transform="translate(163.125,248.6875)"/>
<path d="M0 0 C6.45865273 2.97203045 10.09398955 7.83307857 13.5625 13.875 C16.11771977 22.59280862 14.80567226 28.83121929 10.46875 36.7890625 C6.65299563 42.3995149 1.32534578 46.18620671 -5.375 47.5 C-13.13911014 48.15797544 -19.87431347 47.82017859 -26.28125 43.09375 C-31.77028266 38.16292405 -34.74556152 32.22794129 -35.71875 24.91796875 C-35.97217217 18.04389233 -34.29898186 12.73228952 -30.8125 6.875 C-21.81379015 -1.8929737 -12.001083 -4.04899761 0 0 Z " fill="#DFCDF8" transform="translate(274.375,224.5)"/>
<path d="M0 0 C6.30178039 4.246852 9.30992974 10.62587404 10.875 17.9375 C11.78811491 24.39954397 11.11186086 28.90473643 7.30078125 34.26171875 C5.38551992 36.51280672 3.26387604 38.20556487 0.875 39.9375 C0.194375 40.741875 -0.48625 41.54625 -1.1875 42.375 C-7.70553646 48.0609467 -15.94656665 50.85378141 -24.578125 50.4296875 C-29.73758986 49.432613 -33.40400226 46.71586434 -37 43 C-40.43968448 36.69391179 -41.47363144 29.81610634 -39.54296875 22.83203125 C-35.40734286 13.37107888 -27.28508494 7.64437114 -18.5 2.875 C-17.78368408 2.48062744 -17.06736816 2.08625488 -16.3293457 1.67993164 C-10.70828584 -1.21254644 -6.17311515 -2.09885915 0 0 Z " fill="#3D1087" transform="translate(213.125,135.0625)"/>
<path d="M0 0 C4.91185416 2.43471873 7.95995326 5.57985393 10.375 10.5 C12.84417538 18.90951036 13.67290576 26.6205061 9.375 34.5 C6.4375 37.1875 6.4375 37.1875 3.375 39.5 C2.75625 40.180625 2.1375 40.86125 1.5 41.5625 C-4.25009624 46.8052348 -9.99005564 48.24953432 -17.72265625 47.9375 C-23.26902546 47.10143896 -26.69628229 44.85312992 -30.22265625 40.55078125 C-33.9437516 34.77738261 -34.88656536 29.23439925 -33.625 22.5 C-30.29935127 12.94631818 -24.57575392 5.54400257 -16.125 0 C-10.25921448 -2.51390808 -5.82188303 -2.18809027 0 0 Z " fill="#3D0F88" transform="translate(350.625,118.5)"/>
<path d="M0 0 C0.33 0 0.66 0 1 0 C1.48106892 2.95792374 1.88289466 5.90172896 2.25 8.875 C2.3749585 9.85645996 2.49991699 10.83791992 2.62866211 11.84912109 C3.53327199 19.03589212 4.38674051 26.22866188 5.23828125 33.421875 C5.34693512 34.33885162 5.45558899 35.25582825 5.5675354 36.20059204 C6.11531634 40.82839653 6.65970564 45.45655963 7.19824219 50.08544922 C8.17238005 58.41011292 9.21374371 66.70074552 10.5378418 74.97851562 C11.37437775 80.44759589 11.99613313 85.94133191 12.625 91.4375 C12.7590625 92.56865234 12.893125 93.69980469 13.03125 94.86523438 C13.15757812 95.96029297 13.28390625 97.05535156 13.4140625 98.18359375 C13.5270166 99.15868896 13.6399707 100.13378418 13.75634766 101.13842773 C14.01074091 104.12614649 14.18467941 107.00480036 14 110 C11.9921875 109.8828125 11.9921875 109.8828125 9 109 C6.36342714 108.90642643 3.760207 108.86022314 1.125 108.875 C0.44308594 108.87113281 -0.23882812 108.86726563 -0.94140625 108.86328125 C-1.61816406 108.86457031 -2.29492188 108.86585938 -2.9921875 108.8671875 C-3.98750488 108.8686377 -3.98750488 108.8686377 -5.00292969 108.87011719 C-7.10990009 109.00714754 -8.96625588 109.48689191 -11.0078125 110.0078125 C-11.99523437 110.00523437 -12.98265625 110.00265625 -14 110 C-14.64515146 102.88909458 -13.32782063 95.75408174 -12.390625 88.7109375 C-12.22254333 87.4172525 -12.05446167 86.1235675 -11.88128662 84.79067993 C-11.43361631 81.34601286 -10.97978016 77.90218544 -10.5246582 74.45849609 C-10.07768873 71.06788499 -9.63682108 67.67648192 -9.1953125 64.28515625 C-7.77444953 53.38847485 -6.33591673 42.49418506 -4.87695312 31.60253906 C-4.78566509 30.92045946 -4.69437706 30.23837986 -4.60032272 29.53563118 C-4.16636222 26.29392822 -3.73122702 23.05239177 -3.29400635 19.81112671 C-2.61928411 14.7834269 -1.96217025 9.76339778 -1.45019531 4.71630859 C-1 1 -1 1 0 0 Z " fill="#DFCEF8" transform="translate(263,104)"/>
<path d="M0 0 C4.63860994 2.56184667 7.36079092 5.90135939 10 10.4375 C11.24941933 14.88855636 11.73130403 17.3927846 11 22 C8.94744369 24.43022667 6.56087611 26.14103426 4 28 C3.566875 28.54140625 3.13375 29.0828125 2.6875 29.640625 C-1.32341499 32.87163986 -8.1618845 31.48167079 -13 31 C-17.29806882 29.79602289 -20.04498873 28.07438767 -23 24.75 C-24.32984282 21.09293224 -24.67606746 17.80851337 -24 14 C-22.3125 10.875 -22.3125 10.875 -20 8 C-19.59136719 7.46117187 -19.18273437 6.92234375 -18.76171875 6.3671875 C-13.63606092 -0.20254112 -8.10973653 -1.45616816 0 0 Z " fill="#3D0F88" transform="translate(384,214)"/>
<path d="M0 0 C3.44402863 2.88337281 4.47493092 4.72318167 5.09375 9.16796875 C5.32808397 17.34036602 4.22824896 22.17875379 -1.3125 28.25 C-2.25222656 29.29220703 -2.25222656 29.29220703 -3.2109375 30.35546875 C-6.3844719 33.49764411 -8.92854124 35.67922549 -13.5 35.9375 C-17.74205979 35.1725384 -19.45251428 34.44645463 -22.3125 31.25 C-24.94877253 24.67814919 -25.44579735 18.22590466 -24.3125 11.25 C-21.59875916 6.04418528 -18.04414124 2.45154698 -13.25 -0.875 C-8.12610999 -2.40126511 -4.78344745 -2.52710431 0 0 Z " fill="#3D0F87" transform="translate(193.3125,326.75)"/>
<path d="M0 0 C0.66 0 1.32 0 2 0 C1.5335442 1.90219817 1.05827179 3.80261047 0.54199219 5.69189453 C-1.36328545 13.80563091 -1.45898241 24.54417746 2.6015625 31.9453125 C8.9989001 41.34475266 15.40838694 48.79054889 27 51 C29.73181989 51.20296654 32.39242298 51.34108615 35.125 51.375 C35.7938623 51.38885742 36.46272461 51.40271484 37.15185547 51.41699219 C42.20392174 51.36967187 45.54523355 50.15623831 50 48 C52.75 47 52.75 47 54 47 C52.41319163 48.81349528 50.775139 50.37543082 49 52 C48.401875 52.59039062 47.80375 53.18078125 47.1875 53.7890625 C39.07518135 61.47613864 31.58756509 62.58780167 20.53515625 62.35546875 C15.90158931 61.88955207 12.75157614 60.69175588 9 58 C8.13375 57.443125 7.2675 56.88625 6.375 56.3125 C-2.69570166 47.48050102 -7.06156881 34.07500361 -7.5 21.5 C-7.01588207 13.68687457 -4.35219526 6.4580962 0 0 Z " fill="#671EDE" transform="translate(229,231)"/>
<path d="M0 0 C3.07291825 1.77258863 4.57696243 3.76862588 6 7 C7.072266 12.7711132 7.48290411 18.37549511 4.5234375 23.61328125 C1.66414794 26.94100761 -1.61024393 30.57485613 -6.0859375 31.37109375 C-10.33472805 31.49435218 -12.36057703 31.47261698 -15.875 28.875 C-19.72306489 23.66879456 -21.64678368 19.61035037 -21.41796875 13.10546875 C-20.72803533 9.63000976 -18.69444377 8.15555501 -16 6 C-14.700625 4.63875 -14.700625 4.63875 -13.375 3.25 C-9.58076507 -0.34453835 -5.06969589 -1.08840929 0 0 Z " fill="#3E1089" transform="translate(328,360)"/>
<path d="M0 0 C4.51939241 2.17002572 8.17281605 5.27081801 10 10 C10.88372245 14.30298503 10.93014063 17.55876648 8.5 21.32421875 C2.93811751 27.77831989 2.93811751 27.77831989 -1.390625 28.2734375 C-10.0622757 28.58144695 -10.0622757 28.58144695 -13.5625 25.75 C-17.65641502 21.13122408 -18.56132225 17.64709683 -18.453125 11.54296875 C-17.69677498 7.29828027 -15.29273699 4.65835647 -12 2 C-8.11818425 -0.29204628 -4.42945451 -0.80986295 0 0 Z " fill="#3E1385" transform="translate(268,233)"/>
<path d="M0 0 C0.66 0 1.32 0 2 0 C2.265625 2.1875 2.265625 2.1875 2.25 5 C2.25515625 5.928125 2.2603125 6.85625 2.265625 7.8125 C2.17796875 8.534375 2.0903125 9.25625 2 10 C1.34 10 0.68 10 0 10 C-0.17677018 12.22427704 -0.17677018 12.22427704 -0.01171875 15.03125 C0.10956777 22.62445348 -0.81251624 29.98677387 -1.8125 37.5 C-1.99636943 38.92385296 -2.17979585 40.34776319 -2.36279297 41.77172852 C-3.45516558 50.20280319 -4.6087897 58.625598 -5.96020508 67.01953125 C-6.74578856 71.9651496 -7.36064607 76.92464027 -7.9375 81.8984375 C-8.92194572 90.38478732 -9.9448688 98.86442509 -11.06738281 107.33374023 C-11.27493293 108.92182811 -11.47629059 110.51073591 -11.671875 112.1003418 C-11.96161049 114.44800937 -12.27163945 116.79222901 -12.5859375 119.13671875 C-12.66838715 119.83987717 -12.75083679 120.54303558 -12.83578491 121.26750183 C-13.53041758 126.21922326 -14.97132556 129.15141851 -18 133 C-18.33 133 -18.66 133 -19 133 C-19.30616878 125.72120743 -18.46834904 118.73210829 -17.49609375 111.52734375 C-17.33748367 110.31450211 -17.1788736 109.10166046 -17.01545715 107.85206604 C-16.58442204 104.56233653 -16.14852429 101.27332806 -15.71003723 97.98458862 C-14.97055475 92.43016889 -14.24069359 86.87447051 -13.51098251 81.31875992 C-13.32339837 79.8909394 -13.1355637 78.46315178 -12.94748306 77.03539658 C-11.65904648 67.2458397 -10.43654807 57.45065362 -9.2843647 47.64413643 C-8.90285172 44.40369202 -8.51540485 41.16395439 -8.12915039 37.92407227 C-7.68940717 34.23342286 -7.2548124 30.54257698 -6.83737183 26.84933472 C-6.45263747 23.44980149 -6.04857472 20.05306337 -5.640625 16.65625 C-5.53353714 15.65904434 -5.42644928 14.66183868 -5.31611633 13.63441467 C-4.62506032 8.0552812 -3.72455371 4.29825368 0 0 Z " fill="#651DDC" transform="translate(250,98)"/>
<path d="M0 0 C2.13375116 2.21910121 3.02280073 4.06840218 4 7 C5.02297922 6.02351983 6.01904252 5.01868662 7 4 C7.99 4 8.98 4 10 4 C8.51767197 9.7104449 4.39948237 13.33376469 0 17 C-2.33244658 18.35740744 -4.41361887 19.12160641 -7 20 C-7.73476563 20.34546875 -8.46953125 20.6909375 -9.2265625 21.046875 C-12.72948587 22.25069655 -16.02403036 22.38365864 -19.6875 22.375 C-20.39503418 22.37338867 -21.10256836 22.37177734 -21.83154297 22.37011719 C-27.86150952 22.22985343 -32.69121083 20.92898713 -38 18 C-39.60875 17.13375 -39.60875 17.13375 -41.25 16.25 C-44.71740745 13.41303027 -48.0586222 10.09846425 -50 6 C-49.01 5.67 -48.02 5.34 -47 5 C-46.855625 5.804375 -46.71125 6.60875 -46.5625 7.4375 C-46.376875 8.283125 -46.19125 9.12875 -46 10 C-44.68 10 -43.36 10 -42 10 C-41.34 9.34 -40.68 8.68 -40 8 C-40 6.68 -40 5.36 -40 4 C-39.67 3.34 -39.34 2.68 -39 2 C-37.58203125 3.046875 -37.58203125 3.046875 -35.8125 4.75 C-30.19165838 9.72359319 -25.10813967 10.40386834 -17.75 10.25390625 C-11.44947015 9.67218119 -6.61620678 7.34466521 -2 3 C-1.34 2.01 -0.68 1.02 0 0 Z " fill="#3E1089" transform="translate(284,261)"/>
<path d="M0 0 C6.03973237 1.4211135 9.96126953 5.85491654 13.25 10.9375 C14.1875 13.75 14.1875 13.75 14.1875 16.0625 C13.8575 16.619375 13.5275 17.17625 13.1875 17.75 C12.3625 17.894375 11.5375 18.03875 10.6875 18.1875 C9.8625 18.373125 9.0375 18.55875 8.1875 18.75 C8.14367187 19.57628906 8.09984375 20.40257812 8.0546875 21.25390625 C7.62542969 22.48947266 7.62542969 22.48947266 7.1875 23.75 C4.18583686 24.2302661 1.80684861 24.35763998 -1.1875 24.25 C-2.35925781 24.25386719 -2.35925781 24.25386719 -3.5546875 24.2578125 C-9.29842928 24.15946076 -9.29842928 24.15946076 -11.53173828 22.38061523 C-13.88248163 19.38774165 -13.33125954 15.99230987 -13.23046875 12.33984375 C-12.8125 9.75 -12.8125 9.75 -10.625 7.375 C-9.696875 6.83875 -8.76875 6.3025 -7.8125 5.75 C-7.008125 4.8425 -6.20375 3.935 -5.375 3 C-2.8125 0.75 -2.8125 0.75 0 0 Z " fill="#40118B" transform="translate(200.8125,214.25)"/>
<path d="M0 0 C3.96311717 0.07339106 6.26986636 0.43835874 9.4375 2.875 C11.77403953 7.54807906 11.76646256 11.87476552 11 17 C9.3125 19.875 9.3125 19.875 7 22 C6.2575 22.928125 5.515 23.85625 4.75 24.8125 C0.87000885 27.8988566 -1.12804219 27.55005975 -6 27 C-9 25 -9 25 -10 22 C-10.49539421 16.75369411 -10.84269756 12.43258586 -8.125 7.8125 C-6 6 -6 6 -4 6 C-3.29848848 4.6846659 -2.63474075 3.34882408 -2 2 C-1.34 1.34 -0.68 0.68 0 0 Z " fill="#3F1289" transform="translate(121,180)"/>
<path d="M0 0 C0.5546875 1.52734375 0.5546875 1.52734375 1 4 C2.56399996 11.57246023 4.67460036 17.82774111 8.58203125 24.5234375 C9.79241014 26.63743259 10.78079553 28.68273228 11.6875 30.9375 C12.87010926 33.6969216 14.17497708 35.65354196 16 38 C16 38.66 16 39.32 16 40 C18.21433941 41.08742694 18.21433941 41.08742694 21 42 C22.3921875 42.5259375 22.3921875 42.5259375 23.8125 43.0625 C26.47096616 43.84440181 28.76817512 44.26157609 31.5 44.5625 C32.655 44.706875 33.81 44.85125 35 45 C34.01 45.495 34.01 45.495 33 46 C33 46.66 33 47.32 33 48 C28.65253861 50.83486538 24.00044794 50.52137372 19 50 C15.35761497 48.60927117 12.42889055 47.10358237 10 44 C10 43.34 10 42.68 10 42 C9.34 42 8.68 42 8 42 C5.6451013 38.43260108 3.81376876 34.55556467 1.875 30.75 C1.31167969 29.70585937 0.74835938 28.66171875 0.16796875 27.5859375 C-3.52661365 20.33990423 -5.25643954 14.15096745 -4 6 C-2.94031179 3.30217948 -2.10562215 2.04181542 0 0 Z " fill="#651BDE" transform="translate(357,280)"/>
<path d="M0 0 C6.21841572 3.16740159 10.79969588 6.306423 13.984375 12.67578125 C14.42589206 18.86728794 14.47016074 24.9192248 11.984375 30.67578125 C10.994375 30.34578125 10.004375 30.01578125 8.984375 29.67578125 C8.6484375 27.671875 8.6484375 27.671875 8.609375 25.11328125 C8.17186996 19.53708063 6.83309007 15.78992495 2.984375 11.67578125 C-6.70669415 3.97531009 -17.53148457 2.36194868 -29.52954102 2.0534668 C-31.36162194 1.99470233 -33.19041296 1.84482199 -35.015625 1.67578125 C-35.015625 1.01578125 -35.015625 0.35578125 -35.015625 -0.32421875 C-26.38468195 -8.9551618 -9.91363059 -4.35326524 0 0 Z " fill="#DCC8F8" transform="translate(403.015625,269.32421875)"/>
<path d="M0 0 C1.29006958 0.23505249 1.29006958 0.23505249 2.60620117 0.47485352 C8.37066057 1.64638207 13.39042171 3.12782175 17.046875 8.09765625 C17.91571989 11.01676316 17.95157115 13.64461473 17.9375 16.6875 C17.94523437 18.35619141 17.94523437 18.35619141 17.953125 20.05859375 C17.57611174 24.58829718 16.67391249 27.17525207 13.59375 30.53125 C12.9646875 30.7684375 12.335625 31.005625 11.6875 31.25 C11.17875001 27.96008342 11.18174303 24.84382517 11.19921875 21.5234375 C11.12383045 17.69919477 10.94368394 15.67264707 8.9140625 12.32421875 C5.50970504 9.15279101 2.12069205 8.37410575 -2.3125 7.25 C-3.05371094 7.04375 -3.79492188 6.8375 -4.55859375 6.625 C-12.94134799 4.5893902 -22.94336194 4.11643988 -31.40234375 5.90234375 C-32.34787109 6.07443359 -32.34787109 6.07443359 -33.3125 6.25 C-24.70238573 -4.82014692 -12.21799123 -2.3040906 0 0 Z " fill="#DCC7F9" transform="translate(166.3125,242.75)"/>
<path d="M0 0 C1 2 1 2 0.1875 4.625 C-0.204375 5.40875 -0.59625 6.1925 -1 7 C-1.66 7 -2.32 7 -3 7 C-3.37313091 9.86468245 -3.60816382 12.62209821 -3.75 15.5 C-3.80542969 16.31082031 -3.86085938 17.12164062 -3.91796875 17.95703125 C-4.02952635 19.96844851 -4.02539095 21.98565152 -4 24 C-3.34 24 -2.68 24 -2 24 C1 29.30769231 1 29.30769231 1 32 C1.804375 32.309375 2.60875 32.61875 3.4375 32.9375 C4.7059375 33.4634375 4.7059375 33.4634375 6 34 C6.33 34.99 6.66 35.98 7 37 C9.89887128 37.31355766 12.53851147 37.42230688 15.4375 37.375 C16.24977051 37.37209961 17.06204102 37.36919922 17.89892578 37.36621094 C24.04763452 37.25096096 29.18248554 36.00603947 35 34 C30.28278913 39.9642896 21.464459 43.24688613 14.10546875 44.48828125 C7.46263242 44.68215819 2.91036665 42.82743953 -2.6875 39.3125 C-8.01600226 33.98399774 -9.28903103 29.15299309 -9.5625 21.625 C-9.3372535 13.25750969 -6.99294257 7.65804091 -1.75 1.25 C-1.1725 0.8375 -0.595 0.425 0 0 Z " fill="#651DDC" transform="translate(125,256)"/>
<path d="M0 0 C4.40629726 3.10340854 7.90710609 7.32071258 9.90234375 12.33984375 C11.5140128 23.09311104 9.42527977 30.15749643 3.75 39.09765625 C2.83541016 40.20753906 2.83541016 40.20753906 1.90234375 41.33984375 C0.90234375 38.33984375 0.90234375 38.33984375 2.33984375 34.77734375 C4.71109614 28.83282163 5.0308958 22.53906871 2.65234375 16.52734375 C-0.40016409 10.96741875 -3.51793189 7.46448939 -9.09765625 4.33984375 C-15.61814544 2.56152852 -22.942774 2.84135864 -29.53515625 4.15234375 C-30.80359375 4.24515625 -30.80359375 4.24515625 -32.09765625 4.33984375 C-25.14656219 -5.18572959 -9.76812602 -5.11144025 0 0 Z " fill="#DFC9FA" transform="translate(295.09765625,326.66015625)"/>
<path d="M0 0 C0.75390625 1.6875 0.75390625 1.6875 1 4 C0.67 4.33 0.34 4.66 0 5 C-0.81506022 11.62527518 -0.48089324 16.82018205 3.51953125 22.27734375 C6.77589273 26.06640816 9.31316978 28.59391124 14.375 29.8125 C15.91451569 29.91513438 17.45739971 29.96795786 19 30 C19.63454102 30.01901367 20.26908203 30.03802734 20.92285156 30.05761719 C23.11528005 30.11843489 25.30694152 30.15746139 27.5 30.1875 C28.23138184 30.20079346 28.96276367 30.21408691 29.71630859 30.2277832 C31.47917346 30.23007589 33.24163531 30.12590233 35 30 C35 29.34 35 28.68 35 28 C35.99 28.33 36.98 28.66 38 29 C30.95400299 35.4447386 23.29585634 37.48205327 13.97265625 37.3203125 C9.650389 36.85457542 6.57051534 35.4053122 3 33 C2.0925 32.401875 1.185 31.80375 0.25 31.1875 C-4.52418446 26.54593178 -6.26185245 22.76638235 -6.625 16.1875 C-6.44736302 10.09377931 -4.45653376 4.34542904 0 0 Z " fill="#661DDD" transform="translate(243,354)"/>
<path d="M0 0 C5.83320578 3.39386518 8.62917867 8.58595533 10.5859375 14.88671875 C12.18993656 23.07316677 11.4996154 29.98589365 7 37 C6.01 37.495 6.01 37.495 5 38 C4.95580918 35.91671868 5.02315114 33.8312594 5.125 31.75 C5.24277243 23.37974481 3.53096788 17.00056213 -0.9375 9.9375 C-4.16430908 6.9062551 -6.80293585 6.19153026 -11.125 5.5 C-16.06064684 6.13685766 -19.34858235 8.19933633 -23.546875 10.78515625 C-26 12 -26 12 -29 11 C-26.00700034 8.23890346 -22.43134983 6.17667344 -19 4 C-18.31679687 3.55398437 -17.63359375 3.10796875 -16.9296875 2.6484375 C-11.54302652 -0.48439043 -6.12573817 -1.06004351 0 0 Z " fill="#DEC7FA" transform="translate(218,129)"/>
<path d="M0 0 C5.49214903 2.07390105 9.09553037 5.47769945 12.0625 10.5 C14.79239773 16.73436851 14.94955345 23.3214741 14 30 C12.59375 33.421875 12.59375 33.421875 11 36 C10.34 36 9.68 36 9 36 C8.61550362 33.48551576 8.34437855 31.02996147 8.125 28.5 C7.31676251 20.91871568 6.25876171 15.25876171 0.625 9.625 C-4.46496187 6.47407122 -8.27706999 5.94818197 -14.1875 6.1875 C-17.0859375 6.2578125 -17.0859375 6.2578125 -19 6 C-14.24236115 -0.872145 -7.83484439 -0.97213671 0 0 Z " fill="#DFCAFA" transform="translate(354,112)"/>
<path d="M0 0 C0.66 0 1.32 0 2 0 C2 1.32 2 2.64 2 4 C2.99 4.33 3.98 4.66 5 5 C5.60070312 5.77988281 6.20140625 6.55976563 6.8203125 7.36328125 C9.29104549 10.35207116 11.39102871 11.53416503 14.875 13.1875 C15.88304687 13.67605469 16.89109375 14.16460937 17.9296875 14.66796875 C23.81015511 17.21916399 28.64720975 18.30131 35.0625 18.1875 C36.10374023 18.1865332 36.10374023 18.1865332 37.16601562 18.18554688 C40.29308409 18.15881979 43.07510954 17.98166914 46.12109375 17.23828125 C46.74113281 17.15964844 47.36117187 17.08101563 48 17 C47.60546875 18.796875 47.60546875 18.796875 46 21 C38.19868656 25.76012345 28.8436478 25.99702906 20 25 C16.9443899 24.0856495 14.58152365 22.85224322 12 21 C11.13375 20.443125 10.2675 19.88625 9.375 19.3125 C5.00638738 15.05885087 0.18624064 9.10401059 -0.1875 2.875 C-0.125625 1.92625 -0.06375 0.9775 0 0 Z " fill="#410F8E" transform="translate(226,268)"/>
<path d="M0 0 C1 2 1 2 0.5625 3.625 C-0.7903372 9.33697929 -0.35034341 14.64644 2 20 C2.66 20.33 3.32 20.66 4 21 C4.2475 21.598125 4.495 22.19625 4.75 22.8125 C6.66676953 26.16684667 8.5237312 27.29235919 12 29 C18.87411341 29.94208482 23.83239947 28.89499617 30 26 C32.46484375 26.2265625 32.46484375 26.2265625 34 27 C26.9904077 32.92189694 18.79488862 35.54677596 9.7578125 35.38671875 C4.44814035 34.64216132 0.77867049 31.8379595 -2.875 28.0625 C-6.05307714 22.23602524 -6.84568661 16.54400355 -6 10 C-4.62305308 6.08999034 -2.93450627 2.93450627 0 0 Z " fill="#661DDE" transform="translate(179,150)"/>
<path d="M0 0 C0.33 0.66 0.66 1.32 1 2 C0.690625 2.66 0.38125 3.32 0.0625 4 C-1.82476749 9.32875526 -1.94465204 14.42763982 0.015625 19.765625 C3.54462283 27.05724267 3.54462283 27.05724267 10.1875 31.1875 C15.80094664 32.3838083 20.68824239 32.27740676 26.3125 31.25 C27.199375 31.1675 28.08625 31.085 29 31 C27.40825683 32.65069662 25.9056448 33.74697328 24 35 C23.154375 35.5775 22.30875 36.155 21.4375 36.75 C15.64884796 38.85496438 9.51278662 39.19400136 3.62109375 37.19140625 C-1.82453028 34.2050963 -5.01276351 29.83467151 -7 24 C-8.73683577 15.15672167 -5.52145859 8.48983998 -1 1 C-0.67 0.67 -0.34 0.34 0 0 Z " fill="#651DDD" transform="translate(324,128)"/>
<path d="M0 0 C3.98057527 -1.38582991 7.89293174 -0.23751838 11.9375 0.5625 C13.11489746 0.75054199 14.29229492 0.93858398 15.50537109 1.13232422 C19.0145918 1.7038601 22.50483861 2.34875611 26 3 C27.8361719 3.29958757 29.67332029 3.59329976 31.51171875 3.87890625 C35.36647636 4.49420677 39.19570611 5.12045573 43 6 C43 6.33 43 6.66 43 7 C40.11802397 7.4552532 37.25106404 7.84278797 34.35546875 8.19140625 C33.03437859 8.35575417 33.03437859 8.35575417 31.68659973 8.52342224 C29.81633403 8.75514051 27.94577255 8.9844816 26.07495117 9.21166992 C23.21010975 9.55975288 20.34622359 9.9149587 17.48242188 10.27148438 C15.66932279 10.49521309 13.85617328 10.71853369 12.04296875 10.94140625 C11.18350143 11.04763809 10.32403412 11.15386993 9.43852234 11.26332092 C8.23761711 11.40863503 8.23761711 11.40863503 7.01245117 11.55688477 C6.3085173 11.64269302 5.60458344 11.72850128 4.87931824 11.81690979 C3 12 3 12 0 12 C-1.11098725 7.87690138 -1.30278234 4.08486761 0 0 Z " fill="#D9C4F5" transform="translate(299,241)"/>
<path d="M0 0 C-3.2843213 4.99216837 -7.35266692 5.79925457 -13 7 C-15.63946476 7.40357166 -18.25263777 7.76700608 -20.90234375 8.0703125 C-21.98534508 8.19924393 -21.98534508 8.19924393 -23.09022522 8.33078003 C-24.60501545 8.50970555 -26.12011403 8.68603839 -27.63549805 8.85986328 C-29.92921376 9.12404562 -32.22140455 9.39934417 -34.51367188 9.67578125 C-51.0738828 11.63975548 -51.0738828 11.63975548 -56 11 C-55.984375 8.56640625 -55.984375 8.56640625 -54 6 C-51.140625 5.21484375 -51.140625 5.21484375 -47.25 4.9375 C-45.72618473 4.80774804 -44.20277185 4.67322358 -42.6796875 4.53515625 C-41.8040918 4.4592627 -40.92849609 4.38336914 -40.02636719 4.30517578 C-32.46766691 3.54296415 -24.94567406 2.37636781 -17.42285156 1.32006836 C-16.17729492 1.14999268 -14.93173828 0.97991699 -13.6484375 0.8046875 C-12.53645996 0.64983887 -11.42448242 0.49499023 -10.27880859 0.33544922 C-6.77145579 -0.02338196 -3.51851914 -0.23410778 0 0 Z " fill="#641DDB" transform="translate(349,258)"/>
<path d="M0 0 C1 2 1 2 0.1875 5.125 C-0.204375 6.07375 -0.59625 7.0225 -1 8 C-1.66 8 -2.32 8 -3 8 C-2.91894291 12.78236832 -2.72711656 15.07090661 0.25 18.875 C5.84595255 23.19914515 10.86807439 23.28228765 17.74609375 23.4609375 C18.86177734 23.72777344 18.86177734 23.72777344 20 24 C19.47265625 25.9765625 19.47265625 25.9765625 18 28 C12.87304101 30.5634795 4.80095234 29.77500035 -0.59765625 28.28125 C-3.72712828 26.83057885 -5.70326612 25.33382562 -8 22.75 C-9.32984282 19.09293224 -9.67606746 15.80851337 -9 12 C-7.3125 8.875 -7.3125 8.875 -5 6 C-4.5565625 5.41476563 -4.113125 4.82953125 -3.65625 4.2265625 C-2.3125 2.5 -2.3125 2.5 0 0 Z " fill="#641CDA" transform="translate(369,216)"/>
<path d="M0 0 C0.66 0 1.32 0 2 0 C3.34919532 1.65385233 4.68133728 3.321702 6 5 C6.99 5.66 7.98 6.32 9 7 C9 7.66 9 8.32 9 9 C11.13326836 10.03973184 11.13326836 10.03973184 14 11 C15.670625 11.7734375 15.670625 11.7734375 17.375 12.5625 C22.12084118 14.39487111 27.04381911 14.4785453 32.07177734 14.62133789 C33.71827349 14.68116878 35.36106521 14.83141166 37 15 C37 15.66 37 16.32 37 17 C30.7216189 20.6601626 24.170615 22.00195462 17 21 C11.0119223 19.38065603 6.63407979 15.99720863 2.75 11.25 C0.59799679 7.25342261 0.15570357 4.51540346 0 0 Z " fill="#42138C" transform="translate(223,283)"/>
<path d="M0 0 C3 1 3 1 4.1328125 2.9765625 C8.76773991 15.34853408 8.18680934 28.79916437 8.18530273 41.85839844 C8.18755563 44.05421592 8.20599737 46.24957907 8.22460938 48.4453125 C8.22753255 49.83853997 8.22952452 51.23176978 8.23046875 52.625 C8.23457764 53.87539062 8.23868652 55.12578125 8.24291992 56.4140625 C8.16275635 57.26742187 8.08259277 58.12078125 8 59 C7.34 58.67 6.68 58.34 6 58 C5.53170776 56.12477112 5.53170776 56.12477112 5.22216797 53.63891602 C5.10219452 52.71027237 4.98222107 51.78162872 4.85861206 50.82484436 C4.6772319 49.30473 4.6772319 49.30473 4.4921875 47.75390625 C4.36184113 46.71362778 4.23149475 45.6733493 4.09719849 44.60154724 C3.82225504 42.3902654 3.55187593 40.17841211 3.28564453 37.96606445 C2.88033282 34.6067003 2.45896318 31.24965324 2.03515625 27.89257812 C1.76986248 25.74230706 1.5055106 23.59191954 1.2421875 21.44140625 C1.05473465 19.948619 1.05473465 19.948619 0.86349487 18.42567444 C-0.83050485 4.16340342 -0.83050485 4.16340342 0 0 Z " fill="#491994" transform="translate(281,96)"/>
<path d="M0 0 C2.625 1.1875 2.625 1.1875 5 3 C6.546875 4.1446875 6.546875 4.1446875 8.125 5.3125 C12.17882597 9.10194601 13.76143461 12.05739613 14.4375 17.5625 C13.92667277 21.57614256 12.87702717 23.20759128 10 26 C9.34 26 8.68 26 8 26 C7.49734368 24.05639557 7.00066672 22.11093006 6.54296875 20.15625 C5.01096952 14.07233939 2.18695867 10.77605798 -2.7734375 7.171875 C-5.2385779 5.87443268 -7.0501217 5.60379702 -9.8125 5.4375 C-10.864375 5.293125 -11.91625 5.14875 -13 5 C-9.8950242 -0.30433366 -5.79054787 -1.07538746 0 0 Z " fill="#DFC9FA" transform="translate(387,208)"/>
<path d="M0 0 C2.42604065 0.92022232 3.86078592 1.83851166 5.5625 3.8125 C6.036875 4.204375 6.51125 4.59625 7 5 C7.433125 4.46375 7.86625 3.9275 8.3125 3.375 C9.1478125 2.694375 9.1478125 2.694375 10 2 C12.75 4.125 12.75 4.125 14.32421875 5.58984375 C16.92018063 7.7743245 19.85442059 8.79896059 23 10 C23.73347656 10.350625 24.46695313 10.70125 25.22265625 11.0625 C28.79027631 12.26675994 32.15363788 12.32988954 35.875 12.3125 C36.55691406 12.32861328 37.23882812 12.34472656 37.94140625 12.36132812 C43.01253284 12.36615777 46.44757006 11.22001213 51 9 C53.75 8 53.75 8 55 8 C49.65495691 14.01317348 45.59436376 16.64424174 37.46875 17.2734375 C22.88359688 17.64667961 12.36759248 13.53083324 1.5 3.75 C0 2 0 2 0 0 Z " fill="#5F1AD2" transform="translate(228,270)"/>
<path d="M0 0 C0 1.69828059 -0.02002936 3.39761997 -0.10546875 5.09375 C-0.31928151 11.36559085 -0.53824759 18.59434396 3 24 C6.11830853 24.88710501 8.66237493 24.94530118 11.89453125 24.77734375 C12.58933594 24.85082031 13.28414062 24.92429687 14 25 C13.15278343 28.26008936 11.82257617 29.11828255 9 31 C4.44484344 31.4408216 2.11736369 31.63155339 -1.875 29.375 C-6.68741217 23.99642169 -6.52725059 17.27125714 -6.46875 10.3828125 C-5.76163618 5.27980775 -3.93991987 3.2011849 0 0 Z " fill="#651CDC" transform="translate(175,331)"/>
<path d="M0 0 C4.54624166 0.03276571 6.77248228 1.82925472 10.02734375 4.83203125 C12.99739661 8.37026814 12.64002196 12.4774998 12.6015625 16.85546875 C12.27136814 20.61854585 11.20011765 23.13824886 9.375 26.4375 C8.715 26.7675 8.055 27.0975 7.375 27.4375 C7.06640625 25.33984375 7.06640625 25.33984375 6.9375 22.375 C6.58865275 17.73355773 6.10629731 14.3393533 3.375 10.4375 C0.18734321 7.79629866 -2.2384325 7.32281802 -6.25 7.0625 C-7.36375 6.85625 -8.4775 6.65 -9.625 6.4375 C-7.6875 3.9375 -7.6875 3.9375 -4.625 1.4375 C-3.625 0.4375 -3.625 0.4375 0 0 Z " fill="#DDC9F9" transform="translate(191.625,318.5625)"/>
<path d="M0 0 C4.36753409 1.49462745 6.56009414 3.2620934 8.9375 7.25 C10.42759128 12.50914569 11.0382612 16.72571356 8.6875 21.875 C7 24 7 24 4 26 C3.62890625 24 3.62890625 24 3.5625 21 C3.17451222 14.85427359 1.58392241 11.49779167 -2.875 7.1875 C-5.08622576 5.7881853 -5.08622576 5.7881853 -8.3125 5.5 C-9.199375 5.335 -10.08625 5.17 -11 5 C-9.10452546 -0.68642363 -5.35976993 -0.53597699 0 0 Z " fill="#DEC8FA" transform="translate(331,354)"/>
<path d="M0 0 C3.1002913 1.93114218 3.80759499 4.81220302 4.6875 8.1875 C7.30178461 19.64055641 7.31764978 32.92859529 3 44 C2.34 43.67 1.68 43.34 1 43 C0.04307765 37.48548697 -0.17076368 32.0439222 -0.203125 26.45703125 C-0.20882507 25.68437424 -0.21452515 24.91171722 -0.22039795 24.11564636 C-0.22976284 22.5031366 -0.23634758 20.89060844 -0.24023438 19.27807617 C-0.25012567 16.78077088 -0.28129515 14.28422842 -0.3125 11.78710938 C-0.31901329 10.21875488 -0.32427028 8.65039454 -0.328125 7.08203125 C-0.3404718 6.32606155 -0.3528186 5.57009186 -0.36553955 4.79121399 C-0.35644531 2.74536133 -0.35644531 2.74536133 0 0 Z " fill="#491995" transform="translate(293,101)"/>
<path d="M0 0 C1 2 1 2 1.4375 5.8125 C1.97157758 10.28742273 2.95657577 13.55525876 5.625 17.25 C8.2205951 19.16254376 9.25614223 19.263397 12.375 19.5 C13.57125 19.665 14.7675 19.83 16 20 C15.625 22 15.625 22 14 24 C10.5176309 25.74118455 6.79955054 25.57948084 3 25 C-1.52196629 21.65767709 -4.45093255 17.40904513 -5.35546875 11.79296875 C-5.55423362 8.55363864 -5.65443892 6.05554664 -3.91015625 3.2421875 C-2.5625 1.8125 -2.5625 1.8125 0 0 Z " fill="#661DDE" transform="translate(312,366)"/>
<path d="M0 0 C6.04969249 0.87995527 9.84272662 5.40685993 13.4375 10.125 C14.5598609 12.79060713 14.7557558 14.63569783 14.4375 17.5 C13.4375 18.5 13.4375 18.5 11.0625 18.796875 C8.4375 18.5 8.4375 18.5 6.8125 16.890625 C6.35875 16.18421875 5.905 15.4778125 5.4375 14.75 C2.40778173 10.34950945 -0.37782219 7.22822594 -5.5625 5.5 C-4.29576762 2.12204698 -3.56740733 0.69607948 0 0 Z " fill="#E0CBFA" transform="translate(205.5625,208.5)"/>
<path d="M0 0 C0.5625 1.8984375 0.5625 1.8984375 1 4.375 C1.61522493 8.11092892 1.61522493 8.11092892 4 11 C7.18582324 11.26584845 10.3468665 11.31491183 13.54296875 11.36328125 C14.75919922 11.67845703 14.75919922 11.67845703 16 12 C16.38671875 14.51171875 16.38671875 14.51171875 15 17 C11.99833686 17.4802661 9.61934861 17.60763998 6.625 17.5 C5.45324219 17.50386719 5.45324219 17.50386719 4.2578125 17.5078125 C-1.48373971 17.40949825 -1.48373971 17.40949825 -3.72363281 15.6328125 C-5.56905494 13.27202765 -5.39885311 11.45778516 -5.375 8.5 C-5.38273438 7.5409375 -5.39046875 6.581875 -5.3984375 5.59375 C-5 3 -5 3 -3.6015625 1.15625 C-2 0 -2 0 0 0 Z " fill="#661DDE" transform="translate(193,221)"/>
<path d="M0 0 C4.26010225 0.49155026 5.52468168 2.18248426 8.25 5.375 C8.58 5.705 8.91 6.035 9.25 6.375 C9.83412813 10.92353868 9.91085087 14.99703285 7.375 18.9375 C6.67375 19.741875 5.9725 20.54625 5.25 21.375 C4.59 21.375 3.93 21.375 3.25 21.375 C3.01171875 19.36328125 3.01171875 19.36328125 2.9375 16.6875 C2.627169 12.70397844 2.41876386 11.59261656 -0.125 8.3125 C-2.65818608 6.23396625 -2.65818608 6.23396625 -5.75 5.375 C-4.43063478 1.85669274 -3.76000556 0.51272803 0 0 Z " fill="#DEC8FA" transform="translate(128.75,174.625)"/>
<path d="M0 0 C0.2955567 2.76322055 0.45069223 5.52722452 0.62109375 8.30078125 C0.83154704 11.21710621 0.83154704 11.21710621 3 14 C5.37607867 14.35420761 5.37607867 14.35420761 7.9375 14.3125 C10.3671875 14.484375 10.3671875 14.484375 12 15 C10.55181781 18.08525771 9.75778432 19.14858167 7 21 C4.03374795 21.6749216 2.10964697 21.40124477 -1 21 C-4 19 -4 19 -5 16 C-5.49824403 10.72351401 -5.86548306 6.42385923 -3.0625 1.8125 C-1 0 -1 0 0 0 Z " fill="#651CDB" transform="translate(116,186)"/>
</svg>
