<svg width="95" height="24" fill="none" xmlns="http://www.w3.org/2000/svg"><path d="M40.388 15.618V5.581c0-.573.454-1.037 1.016-1.037.563 0 1.017.464 1.017 1.037v10.037c0 .57-.456 1.035-1.017 1.035a1.025 1.025 0 01-1.016-1.035zm9.979-6.906c0 .453-.33.83-.76.889h-.002c-1.026-.08-1.789.144-2.203.374a1.774 1.774 0 00-.304.201l-.065.053a.781.781 0 00-.059.053l-.035.036c-.005.002-.007.005-.009.011-.012.01-.02.021-.029.03-.02.02-.03.034-.03.034v5.253c0 .571-.456 1.035-1.02 1.035a1.025 1.025 0 01-1.015-1.035v-3.69l-.002-.018c-.015-.17-.12-1.431.094-2.054.333-1.57 2.384-1.966 3.705-2.055.017-.002.03-.004.042-.004a1.96 1.96 0 01.109-.01h.703c.486 0 .88.4.88.897zm2.337.751l-.01-.56c0-.602.477-1.089 1.07-1.089.588 0 .764.487.764 1.088v5.082s-.19 1.103 3.447 1.103v.002h.063v-.002h4.241V8.902c0-.6.478-1.088 1.068-1.088.589 0 1.068.487 1.068 1.088v7.796c0 2.119-2.375 2.65-2.375 2.65h-3.863s-.792-.023-.792-.807c0-.783.678-.967.678-.967h2.396s1.764.047 1.764-.737l-.026-.158-1.648.019h-4.682s-3.163-.136-3.163-2.807V9.463zM91.71 7.857c3.087 0 3.29 2.072 3.29 2.072s-.067 5.52-.067 6.142c0 .622-.915.622-.915.622-.81 0-1.016-.552-1.016-.552V11.14c0-1.452-1.9-1.452-1.9-1.452h-4.609s-1.895 0-1.895 1.452v5.001s-.207.553-1.02.553c0 0-.913 0-.913-.623 0-.62-.07-6.142-.07-6.142s.206-2.072 3.289-2.072h5.826zM3.125 14.09v-3.62c0-1.51.798-2.659 3.84-2.659H8.1l1.417 1.67h-2.86c-.876 0-1.573.235-1.573 1.12v.808h12.683c.9 0 1.16-.493 1.16-.833 0-.78-.413-1.122-1.058-1.122h-7.036l-1.546-1.64h8.633c1.752 0 2.86 1.015 2.86 2.294v1.018c0 .624-.13 1.953-3.3 1.953h-.59l3.273 3.618h-2.476l-3.376-3.594H5.108v.91c0 .26-.103 1.016 1.315 1.016H14.8l1.546 1.665H5.908c-1.185 0-2.783-.493-2.783-2.603zM0 12.001C0 5.371 5.315.002 11.872 0c6.558 0 11.873 5.372 11.873 12.001C23.745 18.628 18.429 24 11.872 24 5.315 24 0 18.63 0 12.001zm1.231 0c.01 5.941 4.765 10.744 10.643 10.754 5.877-.01 10.631-4.813 10.641-10.754-.01-5.94-4.764-10.744-10.64-10.754C5.994 1.257 1.242 6.062 1.23 12zM80.173 13.3h.002v.571s.188 2.718-3.99 2.809h-6.023s-3.322-.138-3.322-2.809v-.574c0-2.67 3.322-2.806 3.322-2.806h6.023c.1.004.186.012.279.017h1.707s-.187-.902-1.498-.902h-2.465s-.769-.23-.769-.783c0-.555.319-.967.995-.967h2.24s3.499-.093 3.499 3.13v1.666c.102.374 0 .648 0 .648zm-6.624 1.769c5.003-.01 4.617-1.103 4.617-1.105v-1.86H73.55V12.1h-.068v.002c-4.999.008-4.647 1.102-4.647 1.102v.758s-.354 1.094 4.647 1.105v.002h.034l.034-.002zM37.83 13.296v-.002h-9.632v.483s.36 1.151 1.808 1.151h2.396s.676.138.676.921-.79.853-.79.853h-3.864s-2.303-.53-2.303-2.648v-3.429s-.182-2.717 3.795-2.81h4.931s3.165.14 3.165 2.81c0 1.66-.182 2.671-.182 2.671zm-9.632-1.659h7.715v-1.105s.13-1.105-3.422-1.105h-.062c-4.499 0-4.23 1.105-4.23 1.105v1.105z" fill="#fff"/></svg>