<svg width="187" height="47" fill="none" xmlns="http://www.w3.org/2000/svg"><path d="M79.5 30.586V10.93c0-1.123.895-2.03 2-2.03 1.109 0 2.003.907 2.003 2.03v19.656c0 1.115-.898 2.027-2.003 2.027s-2-.908-2-2.027zM99.144 17.06a1.75 1.75 0 01-1.497 1.74h-.004c-2.02-.157-3.52.283-4.337.734l-.177.1c-.165.1-.305.199-.42.294l-.128.104a1.57 1.57 0 00-.116.103l-.07.07c-.008.005-.012.01-.016.021-.025.021-.041.042-.058.059a.498.498 0 00-.058.066V30.64a2.017 2.017 0 01-2.007 2.027c-1.105 0-2-.908-2-2.027v-7.225s0-.012-.004-.037c-.029-.332-.235-2.802.186-4.02.655-3.076 4.691-3.852 7.292-4.026.033-.004.058-.008.083-.008.14-.017.214-.02.214-.02h1.385c.956 0 1.732.783 1.732 1.757zm4.6 1.471l-.02-1.098c0-1.177.939-2.13 2.106-2.13 1.158 0 1.505.953 1.505 2.13v9.952s-.375 2.16 6.785 2.16v.004h.124v-.005h8.348v-12.11c0-1.176.94-2.13 2.102-2.13 1.159 0 2.103.954 2.103 2.13V32.7c0 4.149-4.675 5.19-4.675 5.19h-7.606s-1.558-.046-1.558-1.58 1.335-1.894 1.335-1.894h4.716s3.471.091 3.471-1.443l-.049-.31-3.244.037h-9.218s-6.225-.266-6.225-5.497v-8.67zm76.78-3.146c6.076 0 6.476 4.058 6.476 4.058s-.132 10.81-.132 12.029c0 1.218-1.801 1.218-1.801 1.218-1.596 0-2-1.081-2-1.081v-9.795c0-2.843-3.739-2.843-3.739-2.843h-9.073s-3.731 0-3.731 2.843v9.795s-.408 1.081-2.008 1.081c0 0-1.797 0-1.797-1.218 0-1.215-.136-12.029-.136-12.029s.404-4.058 6.472-4.058h11.469zM6.151 27.593v-7.092c0-2.955 1.57-5.206 7.56-5.206h2.23l2.791 3.27h-5.631c-1.723 0-3.096.46-3.096 2.193v1.584H34.97c1.773 0 2.284-.966 2.284-1.634 0-1.525-.812-2.196-2.082-2.196H21.321l-3.042-3.213H35.27c3.45 0 5.631 1.99 5.631 4.493v1.994c0 1.223-.255 3.826-6.496 3.826h-1.163l6.443 7.084h-4.872l-6.646-7.038H10.055v1.782c0 .51-.202 1.99 2.588 1.99h16.49l3.042 3.261H11.63c-2.333 0-5.478-.965-5.478-5.098zM0 23.503C0 10.52 10.463.003 23.37 0c12.907 0 23.37 10.52 23.37 23.502C46.74 36.48 36.277 47 23.37 47 10.463 47 0 36.484 0 23.502zm2.424 0c.02 11.634 9.378 21.039 20.95 21.06 11.567-.021 20.925-9.426 20.946-21.06C44.3 11.87 34.94 2.462 23.374 2.44c-11.572.021-20.93 9.43-20.95 21.061zm155.389 2.54h.005v1.12s.371 5.321-7.854 5.5h-11.856s-6.538-.27-6.538-5.5v-1.124c0-5.231 6.538-5.496 6.538-5.496h11.856c.198.008.367.024.549.033h3.359s-.366-1.766-2.947-1.766h-4.852s-1.513-.452-1.513-1.534c0-1.086.627-1.894 1.958-1.894h4.407s6.888-.182 6.888 6.13v3.263c.202.733 0 1.268 0 1.268zm-13.039 3.465c9.849-.02 9.09-2.16 9.09-2.163V23.7h-9.09v-.004h-.132v.004c-9.84.017-9.147 2.16-9.147 2.16v1.483s-.697 2.143 9.147 2.164v.004h.066l.066-.004zm-70.307-3.47v-.003H55.508v.945s.71 2.255 3.558 2.255h4.716s1.331.269 1.331 1.803c0 1.533-1.554 1.67-1.554 1.67h-7.606s-4.534-1.036-4.534-5.185v-6.715s-.359-5.322 7.47-5.505h9.708s6.229.274 6.229 5.505c0 3.25-.36 5.23-.36 5.23zM55.508 22.79h15.187v-2.164s.256-2.163-6.736-2.163h-.124c-8.855 0-8.327 2.163-8.327 2.163v2.164z" fill="#3B5DAC"/></svg>